<svg width="25" height="20" viewBox="0 0 25 20" fill="none" xmlns="http://www.w3.org/2000/svg">
<path d="M13.5682 0.509761C13.8947 0.183361 14.3374 0 14.7991 0C15.2608 0 15.7035 0.183361 16.03 0.509761L23.8648 8.34457C24.1912 8.67107 24.3746 9.11384 24.3746 9.57551C24.3746 10.0372 24.1912 10.4799 23.8648 10.8064L16.03 18.6413C15.7017 18.9584 15.2619 19.1339 14.8054 19.1299C14.3489 19.126 13.9122 18.9429 13.5894 18.6201C13.2666 18.2972 13.0835 17.8606 13.0795 17.4041C13.0755 16.9476 13.251 16.5078 13.5682 16.1794L18.2812 11.3166H1.74107C1.27931 11.3166 0.836462 11.1331 0.509948 10.8066C0.183434 10.4801 0 10.0373 0 9.57551C0 9.11375 0.183434 8.6709 0.509948 8.34439C0.836462 8.01787 1.27931 7.83444 1.74107 7.83444H18.2812L13.5682 2.97163C13.2418 2.64514 13.0584 2.20237 13.0584 1.7407C13.0584 1.27903 13.2418 0.83626 13.5682 0.509761Z" fill="white"/>
</svg>
