<svg width="168" height="168" viewBox="0 0 168 168" fill="none" xmlns="http://www.w3.org/2000/svg">
<path d="M63.0039 70C70.7359 70 77.0039 63.732 77.0039 56C77.0039 48.268 70.7359 42 63.0039 42C55.2719 42 49.0039 48.268 49.0039 56C49.0039 63.732 55.2719 70 63.0039 70Z" stroke="#888888" stroke-width="8" stroke-linecap="round" stroke-linejoin="round"/>
<path d="M90.9961 14H62.9961C27.9961 14 13.9961 28 13.9961 63V105C13.9961 140 27.9961 154 62.9961 154H104.996C139.996 154 153.996 140 153.996 105V70" stroke="#888888" stroke-width="8" stroke-linecap="round" stroke-linejoin="round"/>
<path d="M110.25 35H148.75" stroke="#888888" stroke-width="8" stroke-linecap="round"/>
<path d="M129.496 54.25V15.75" stroke="#888888" stroke-width="8" stroke-linecap="round"/>
<path d="M18.6934 132.64L53.2034 109.47C58.7334 105.76 66.7134 106.18 71.6834 110.45L73.9934 112.48C79.4534 117.17 88.2734 117.17 93.7334 112.48L122.853 87.4902C128.313 82.8002 137.133 82.8002 142.593 87.4902L154.003 97.2902" stroke="#888888" stroke-width="8" stroke-linecap="round" stroke-linejoin="round"/>
</svg>
