<svg width="612" height="445" viewBox="0 0 612 445" fill="none" xmlns="http://www.w3.org/2000/svg">
<path d="M601.329 94.5399L591.759 140.884L585.603 134.879L575.12 142.351L567.113 132.41L549.147 145.47L533.804 119.799L516.68 129.827L509.892 120.464L488.151 132.714L481.609 118.711L496.847 44.8999L578.552 61.7689L601.329 94.5399Z" fill="#EBEBEB"/>
<path d="M578.551 61.77L601.33 94.537L572.994 88.687L578.551 61.77Z" fill="#DBDBDB"/>
<path d="M589.723 150.147L575.688 218.142L465.643 195.427L479.573 127.974L486.115 141.976L507.857 129.726L514.645 139.09L531.769 129.062L547.111 154.732L565.078 141.672L573.085 151.613L583.568 144.142L589.723 150.147Z" fill="#EBEBEB"/>
<path d="M432.213 142.179L320.063 149.119L311.154 5.153L394.425 0L425.002 25.645L432.213 142.179Z" fill="#EBEBEB"/>
<path d="M394.426 0L425.003 25.645L396.124 27.432L394.426 0Z" fill="#DBDBDB"/>
<path d="M363.336 96.8629L362.902 93.6159C361.77 86.8849 363.614 79.3579 369.463 71.4819C374.735 64.5179 377.597 59.4499 377.281 53.8069C376.923 47.4099 372.67 43.3699 364.761 43.6869C360.245 43.9399 355.313 45.7259 352.31 48.2849L348.857 40.5509C352.828 37.3089 359.865 34.9019 366.512 34.5289C380.936 33.7209 387.956 42.2619 388.49 51.7929C388.968 60.3229 384.546 66.7349 378.926 74.2219C373.773 81.0529 372.075 86.6849 372.81 93.0599L373.118 96.3139L363.336 96.8629ZM361.56 114.577C361.3 109.936 364.253 106.499 368.642 106.253C373.032 106.007 376.225 109.1 376.485 113.741C376.731 118.131 374.036 121.679 369.395 121.939C365.006 122.185 361.806 118.967 361.56 114.577Z" fill="#DBDBDB"/>
<path d="M82.862 72.38L71.576 67.262L70.011 70.718C69.551 71.734 68.5539 72.383 67.4389 72.432C66.823 72.459 66.2069 72.52 65.5939 72.613C64.4939 72.781 63.392 72.338 62.744 71.434L60.535 68.35L50.458 75.57L52.667 78.653C53.315 79.558 53.38 80.743 52.868 81.731C52.582 82.281 52.327 82.845 52.103 83.42C51.698 84.46 50.763 85.195 49.653 85.304L45.877 85.674L47.0939 98.006L50.8829 97.629C51.9939 97.518 53.0449 98.071 53.6479 99.011C53.8119 99.266 53.983 99.518 54.16 99.766C54.338 100.014 54.521 100.257 54.71 100.494C55.402 101.363 55.588 102.53 55.13 103.542L53.5539 107.023L64.84 112.141L66.412 108.678C66.873 107.662 67.872 107.014 68.987 106.966C69.601 106.94 70.214 106.88 70.825 106.788C71.924 106.622 73.024 107.064 73.672 107.968L75.882 111.053L85.959 103.833L83.7489 100.748C83.1019 99.844 83.0359 98.66 83.547 97.673C83.831 97.125 84.084 96.563 84.306 95.99C84.71 94.95 85.6439 94.213 86.7549 94.103L90.539 93.728L89.3219 81.396L85.5359 81.77C84.429 81.879 83.381 81.328 82.78 80.391C82.615 80.135 82.4429 79.881 82.2639 79.63C82.0859 79.382 81.9029 79.139 81.7139 78.902C81.0179 78.029 80.832 76.856 81.293 75.839L82.862 72.38ZM76.4599 83.789C79.7249 88.346 78.6779 94.681 74.1219 97.946C69.5649 101.211 63.2219 100.17 59.9569 95.613C56.6919 91.056 57.741 84.707 62.298 81.442C66.854 78.178 73.1949 79.233 76.4599 83.789Z" fill="#EBEBEB"/>
<path d="M592.764 235.979L585.244 240.318L586.574 242.619C586.965 243.296 586.928 244.128 586.501 244.783C586.265 245.145 586.048 245.52 585.851 245.907C585.498 246.602 584.796 247.049 584.017 247.049H581.359V255.733H584.017C584.796 255.733 585.498 256.18 585.851 256.875C586.048 257.262 586.265 257.637 586.501 257.999C586.928 258.654 586.966 259.486 586.574 260.163L585.244 262.464L592.764 266.803L594.095 264.491C594.485 263.813 595.229 263.44 596.01 263.48C596.222 263.491 596.435 263.496 596.649 263.496C596.863 263.496 597.076 263.491 597.288 263.48C598.066 263.44 598.806 263.81 599.195 264.484L600.534 266.802L608.053 262.463L606.722 260.155C606.331 259.478 606.37 258.645 606.798 257.991C607.033 257.631 607.25 257.257 607.446 256.872C607.8 256.178 608.501 255.732 609.28 255.732H611.938V247.048H609.28C608.501 247.048 607.8 246.602 607.446 245.908C607.25 245.523 607.033 245.149 606.798 244.789C606.37 244.134 606.332 243.302 606.722 242.624L608.053 240.316L600.534 235.977L599.202 238.286C598.812 238.961 598.071 239.333 597.292 239.293C597.079 239.282 596.865 239.277 596.648 239.277C596.434 239.277 596.221 239.282 596.009 239.293C595.228 239.333 594.484 238.96 594.093 238.283L592.764 235.979ZM596.65 244.28C600.577 244.28 603.758 247.461 603.758 251.388C603.758 255.315 600.577 258.503 596.65 258.503C592.723 258.503 589.535 255.315 589.535 251.388C589.535 247.461 592.722 244.28 596.65 244.28Z" fill="#EBEBEB"/>
<path d="M105.685 35.4291L98.7887 40.7021L100.404 42.8121C100.879 43.4331 100.949 44.2631 100.611 44.9671C100.423 45.3561 100.257 45.7561 100.112 46.1661C99.8517 46.9001 99.2127 47.4341 98.4397 47.5351L95.8047 47.8781L96.9257 56.4901L99.5607 56.1471C100.334 56.0461 101.088 56.3991 101.527 57.0421C101.772 57.4011 102.035 57.7451 102.316 58.0731C102.824 58.6671 102.968 59.4881 102.668 60.2091L101.647 62.6631L109.663 65.9951L110.684 63.5311C110.984 62.8091 111.673 62.3431 112.453 62.2811C112.665 62.2641 112.877 62.2421 113.089 62.2151C113.301 62.1871 113.512 62.1551 113.72 62.1161C114.486 61.9761 115.268 62.2481 115.741 62.8661L117.368 64.9921L124.265 59.7191L122.648 57.6021C122.173 56.9811 122.104 56.1501 122.444 55.4461C122.631 55.0581 122.797 54.6601 122.942 54.2521C123.203 53.5191 123.841 52.9861 124.613 52.8851L127.249 52.5421L126.128 43.9301L123.492 44.2731C122.72 44.3741 121.967 44.0221 121.527 43.3791C121.283 43.0221 121.02 42.6801 120.74 42.3531C120.231 41.7591 120.085 40.9381 120.385 40.2161L121.407 37.7561L113.39 34.4241L112.367 36.8851C112.068 37.6051 111.38 38.0691 110.603 38.1301C110.391 38.1471 110.177 38.1691 109.962 38.1971C109.75 38.2251 109.539 38.2571 109.33 38.2951C108.56 38.4361 107.775 38.1621 107.299 37.5401L105.685 35.4291ZM110.609 43.1591C114.503 42.6521 118.068 45.3961 118.575 49.2901C119.082 53.1841 116.339 56.7561 112.445 57.2631C108.551 57.7701 104.978 55.0201 104.471 51.1261C103.964 47.2321 106.715 43.6661 110.609 43.1591Z" fill="#EBEBEB"/>
<path d="M54.1993 261.049C54.5933 251.372 54.4353 241.677 53.8013 232.014C52.4933 212.083 49.2123 192.307 44.7063 172.86C42.1703 161.913 39.0463 151.152 35.7923 140.402C35.6943 140.077 35.1763 140.169 35.2663 140.507C45.3303 178.403 53.5873 217.511 53.0193 256.903C52.8603 267.928 51.5843 278.756 50.5373 289.711C50.5093 290.004 50.9913 290.121 51.0583 289.82C53.1343 280.446 53.8093 270.623 54.1993 261.049Z" fill="#EBEBEB"/>
<path d="M35.2646 140.508C35.2646 140.508 20.0186 179.206 23.4316 188.302C26.8456 197.398 33.8826 199.338 33.8826 199.338C33.8826 199.338 24.5546 212.656 31.0726 225.147C37.5916 237.638 52.0746 237.048 53.0366 251.211C53.0366 251.211 53.8437 191.991 35.2646 140.508Z" fill="#EBEBEB"/>
<path d="M51.3799 226.758C51.3989 226.693 51.3939 226.624 51.3639 226.555C49.2229 200.242 44.5549 174.011 36.5759 148.708C36.5529 148.633 36.4299 148.657 36.4499 148.735C39.4709 160.055 42.1589 171.436 44.4559 182.879C42.4759 180.84 39.8859 179.668 37.1779 178.821C37.1269 178.805 37.1019 178.878 37.1499 178.899C39.9699 180.118 42.6709 181.531 44.6639 183.92C45.1089 186.163 45.5449 188.407 45.9589 190.654C42.5519 186.846 37.8269 184.957 33.0989 183.161C33.0319 183.136 32.9969 183.238 33.0619 183.265C37.9859 185.27 42.8909 187.853 46.2269 192.096C47.3899 198.518 48.4079 204.963 49.2889 211.427C46.7979 208.825 43.7239 207.076 40.1979 206.217C40.0919 206.191 40.0329 206.348 40.1399 206.379C43.7629 207.422 46.8789 209.45 49.3599 212.285C49.3779 212.305 49.3969 212.315 49.4169 212.328C49.7219 214.602 50.0099 216.879 50.2799 219.159C48.3619 217.523 46.2419 216.278 43.9079 215.315C43.8459 215.29 43.8129 215.386 43.8729 215.412C46.2439 216.421 48.3769 217.876 50.2549 219.636C50.2819 219.661 50.3089 219.658 50.3359 219.668C50.5899 221.835 50.8429 224.003 51.0619 226.175C47.5669 221.963 43.2449 218.915 38.1309 216.942C38.0309 216.903 37.9799 217.056 38.0759 217.098C43.0479 219.26 47.4309 222.685 50.8199 226.904C50.9129 227.02 51.0339 227.039 51.1409 227.005C51.4709 230.335 51.7659 233.67 52.0099 237.012C52.0129 237.058 52.0879 237.062 52.0859 237.016C51.8949 233.595 51.6559 230.176 51.3799 226.758Z" fill="white"/>
<path d="M39.1305 174.974C36.4865 173.157 33.1265 172.381 29.9705 172.118C29.8945 172.112 29.8885 172.224 29.9625 172.234C33.2455 172.722 36.0035 173.91 39.0195 175.192C39.1505 175.249 39.2445 175.053 39.1305 174.974Z" fill="white"/>
<path d="M40.98 215.945C38.888 214.689 36.501 213.98 34.104 213.593C34.02 213.58 34.013 213.709 34.095 213.723C36.529 214.164 38.685 215.03 40.897 216.108C40.991 216.155 41.069 215.999 40.98 215.945Z" fill="white"/>
<path d="M94.28 188.933C87.922 193.403 81.82 198.558 76.634 204.358C71.106 210.54 67.074 217.558 64.258 225.346C58.489 241.301 55.327 258.585 55.039 275.542C54.877 285.048 55.723 294.48 57.757 303.771C57.831 304.109 58.336 304.013 58.285 303.672C55.799 287.325 55.89 270.644 58.561 254.328C61.182 238.319 65.295 220.902 75.471 207.892C81.012 200.808 87.921 195.234 94.751 189.474C95.108 189.171 94.649 188.673 94.28 188.933Z" fill="#EBEBEB"/>
<path d="M57.2812 264.015C57.2812 264.015 62.5173 255.197 70.1443 247.572C77.7713 239.947 84.1952 234.528 85.1862 229.485C86.1782 224.442 77.5462 220.728 77.5462 220.728C77.5462 220.728 88.1012 222.623 90.9892 218.193C93.8772 213.764 95.2713 188.108 95.2713 188.108C95.2713 188.108 76.0702 201.817 67.1232 221.034C58.1772 240.251 57.2812 264.015 57.2812 264.015Z" fill="#EBEBEB"/>
<path d="M88.6281 194.686C80.5491 202.621 72.4181 211.077 67.6601 221.502C66.0291 225.076 64.6411 228.783 63.4191 232.559C63.4161 232.565 63.4161 232.571 63.4131 232.576C63.1681 233.334 62.9191 234.091 62.6881 234.854C62.6651 234.892 62.6531 234.934 62.6491 234.979C60.2971 242.765 58.6341 250.816 57.1941 258.681C57.1851 258.732 57.2621 258.759 57.2721 258.706C58.0991 254.703 59.0121 250.661 60.0311 246.631C60.0671 246.632 60.1061 246.625 60.1461 246.608C61.7791 245.922 63.4221 245.492 65.1851 245.329C65.3001 245.319 65.2911 245.119 65.1741 245.125C63.4731 245.207 61.8071 245.505 60.1901 246.034C61.1201 242.4 62.1311 238.776 63.2681 235.205C66.9751 234.297 70.8441 233.807 74.6561 233.716C74.6951 233.715 74.7021 233.656 74.6611 233.654C70.8181 233.475 67.2061 233.806 63.4631 234.605C63.6611 233.992 63.8671 233.383 64.0721 232.772C66.5751 232.202 69.0891 231.722 71.6501 231.488C71.6961 231.484 71.6921 231.405 71.6461 231.406C69.1381 231.474 66.6661 231.737 64.2261 232.308C65.2711 229.217 66.4001 226.169 67.6521 223.2C68.6881 220.744 69.9201 218.412 71.2771 216.161C73.3301 215.696 75.3201 215.254 77.4241 215.065C77.4821 215.06 77.4761 214.967 77.4191 214.963C75.5091 214.839 73.5201 214.982 71.6721 215.531C72.6821 213.9 73.7431 212.302 74.8791 210.754C79.1851 209.8 83.5501 208.915 87.9551 209.742C88.0311 209.756 88.0591 209.628 87.9841 209.609C83.7911 208.506 79.6291 209.143 75.4571 209.968C75.9121 209.362 76.3781 208.764 76.8481 208.169C79.4911 207.352 82.1201 206.956 84.8931 206.905C84.9501 206.904 84.9591 206.822 84.9001 206.816C82.3691 206.574 79.8451 206.819 77.3991 207.482C80.9591 203.059 84.8911 198.905 88.7781 194.797C88.9601 194.609 88.8201 194.498 88.6281 194.686Z" fill="white"/>
<path d="M88.4144 212.174C87.1504 212.039 85.8654 211.898 84.5954 212.041C84.4414 212.058 84.4544 212.309 84.6094 212.313C85.8734 212.35 87.1374 212.256 88.4014 212.324C88.4984 212.33 88.5104 212.184 88.4144 212.174Z" fill="white"/>
<path d="M74.5931 237.062C72.5751 237.037 70.5601 237.58 68.6751 238.25C68.6281 238.267 68.6541 238.346 68.7031 238.334C70.6571 237.869 72.6341 237.68 74.6081 237.354C74.7701 237.328 74.7621 237.064 74.5931 237.062Z" fill="white"/>
<path d="M70.4504 228.464C69.6314 228.421 68.7454 228.565 67.9384 228.691C67.8554 228.704 67.8604 228.839 67.9464 228.841C68.7624 228.855 69.6604 228.877 70.4644 228.723C70.6064 228.695 70.6004 228.472 70.4504 228.464Z" fill="white"/>
<path d="M0.993472 216.159C7.17247 218.307 13.3015 221.069 18.8395 224.564C24.7425 228.289 29.6275 233.037 33.7065 238.688C42.0625 250.267 48.6165 263.524 52.7695 277.18C55.0975 284.836 56.5935 292.664 57.0945 300.653C57.1125 300.943 56.6815 300.983 56.6445 300.694C54.8775 286.89 50.9485 273.412 45.0155 260.824C39.1945 248.474 31.8405 235.33 20.5975 227.153C14.4755 222.701 7.59648 219.787 0.737476 216.704C0.378476 216.543 0.634472 216.035 0.993472 216.159Z" fill="#EBEBEB"/>
<path d="M48.289 268.37C48.289 268.37 42.013 262.444 34.079 258.036C26.144 253.628 19.693 250.727 17.725 246.875C15.757 243.023 21.884 238.022 21.884 238.022C21.884 238.022 13.78 241.995 10.419 239.078C7.058 236.161 0 215.721 0 215.721C0 215.721 18.708 222.377 30.389 235.861C42.071 249.346 48.289 268.37 48.289 268.37Z" fill="#EBEBEB"/>
<path d="M47.3144 264.154C37.9574 246.591 25.4724 230.703 8.36439 220.216C8.35639 220.211 8.34939 220.223 8.35639 220.227C12.8604 223.097 17.0104 226.407 20.8784 230.026C17.4154 229.93 13.8904 230.482 10.8204 232.149C10.7524 232.186 10.8014 232.278 10.8714 232.254C14.2934 231.096 17.5804 230.336 21.2204 230.505C21.2704 230.507 21.3024 230.481 21.3374 230.461C21.9444 231.037 22.5434 231.622 23.1364 232.212C21.3364 232.289 19.5154 232.544 17.7614 232.925C17.7144 232.935 17.7274 233.008 17.7754 232.999C19.6734 232.632 21.5264 232.504 23.4524 232.531C26.5874 235.681 29.5084 239.051 32.2764 242.55C31.0264 242.368 29.7164 242.474 28.5184 242.823C28.4294 242.849 28.4524 242.977 28.5454 242.965C29.9084 242.793 31.2044 242.815 32.5574 242.91C33.0694 243.562 33.5874 244.21 34.0894 244.87C30.2424 244.638 26.4734 245.008 22.7354 245.974C22.6804 245.988 22.6954 246.073 22.7524 246.062C26.6084 245.305 30.4964 245.063 34.4144 245.304C34.8914 245.937 35.3434 246.588 35.8114 247.228C33.5164 247.158 31.2904 247.445 29.0524 248.002C28.9674 248.023 28.9914 248.157 29.0784 248.137C31.3804 247.613 33.7214 247.48 36.0744 247.592C38.0874 250.365 40.0154 253.2 41.8684 256.069C40.8874 255.867 39.8574 255.977 38.9014 256.247C38.8504 256.262 38.8644 256.334 38.9174 256.328C40.0184 256.199 41.0464 256.341 42.1274 256.48C43.7934 259.074 45.4044 261.694 46.9474 264.329C47.0794 264.553 47.4384 264.387 47.3144 264.154Z" fill="white"/>
<path d="M32.7597 249.586C30.9307 249.429 29.0717 249.716 27.3247 250.251C27.2747 250.266 27.2867 250.342 27.3407 250.332C29.1397 250.001 30.9227 249.876 32.7457 249.778C32.8647 249.772 32.8877 249.598 32.7597 249.586Z" fill="white"/>
<path d="M16.4415 228.183C15.6145 228.089 14.7515 228.197 13.9345 228.329C13.8375 228.345 13.8675 228.488 13.9635 228.478C14.7875 228.39 15.6005 228.421 16.4255 228.396C16.5595 228.392 16.5815 228.199 16.4415 228.183Z" fill="white"/>
<path d="M72.4185 326.446H30.1895L36.2105 282.339L37.7495 271.03H64.8585L66.3965 282.339L72.4185 326.446Z" fill="#DBDBDB"/>
<path d="M66.3969 282.339H36.2109L37.7499 271.03H64.8589L66.3969 282.339Z" fill="#C7C7C7"/>
<path d="M68.735 267.107H33.873V276.685H68.735V267.107Z" fill="#DBDBDB"/>
<path d="M3.3457 326.446L79.3547 326.203L155.364 326.115L307.382 325.947L459.4 326.114L535.409 326.202L611.418 326.446L535.409 326.691L459.4 326.779L307.382 326.945L155.364 326.778L79.3547 326.689L3.3457 326.446Z" fill="#263238"/>
<path d="M309.381 400.98C467.744 400.98 596.123 386.913 596.123 369.56C596.123 352.207 467.744 338.14 309.381 338.14C151.017 338.14 22.6387 352.207 22.6387 369.56C22.6387 386.913 151.017 400.98 309.381 400.98Z" fill="#EBEBEB"/>
<path d="M242.63 364.353C240.299 365.142 173.485 365.377 170.931 363.776C169.959 363.174 169.358 353.445 168.964 341.669C168.879 339.126 168.806 336.5 168.748 333.832L163.33 298.196L207.995 297.91L212.211 333.554L212.04 341.394C212.04 341.394 237.661 352.746 240.273 354.803C242.873 356.859 244.962 363.564 242.63 364.353Z" fill="#EB9481"/>
<path d="M242.63 364.353C240.299 365.142 173.485 365.377 170.931 363.776C169.751 363.037 169.107 348.829 168.748 333.832L212.211 333.553L212.04 341.393C212.04 341.393 237.661 352.745 240.273 354.802C242.873 356.859 244.962 363.564 242.63 364.353Z" fill="white"/>
<path d="M242.631 364.353C240.3 365.142 173.486 365.377 170.932 363.776C169.96 363.174 169.359 353.445 168.965 341.669L212.041 341.393C212.041 341.393 237.662 352.745 240.274 354.802C242.874 356.859 244.963 363.564 242.631 364.353Z" fill="#A6A6A6"/>
<path d="M241.663 361.684C230.462 361.448 185.263 361.555 174.173 362.173C174.083 362.178 174.083 362.239 174.173 362.243C185.27 362.719 230.467 362.247 241.664 361.867C241.9 361.86 241.899 361.689 241.663 361.684Z" fill="#263238"/>
<path d="M235.969 352.413C233.313 352.314 230.721 353.585 229.278 355.172C227.892 356.697 226.709 358.838 226.796 361.161C226.799 361.227 226.922 361.229 226.931 361.16C227.555 356.775 231.528 352.911 235.969 352.554C236.06 352.546 236.06 352.417 235.969 352.413Z" fill="#263238"/>
<path d="M216.39 342.492C211.907 342.446 206.715 344.046 203.942 347.722C203.835 347.864 204.038 348.015 204.171 347.946C208.216 345.843 212.063 344.273 216.468 343.043C216.78 342.957 216.711 342.495 216.39 342.492Z" fill="#263238"/>
<path d="M219.855 343.829C215.372 343.782 210.18 345.383 207.407 349.059C207.3 349.202 207.504 349.352 207.636 349.283C211.681 347.18 215.528 345.61 219.933 344.381C220.244 344.294 220.176 343.832 219.855 343.829Z" fill="#263238"/>
<path d="M223.32 345.166C218.837 345.12 213.645 346.72 210.872 350.396C210.764 350.538 210.969 350.689 211.101 350.62C215.146 348.517 218.993 346.947 223.399 345.718C223.71 345.631 223.641 345.169 223.32 345.166Z" fill="#263238"/>
<path d="M226.786 346.503C222.303 346.456 217.112 348.057 214.339 351.733C214.231 351.875 214.435 352.026 214.568 351.957C218.613 349.854 222.46 348.284 226.865 347.055C227.176 346.967 227.107 346.506 226.786 346.503Z" fill="#263238"/>
<path d="M176.988 351.525C171.959 351.557 172 359.374 177.038 359.341C182.067 359.309 182.026 351.493 176.988 351.525Z" fill="#263238"/>
<path d="M221.192 330.513C218.916 328.639 216.064 330.488 214.672 332.447C212.417 335.619 210.876 340.06 210.639 343.925C210.634 344.02 210.706 344.058 210.779 344.053C210.876 344.374 211.256 344.642 211.586 344.412C214.77 342.193 218.449 340.216 220.857 337.086C222.263 335.257 223.344 332.285 221.192 330.513ZM215.725 340.06C214.186 341.189 212.6 342.236 211.103 343.422C211.896 341.185 212.588 338.926 213.606 336.771C214.092 335.743 214.61 334.695 215.233 333.741C216.202 332.257 220.589 328.495 221.052 333.37C221.307 336.059 217.56 338.713 215.725 340.06Z" fill="#263238"/>
<path d="M199.507 345.625C203.412 346.211 207.435 345.085 211.267 344.477C211.665 344.414 211.753 343.957 211.6 343.658C211.657 343.611 211.683 343.533 211.613 343.469C208.763 340.848 204.573 338.716 200.749 337.994C198.388 337.548 195.051 338.193 194.709 341.121C194.387 343.891 197.227 345.283 199.507 345.625ZM196.791 343.083C193.744 339.248 199.514 338.918 201.241 339.316C202.351 339.572 203.451 339.967 204.514 340.371C206.742 341.219 208.807 342.367 210.929 343.429C209.028 343.612 207.159 343.957 205.267 344.21C203.012 344.513 198.471 345.198 196.791 343.083Z" fill="#263238"/>
<path d="M97.6973 133.469C97.6973 133.469 149.567 221.709 150.956 227.904C153.09 237.424 164.403 331.439 164.403 331.439L218.374 330.467C218.374 330.467 209.072 247.576 200.262 220.267C193.916 200.596 148.14 135.358 148.14 135.358L97.6973 133.469Z" fill="#37474F"/>
<path d="M213.465 322.192C205.714 322.136 178.248 321.826 167.931 322.789C167.852 322.796 167.855 322.927 167.933 322.938C171.484 323.448 205.72 322.654 213.468 322.405C213.614 322.401 213.611 322.193 213.465 322.192Z" fill="#263238"/>
<path d="M106.551 141.566C109.95 146.897 113.536 152.117 117.011 157.402C120.488 162.689 123.952 167.984 127.371 173.308C134.204 183.949 140.859 194.701 147.392 205.52C150.456 210.594 153.374 215.715 155.478 221.25C157.562 226.732 158.981 232.436 160.031 238.186C161.089 243.979 161.785 249.827 162.443 255.673C163.143 261.898 163.833 268.124 164.528 274.35C165.95 287.089 167.372 299.828 168.794 312.566C168.968 314.129 169.139 315.691 169.296 317.256C169.319 317.485 168.909 317.531 168.88 317.301C167.292 304.643 165.973 291.947 164.53 279.272C163.812 272.962 163.094 266.652 162.376 260.342C161.708 254.475 161.073 248.601 160.163 242.764C159.268 237.031 158.107 231.321 156.362 225.772C154.539 219.974 151.957 214.531 148.9 209.259C142.645 198.472 136.027 187.869 129.406 177.294C122.728 166.628 115.994 155.991 109.01 145.512C108.148 144.218 107.278 142.932 106.384 141.658C106.314 141.558 106.485 141.463 106.551 141.566Z" fill="#263238"/>
<path d="M114.702 369.558C112.241 369.407 48.7059 343.664 46.9349 341.225C46.8759 341.143 46.8409 340.983 46.8379 340.755C46.8499 338.57 51.2499 330.923 54.9269 320.889C55.1569 320.247 56.7969 317.27 59.0729 313.254C65.3289 302.225 76.3989 283.332 76.3989 283.332L117.928 299.832L98.0499 329.588L94.9559 336.789C94.9559 336.789 114.447 356.932 116.093 359.814C117.729 362.697 117.154 369.697 114.702 369.558Z" fill="#EB9481"/>
<path d="M114.702 369.558C112.241 369.407 48.7059 343.664 46.9349 341.225C46.8759 341.143 46.8409 340.983 46.8379 340.755C46.8499 338.57 51.2499 330.923 54.9269 320.889C55.1569 320.247 56.7969 317.27 59.0729 313.254L98.0509 329.588L94.9569 336.789C94.9569 336.789 114.448 356.932 116.094 359.814C117.729 362.697 117.154 369.697 114.702 369.558Z" fill="white"/>
<path d="M114.699 369.553C112.242 369.41 48.7045 343.664 46.9375 341.222C46.2625 340.299 49.1035 331.622 54.9235 320.891L94.9575 336.795C94.9575 336.795 114.449 356.929 116.099 359.816C117.735 362.697 117.156 369.696 114.699 369.553Z" fill="#A6A6A6"/>
<path d="M114.802 366.716C104.508 362.296 62.5694 345.439 52.0574 341.851C51.9724 341.822 51.9494 341.879 52.0314 341.916C62.1394 346.52 104.213 363.037 114.734 366.886C114.956 366.968 115.019 366.809 114.802 366.716Z" fill="#263238"/>
<path d="M113.002 355.986C110.577 354.898 107.698 355.103 105.765 356.033C103.908 356.926 102.008 358.468 101.218 360.653C101.195 360.716 101.309 360.763 101.344 360.703C103.568 356.872 108.7 354.781 112.951 356.116C113.036 356.143 113.086 356.023 113.002 355.986Z" fill="#263238"/>
<path d="M98.5748 339.444C94.4368 337.719 89.0237 337.255 85.0737 339.622C84.9207 339.714 85.0538 339.93 85.2028 339.916C89.7418 339.484 93.8958 339.472 98.4408 339.985C98.7618 340.021 98.8708 339.568 98.5748 339.444Z" fill="#263238"/>
<path d="M101.286 341.983C97.1477 340.258 91.7347 339.794 87.7847 342.161C87.6317 342.253 87.7647 342.469 87.9137 342.454C92.4517 342.022 96.6067 342.01 101.152 342.523C101.473 342.56 101.582 342.107 101.286 341.983Z" fill="#263238"/>
<path d="M103.997 344.523C99.8586 342.798 94.4456 342.334 90.4956 344.701C90.3426 344.793 90.4756 345.009 90.6246 344.995C95.1626 344.563 99.3176 344.55 103.863 345.064C104.183 345.1 104.293 344.646 103.997 344.523Z" fill="#263238"/>
<path d="M106.707 347.062C102.569 345.337 97.1558 344.873 93.2068 347.24C93.0538 347.332 93.1858 347.548 93.3358 347.534C97.8748 347.102 102.029 347.09 106.574 347.603C106.894 347.639 107.004 347.186 106.707 347.062Z" fill="#263238"/>
<path d="M58.662 333.037C53.988 331.18 51.094 338.441 55.776 340.301C60.451 342.158 63.345 334.897 58.662 333.037Z" fill="#263238"/>
<path d="M107.521 330.141C106.114 327.551 102.777 328.194 100.752 329.488C97.4717 331.582 94.3767 335.121 92.7077 338.614C92.6667 338.7 92.7197 338.762 92.7897 338.785C92.7587 339.119 93.0107 339.51 93.4037 339.421C97.1877 338.558 101.34 338.106 104.746 336.108C106.734 334.942 108.851 332.592 107.521 330.141ZM98.8717 336.941C97.0207 337.41 95.1587 337.786 93.3257 338.324C94.8997 336.548 96.3887 334.713 98.1407 333.097C98.9767 332.326 99.8507 331.55 100.786 330.899C102.241 329.886 107.719 328.045 106.319 332.738C105.547 335.326 101.078 336.381 98.8717 336.941Z" fill="#263238"/>
<path d="M81.7493 336.015C85.1493 338.023 89.3003 338.489 93.0813 339.363C93.4733 339.454 93.7263 339.064 93.6973 338.729C93.7673 338.707 93.8213 338.644 93.7803 338.558C92.1213 335.059 89.0373 331.512 85.7643 329.407C83.7423 328.108 80.4073 327.454 78.9933 330.04C77.6543 332.487 79.7643 334.843 81.7493 336.015ZM80.1863 332.64C78.8013 327.942 84.2733 329.801 85.7243 330.818C86.6573 331.471 87.5283 332.25 88.3623 333.024C90.1093 334.645 91.5933 336.485 93.1623 338.265C91.3313 337.722 89.4703 337.34 87.6203 336.865C85.4163 336.299 80.9493 335.23 80.1863 332.64Z" fill="#263238"/>
<path d="M101.255 327.923L54.7695 309.152C54.7695 309.152 112.406 224.407 112.833 218.1C113.21 212.512 87.8945 163.891 86.8965 149.721C85.8195 134.429 93.1835 122.593 101.275 115.248L149.23 135.633C149.23 135.633 144.169 143.73 136.196 148.237C136.196 148.237 160.788 204.438 159.393 221.718C157.991 239.092 101.255 327.923 101.255 327.923Z" fill="#37474F"/>
<path d="M103.32 319.083C96.5979 316.193 98.5679 316.927 91.8129 314.112C88.5079 312.734 66.7789 303.702 63.4709 302.958C63.3979 302.942 63.3509 303.057 63.4149 303.096C66.3069 304.867 88.1889 313.519 91.5199 314.833C98.3269 317.518 96.4019 316.673 103.239 319.281C103.368 319.329 103.446 319.137 103.32 319.083Z" fill="#263238"/>
<path d="M144.092 147.209C139.096 148.283 134.195 150.048 129.487 151.945C129.302 152.02 129.389 152.294 129.587 152.236C134.489 150.805 139.475 149.468 144.287 147.777C144.665 147.644 144.475 147.126 144.092 147.209Z" fill="#263238"/>
<path d="M138.402 145.235C137.929 146.059 137.528 146.927 137.17 147.804C136.893 148.485 136.537 149.215 136.541 149.958C136.542 150.102 136.736 150.137 136.825 150.049C137.382 149.501 137.678 148.701 138.03 148.018C138.438 147.227 138.864 146.443 139.249 145.64C139.504 145.108 138.693 144.727 138.402 145.235Z" fill="#263238"/>
<path d="M138.985 140.727C139.279 139.989 139.575 139.252 139.885 138.521C140.206 137.764 140.579 137.018 140.841 136.239C140.882 136.116 141.077 136.199 141.028 136.323C140.735 137.062 140.544 137.85 140.309 138.61C140.073 139.373 139.824 140.131 139.572 140.889C139.102 142.3 138.527 143.7 137.921 145.062C138.705 145.052 139.512 145.017 140.225 144.662C140.999 144.276 141.468 143.454 141.849 142.711C142.272 141.886 142.661 141.042 143.096 140.223C143.577 139.317 144.109 138.421 144.426 137.44C144.466 137.316 144.657 137.399 144.613 137.523C143.891 139.548 143.181 141.57 142.058 143.436C141.617 144.169 141.259 144.932 140.446 145.219C139.573 145.527 138.618 145.467 137.709 145.401C137.597 145.432 137.452 145.36 137.491 145.224C137.92 143.715 138.403 142.185 138.985 140.727Z" fill="#263238"/>
<path d="M136.945 150.067C138.649 153.68 140.148 157.28 141.741 160.88C143.298 164.398 144.756 167.957 146.171 171.533C149.031 178.76 151.593 186.118 153.84 193.559C154.952 197.241 155.976 200.949 156.902 204.682C157.83 208.425 158.737 212.206 159.122 216.05C159.508 219.906 159.233 223.719 158.159 227.448C157.069 231.231 155.633 234.535 153.927 238.074C152.885 240.237 152.526 239.945 153.031 238.853C154.462 235.756 158.21 226.368 157.938 218.475C157.807 214.667 157.025 210.917 156.165 207.217C155.287 203.44 154.296 199.69 153.215 195.966C151.085 188.629 148.555 181.437 145.952 174.257C144.494 170.234 142.929 166.252 141.449 162.238C139.958 158.194 138.421 154.555 136.767 150.139C136.723 150.023 136.892 149.955 136.945 150.067Z" fill="#263238"/>
<path d="M101.65 138.133C102.483 137.825 103.638 138.335 104.487 138.477C105.576 138.66 106.677 138.771 107.781 138.809C108.869 138.846 109.966 138.802 111.049 138.696C112.132 138.591 113.237 138.457 114.178 137.869C115.764 136.879 117.092 135.135 118.167 133.633C119.348 131.982 120.574 130.084 121.278 128.172C121.321 128.055 121.49 128.135 121.453 128.25C121.103 129.365 120.843 130.489 120.398 131.578C119.979 132.603 119.438 133.583 118.864 134.527C117.792 136.291 116.562 138.174 114.724 139.223C112.795 140.324 110.31 140.258 108.159 140.134C106.915 140.062 105.676 139.898 104.456 139.641C103.576 139.455 102.095 139.314 101.534 138.541C101.433 138.405 101.486 138.194 101.65 138.133Z" fill="#263238"/>
<path d="M68.0398 300.293C75.6808 288.73 83.1798 277.072 90.5438 265.33C97.9268 253.557 105.174 241.698 112.32 229.78C114.029 226.93 116.004 224.081 117.105 220.924C118.302 217.492 117.622 214.167 116.538 210.809C114.55 204.65 112.074 198.657 109.401 192.766C106.72 186.858 103.834 181.047 100.994 175.215C98.1778 169.43 95.1808 163.626 93.0448 157.547C91.0048 151.74 90.2278 145.718 91.7938 139.695C93.3478 133.719 96.7088 128.353 100.219 123.345C101.145 122.024 102.088 120.715 103.017 119.396C103.088 119.296 103.24 119.417 103.166 119.517C99.2978 124.738 95.5258 130.264 93.2578 136.394C92.1368 139.423 91.4108 142.612 91.3398 145.848C91.2668 149.131 91.8838 152.388 92.8508 155.515C94.7318 161.595 97.7008 167.352 100.467 173.064C103.295 178.903 106.199 184.707 108.926 190.595C111.67 196.519 114.236 202.533 116.345 208.715C117.284 211.467 118.331 214.347 118.269 217.296C118.201 220.526 116.659 223.434 115.063 226.157C108.111 238.013 100.894 249.72 93.5878 261.36C86.2538 273.045 78.7748 284.638 71.1798 296.154C70.2218 297.606 69.2618 299.057 68.3008 300.507C68.1818 300.684 67.9218 300.472 68.0398 300.293Z" fill="#263238"/>
<path d="M151.892 81.7352C156.22 91.2362 178.085 104.328 188.326 105.735C195.694 106.747 218.065 107.095 225.737 105.924C234.722 104.552 227.857 80.2942 222.545 80.9152C207.946 82.6222 195.549 84.5222 191.652 84.5222C186.894 84.5222 161.14 76.2562 158.037 75.0932C150.442 72.2462 149.437 76.3462 151.892 81.7352Z" fill="#EB9481"/>
<path d="M152.027 84.2501C157.506 92.3591 175.723 105.615 175.723 105.615L178.251 100.014L186.617 81.4991C186.617 81.4991 169.888 76.2201 158.879 73.8681C157.392 73.5491 156.081 73.3581 154.94 73.3071C147.912 72.9281 147.302 77.2741 152.027 84.2501Z" fill="#0C5E62"/>
<path d="M152.027 84.2501C157.506 92.3591 175.723 105.615 175.723 105.615L178.251 100.014C171.458 92.1291 160.972 80.1781 154.94 73.3071C147.912 72.9281 147.302 77.2741 152.027 84.2501Z" fill="#263238"/>
<path d="M172.439 101.872C173.827 98.469 180.012 84.739 181.547 81.858C181.654 81.658 181.805 81.674 181.72 81.895C177.805 92.186 174.105 98.647 172.574 101.918C172.536 102 172.404 101.958 172.439 101.872Z" fill="#263238"/>
<path d="M219.865 81.1802C228.751 80.0142 239.742 78.0211 249.049 81.9721C250.875 82.7471 251.536 84.1082 251.536 84.1082C255.739 85.8052 256.2 88.2992 256.2 88.2992C259.631 91.0782 259.752 93.6941 259.752 93.6941C259.752 93.6941 264.665 95.7402 263.921 98.9152C263.098 102.478 256.359 98.9072 251.453 99.2102C240.211 99.9032 224.426 104.033 221.204 104.555L219.865 81.1802Z" fill="#EB9481"/>
<path d="M239.161 91.6572C242.473 91.5192 245.723 91.2972 249.037 91.6082C252.673 91.9492 256.114 92.8882 259.642 93.7562C259.752 93.7832 259.801 93.6332 259.697 93.5892C253.56 91.0072 245.692 90.3292 239.153 91.5072C238.994 91.5352 238.994 91.6642 239.161 91.6572Z" fill="#263238"/>
<path d="M237.757 84.9332C240.988 84.9772 246.665 85.0922 256.166 88.4022C256.197 88.4132 256.225 88.3642 256.193 88.3472C250.31 85.3782 244.277 84.3222 237.759 84.7792C237.556 84.7932 237.543 84.9302 237.757 84.9332Z" fill="#263238"/>
<path d="M237.071 81.3052C242.561 81.5902 245.987 82.4642 251.509 84.1242C251.54 84.1332 251.565 84.0822 251.532 84.0682C245.454 81.5232 242.96 81.2882 237.054 81.1162C236.852 81.1092 236.857 81.2942 237.071 81.3052Z" fill="#263238"/>
<path d="M237.961 100.903C236.533 101.573 236.875 102.327 239.607 102.96C242.37 103.606 253.69 103.779 253.291 107.733C252.897 111.702 236.881 111.194 232.412 109.792C227.939 108.4 221.205 104.556 221.205 104.556C224.341 104.026 231.824 102.019 237.961 100.903Z" fill="#EB9481"/>
<path d="M163.783 96.8811C163.714 98.5891 163.546 100.328 163.306 102.052C163.329 101.99 163.356 101.929 163.379 101.867C163.712 100.967 164.036 100.044 164.44 99.1741C164.461 99.1281 164.542 99.1411 164.532 99.1971C164.356 100.141 164.025 101.089 163.665 101.98C163.493 102.405 163.318 102.83 163.134 103.251C163.01 104.019 162.872 104.782 162.717 105.533C162.422 106.963 161.071 113.046 160.764 114.074C160.699 114.29 160.442 114.241 160.458 113.999C160.532 112.879 161.665 106.544 161.894 105.11C162.334 102.356 162.939 99.5461 163.676 96.8551C163.693 96.7911 163.785 96.8211 163.783 96.8811Z" fill="#263238"/>
<path d="M153.358 142.341C150.691 143.716 147.251 145.846 131.752 142.795C130.783 142.598 129.809 142.36 128.833 142.07C114.298 137.704 96.8658 120.612 95.8828 119.407C95.8828 119.407 118.966 81.976 148.498 70.21C152.148 68.756 158.191 71.56 161.536 75.05C162.731 76.297 165.323 85.481 164.328 92.924C163.323 100.356 156.044 140.979 153.358 142.341Z" fill="#0C5E62"/>
<path d="M151.297 92.583C151.382 93.387 151.318 94.17 151.22 94.948C151.103 95.724 150.95 96.495 150.648 97.245C150.562 96.441 150.626 95.658 150.725 94.88C150.843 94.104 150.996 93.333 151.297 92.583Z" fill="white"/>
<path d="M141.228 118.073C141.313 118.877 141.249 119.66 141.151 120.439C141.034 121.215 140.881 121.986 140.579 122.736C140.493 121.932 140.557 121.149 140.656 120.37C140.775 119.594 140.927 118.823 141.228 118.073Z" fill="white"/>
<path d="M124.115 98.8091C124.2 99.6131 124.136 100.396 124.038 101.174C123.921 101.95 123.768 102.721 123.466 103.471C123.38 102.667 123.444 101.884 123.543 101.105C123.662 100.33 123.815 99.5591 124.115 98.8091Z" fill="white"/>
<path d="M157.89 116.78C157.975 117.584 157.911 118.367 157.813 119.145C157.696 119.921 157.543 120.692 157.241 121.442C157.155 120.638 157.219 119.855 157.318 119.076C157.436 118.301 157.589 117.53 157.89 116.78Z" fill="white"/>
<path d="M135.916 95.502C136.72 95.417 137.503 95.481 138.282 95.579C139.058 95.696 139.829 95.849 140.579 96.151C139.775 96.237 138.992 96.173 138.213 96.074C137.437 95.956 136.667 95.803 135.916 95.502Z" fill="white"/>
<path d="M116.496 113.919C117.3 113.834 118.083 113.898 118.861 113.996C119.637 114.113 120.408 114.266 121.158 114.568C120.354 114.654 119.571 114.59 118.793 114.491C118.016 114.373 117.246 114.22 116.496 113.919Z" fill="white"/>
<path d="M139.342 133.85C140.146 133.765 140.929 133.829 141.707 133.927C142.483 134.044 143.254 134.197 144.004 134.499C143.2 134.585 142.417 134.521 141.639 134.422C140.863 134.304 140.092 134.151 139.342 133.85Z" fill="white"/>
<path d="M110.508 126.61C111.312 126.525 112.095 126.589 112.874 126.687C113.65 126.804 114.421 126.957 115.171 127.259C114.367 127.345 113.584 127.281 112.805 127.182C112.029 127.063 111.258 126.91 110.508 126.61Z" fill="white"/>
<path d="M151.148 74.668C151.952 74.583 152.735 74.647 153.514 74.745C154.29 74.862 155.06 75.015 155.81 75.317C155.006 75.403 154.223 75.339 153.445 75.24C152.669 75.121 151.898 74.968 151.148 74.668Z" fill="white"/>
<path d="M145.505 81.0471C144.996 81.6751 144.398 82.1841 143.778 82.6651C143.147 83.1311 142.494 83.5681 141.75 83.8841C142.258 83.2551 142.857 82.7461 143.477 82.2661C144.108 81.8011 144.762 81.3641 145.505 81.0471Z" fill="white"/>
<path d="M114.708 99.1731C114.199 99.8011 113.601 100.31 112.981 100.791C112.35 101.257 111.697 101.694 110.953 102.011C111.461 101.382 112.06 100.873 112.68 100.393C113.312 99.9271 113.965 99.4911 114.708 99.1731Z" fill="white"/>
<path d="M153.155 107.36C152.646 107.988 152.048 108.497 151.428 108.978C150.797 109.444 150.144 109.881 149.4 110.197C149.908 109.568 150.507 109.059 151.127 108.579C151.759 108.115 152.412 107.678 153.155 107.36Z" fill="white"/>
<path d="M128.257 123.038C127.748 123.666 127.15 124.175 126.53 124.656C125.899 125.122 125.246 125.559 124.502 125.875C125.01 125.246 125.609 124.737 126.229 124.257C126.86 123.793 127.513 123.356 128.257 123.038Z" fill="white"/>
<path d="M162.695 85.9351C162.186 86.5631 161.588 87.0721 160.968 87.5531C160.337 88.0191 159.684 88.456 158.939 88.772C159.447 88.143 160.046 87.6341 160.666 87.1541C161.299 86.6891 161.952 86.2521 162.695 85.9351Z" fill="white"/>
<path d="M162.175 104.108C161.547 103.599 161.038 103.001 160.557 102.381C160.091 101.75 159.654 101.097 159.338 100.353C159.967 100.861 160.476 101.46 160.956 102.08C161.42 102.712 161.857 103.365 162.175 104.108Z" fill="white"/>
<path d="M106.681 116.623C106.053 116.114 105.544 115.516 105.063 114.896C104.597 114.265 104.16 113.612 103.844 112.868C104.473 113.376 104.982 113.975 105.462 114.595C105.927 115.226 106.364 115.879 106.681 116.623Z" fill="white"/>
<path d="M155.43 131.521C154.802 131.012 154.293 130.414 153.812 129.794C153.346 129.163 152.909 128.51 152.592 127.766C153.221 128.274 153.73 128.873 154.21 129.493C154.676 130.124 155.112 130.778 155.43 131.521Z" fill="white"/>
<path d="M130.999 89.069C130.371 88.56 129.862 87.962 129.381 87.342C128.915 86.711 128.478 86.058 128.162 85.314C128.791 85.822 129.3 86.421 129.78 87.041C130.245 87.672 130.682 88.325 130.999 89.069Z" fill="white"/>
<path d="M131.431 139.998C130.803 139.489 130.294 138.891 129.813 138.271C129.347 137.64 128.91 136.987 128.594 136.243C129.223 136.751 129.732 137.35 130.212 137.97C130.676 138.601 131.113 139.254 131.431 139.998Z" fill="white"/>
<path d="M135.583 109.955C134.955 109.446 134.446 108.848 133.965 108.228C133.499 107.597 133.062 106.944 132.746 106.2C133.375 106.708 133.884 107.307 134.364 107.927C134.829 108.558 135.266 109.211 135.583 109.955Z" fill="white"/>
<path d="M156.106 85.014C152.343 84.314 148.796 76.525 148.35 71.285C148.321 70.926 150.112 68.073 152.123 64.503C153.335 62.332 154.634 59.886 155.658 57.569C155.866 57.092 157.099 58.682 157.099 58.682L159.778 60.731L168.633 67.521C168.633 67.521 165.058 71.748 163.298 75.799C163.155 76.139 163.049 76.468 162.978 76.794C162.964 76.84 162.953 76.898 162.93 76.961C162.425 78.898 159.743 85.688 156.106 85.014Z" fill="#EB9481"/>
<path d="M162.977 76.795C162.963 76.841 162.952 76.899 162.929 76.962C162.445 76.826 161.938 76.633 161.4 76.381C151.709 71.839 155.984 58.855 155.984 58.855L159.778 60.732L168.633 67.522C168.633 67.522 165.058 71.749 163.298 75.8C163.154 76.14 163.049 76.469 162.977 76.795Z" fill="#263238"/>
<path d="M178.799 39.8472C178.799 39.8472 183.226 42.6592 183.255 47.6572C183.284 52.6562 181.293 57.5462 180.831 57.7212C180.369 57.8962 178.799 39.8472 178.799 39.8472Z" fill="#263238"/>
<path d="M156.823 42.4412C154.161 47.6962 154.295 64.2422 157.62 68.5062C162.439 74.6872 171.723 76.8172 177.326 70.7062C182.758 64.7822 182.201 43.2222 178.358 39.2042C172.698 33.2862 160.756 34.6792 156.823 42.4412Z" fill="#EB9481"/>
<path d="M170.941 55.6982C170.931 55.6552 170.854 55.7531 170.857 55.8001C170.919 56.9271 170.8 58.2282 169.788 58.6262C169.757 58.6382 169.761 58.6951 169.799 58.6891C171.039 58.4841 171.18 56.7552 170.941 55.6982Z" fill="#263238"/>
<path d="M169.906 54.5431C168.089 54.4471 168.032 58.0881 169.715 58.1771C171.372 58.2641 171.429 54.6231 169.906 54.5431Z" fill="#263238"/>
<path d="M177.112 55.6562C177.121 55.6132 177.199 55.7112 177.197 55.7572C177.143 56.8842 177.272 58.1842 178.286 58.5752C178.318 58.5872 178.313 58.6442 178.276 58.6382C177.034 58.4422 176.88 56.7152 177.112 55.6562Z" fill="#263238"/>
<path d="M178.139 54.4941C179.955 54.3851 180.039 58.0251 178.357 58.1261C176.701 58.2261 176.616 54.5851 178.139 54.4941Z" fill="#263238"/>
<path d="M168.767 51.7722C169.265 51.6552 169.705 51.4642 170.185 51.2982C170.727 51.1102 171.178 51.0162 171.539 50.5392C171.732 50.2832 171.661 49.8172 171.43 49.6052C170.891 49.1132 170.171 49.1782 169.509 49.3782C168.791 49.5952 168.293 49.9452 167.874 50.5652C167.466 51.1662 168.11 51.9262 168.767 51.7722Z" fill="#263238"/>
<path d="M179.399 53.3861C178.896 53.2961 178.446 53.1291 177.958 52.9881C177.407 52.8291 176.951 52.7591 176.566 52.3011C176.359 52.0551 176.406 51.5861 176.625 51.3631C177.136 50.8431 177.86 50.8701 178.531 51.0341C179.26 51.2121 179.776 51.5361 180.227 52.1331C180.665 52.7111 180.063 53.5051 179.399 53.3861Z" fill="#263238"/>
<path d="M168.375 66.3831C168.641 66.6511 168.905 67.0191 169.313 67.0601C169.705 67.0991 170.168 66.9291 170.53 66.7951C170.566 66.7821 170.601 66.8201 170.578 66.8541C170.278 67.2821 169.658 67.5431 169.137 67.4441C168.628 67.3471 168.383 66.9021 168.266 66.4331C168.25 66.3671 168.336 66.3441 168.375 66.3831Z" fill="#263238"/>
<path d="M174.923 61.5621C174.923 61.5621 174.971 63.2501 174.886 64.0341C174.878 64.1071 172.666 63.6741 170.282 64.1991C169.925 64.2781 169.96 63.9871 170.372 63.7971C171.197 63.4161 172.245 63.0591 174.285 63.2781C174.364 63.0671 174.163 60.6811 174.288 60.6851C174.721 60.6951 175.534 61.0791 176.025 61.2831C176.027 57.7641 175.465 54.2741 175.52 50.7701C175.524 50.6451 175.706 50.6271 175.73 50.7421C176.578 54.3591 176.664 58.4081 176.756 62.0421C176.773 62.4951 175.223 61.7301 174.923 61.5621Z" fill="#263238"/>
<path d="M172.672 63.4342C172.672 63.4342 171.886 65.4122 170.572 65.9432C169.06 66.5552 168.542 65.1862 170.085 63.9772C170.894 63.3432 172.672 63.4342 172.672 63.4342Z" fill="#263238"/>
<path d="M171.098 65.6351C170.928 65.7651 170.758 65.8751 170.568 65.9451C169.178 66.5051 168.628 65.3951 169.748 64.2751C170.509 64.3351 171.338 64.6151 171.098 65.6351Z" fill="#FF99BA"/>
<path d="M156.058 56.5971C157.886 57.1581 159.99 51.6591 160.585 49.5451C161.109 47.6821 161.714 41.7711 161.803 41.3681C161.892 40.9651 169.775 46.5981 174.384 45.2511C178.993 43.9041 182.073 39.7681 182.137 37.8371C182.2 35.9071 176.478 31.0061 171.526 30.7551C166.574 30.5041 159.871 36.7981 159.871 36.7981C159.871 36.7981 162.148 34.0791 162.071 33.8561C161.994 33.6331 158.794 34.9111 158.206 37.1901C158.206 37.1901 158.839 34.3291 158.597 34.2761C158.355 34.2231 155.869 36.6731 156.43 38.5301C156.43 38.5301 153.554 41.0211 153.288 43.7521C153.021 46.4841 153.91 55.9381 156.058 56.5971Z" fill="#263238"/>
<path d="M177.66 44.2892C176.259 44.9342 174.855 45.6432 173.306 45.8472C171.632 46.0682 169.895 45.6482 168.337 45.0502C166.743 44.4402 165.295 43.5542 163.979 42.4712C162.826 41.5222 161.804 40.3772 160.573 39.5322C160.265 39.3212 159.908 39.7642 160.098 40.0482C161.967 42.8522 165.274 45.1932 168.461 46.2042C171.814 47.2672 174.966 46.5192 177.678 44.3262C177.694 44.3122 177.683 44.2782 177.66 44.2892Z" fill="#263238"/>
<path d="M157.971 56.1072C157.971 56.1072 155.133 50.3452 152.573 51.2792C150.013 52.2132 151.589 60.1752 154.201 61.6332C156.814 63.0912 158.21 60.6992 158.21 60.6992L157.971 56.1072Z" fill="#EB9481"/>
<path d="M153.082 53.5511C153.038 53.5401 153.02 53.6011 153.056 53.6231C154.878 54.7091 155.624 56.6681 156.053 58.6471C155.586 57.8391 154.859 57.3241 153.79 57.8641C153.734 57.8921 153.77 57.9791 153.827 57.9761C154.649 57.9281 155.202 58.1541 155.642 58.8741C155.953 59.3841 156.126 59.9951 156.318 60.5581C156.382 60.7461 156.71 60.7011 156.675 60.4911C156.672 60.4751 156.669 60.4591 156.666 60.4431C157.096 57.9721 155.704 54.2091 153.082 53.5511Z" fill="#263238"/>
<path d="M139.218 81.8242C137.263 93.1522 149.494 131.324 157.369 138.454C169.08 149.057 190.733 156.029 198.579 158.297C201.998 159.286 211.459 135.223 208 133.638C200.59 130.244 177.57 123.064 175.403 121.22C173.236 119.376 160.008 100.344 154.127 89.3682C146.238 74.6412 140.207 76.0942 139.218 81.8242Z" fill="#EB9481"/>
<path d="M202.175 131.521C202.175 131.521 212.386 134.123 218.983 136.139C222.664 137.263 228.802 139.754 231.128 141.817C234.607 144.903 247.188 160.03 243.586 163.16C240.325 165.993 231.167 151.624 231.167 151.624C231.167 151.624 241.69 165.306 237.137 167.995C232.584 170.684 224.395 153.073 224.395 153.073C224.395 153.073 234.892 167.373 229.758 169.404C225.878 170.938 217.563 155.406 217.563 155.406C217.563 155.406 226.5 167.76 222.578 169.51C218.244 171.444 209.669 157.588 209.669 157.588C198.951 160.357 192.715 157.292 188.538 154.583C187.527 153.925 202.175 131.521 202.175 131.521Z" fill="#EB9481"/>
<path d="M227.83 146.658C229.124 148.22 230.445 149.793 231.596 151.465C232.747 153.137 233.841 154.851 234.831 156.623C237.259 160.969 238.101 164.07 238.028 163.884C236.306 159.488 232.278 153.438 231.127 151.765C229.978 150.096 228.914 148.37 227.766 146.699C227.736 146.657 227.799 146.621 227.83 146.658Z" fill="#263238"/>
<path d="M221.717 150.704C223.935 152.462 228.588 159.009 230.383 163.395C230.458 163.579 230.359 163.564 230.25 163.397C228.844 161.23 223.167 152.827 221.665 150.738C221.642 150.705 221.687 150.68 221.717 150.704Z" fill="#263238"/>
<path d="M215.845 153.234C218.413 155.776 220.569 159.246 222.265 163.257C222.342 163.438 222.198 163.41 222.092 163.239C220.021 159.867 218.419 157.207 215.739 153.323C215.697 153.262 215.785 153.175 215.845 153.234Z" fill="#263238"/>
<path d="M150.349 82.6571C141.218 69.7431 135.762 74.5301 137.593 88.5471C139.305 101.656 143.9 117.273 143.9 117.273L166.941 106.113C166.941 106.113 156.192 90.9221 150.349 82.6571Z" fill="#0C5E62"/>
<path d="M155.93 87.7351C156.256 88.4751 156.435 89.2401 156.578 90.0111C156.703 90.7861 156.793 91.5661 156.734 92.3731C156.407 91.6331 156.228 90.8681 156.086 90.0971C155.962 89.3211 155.873 88.5411 155.93 87.7351Z" fill="white"/>
<path d="M142.297 95.5862C143.037 95.2602 143.802 95.0822 144.573 94.9382C145.348 94.8132 146.128 94.7232 146.935 94.7822C146.195 95.1092 145.43 95.2882 144.659 95.4302C143.884 95.5542 143.103 95.6432 142.297 95.5862Z" fill="white"/>
<path d="M142.891 75.5051C142.598 76.2591 142.184 76.9261 141.74 77.5731C141.281 78.2091 140.792 78.8251 140.18 79.3531C140.472 78.5991 140.887 77.9311 141.331 77.2851C141.791 76.6491 142.28 76.0341 142.891 75.5051Z" fill="white"/>
<path d="M162.331 101.617C162.038 102.37 161.624 103.038 161.18 103.685C160.721 104.321 160.233 104.937 159.621 105.465C159.913 104.711 160.327 104.043 160.772 103.397C161.232 102.762 161.721 102.146 162.331 101.617Z" fill="white"/>
<path d="M146.391 109.45C145.637 109.157 144.97 108.743 144.323 108.299C143.687 107.84 143.071 107.351 142.543 106.74C143.297 107.032 143.964 107.446 144.611 107.891C145.247 108.35 145.862 108.839 146.391 109.45Z" fill="white"/>
<path d="M153.412 86.5441C154.638 88.2311 155.909 89.8851 157.175 91.5421C156.854 90.7041 156.576 89.8571 156.328 88.9921C156.317 88.9521 156.374 88.9351 156.389 88.9731C156.645 89.6361 156.929 90.2901 157.174 90.9571C157.292 91.2781 157.412 91.5971 157.535 91.9161C157.562 91.9851 157.589 92.0531 157.616 92.1211C158.601 93.4141 159.582 94.7101 160.53 96.0291C161.661 97.6041 162.753 99.2061 163.85 100.805C164.983 102.457 166.058 104.394 167.255 106C167.359 106.139 165.216 107.005 165.016 107.116C164.811 107.23 164.672 107.031 164.89 106.965C165.091 106.904 166.788 105.861 166.809 105.84C165.713 104.228 164.439 102.737 163.291 101.161C162.149 99.5921 161.002 98.0271 159.894 96.4341C157.644 93.1981 155.578 89.8361 153.345 86.5861C153.316 86.5451 153.382 86.5031 153.412 86.5441Z" fill="#263238"/>
<path d="M138.16 97.821C138.51 98.503 138.887 99.178 139.197 99.879C139.325 100.169 139.451 100.459 139.579 100.749C139.054 98.253 138.539 95.755 138.028 93.255C138.022 93.226 138.066 93.211 138.074 93.241C139.13 97.288 140.197 101.331 141.177 105.397C142.112 109.273 143.241 113.197 143.776 117.152C144.095 117.047 145.888 116.305 145.94 116.421C145.992 116.538 143.596 117.666 143.564 117.572C142.26 113.707 141.452 109.317 140.565 105.339C140.315 104.219 140.082 103.096 139.843 101.973C139.583 101.297 139.268 100.646 138.961 99.989C138.636 99.294 138.374 98.566 138.089 97.854C138.072 97.813 138.139 97.781 138.16 97.821Z" fill="#263238"/>
<path d="M144.265 113.42C147.466 111.615 160.84 104.692 163.832 103.387C164.039 103.296 164.148 103.403 163.944 103.524C154.485 109.16 147.573 111.926 144.341 113.541C144.261 113.581 144.184 113.466 144.265 113.42Z" fill="#263238"/>
<path d="M510.697 376.317H206.018L250.074 126.466H554.752L510.697 376.317Z" fill="#ACC9CB"/>
<path d="M354.35 100.591H254.636L250.074 126.466H356.785L354.35 100.591Z" fill="#ACC9CB"/>
<g opacity="0.1">
<path d="M510.697 376.317H206.018L250.074 126.466H554.752L510.697 376.317Z" fill="black"/>
<path d="M354.35 100.591H254.636L250.074 126.466H356.785L354.35 100.591Z" fill="black"/>
</g>
<path d="M243.877 111.146C243.483 109.696 243.394 108.245 243.377 106.795C243.391 105.344 243.48 103.894 243.877 102.444C244.273 103.894 244.362 105.345 244.377 106.795C244.36 108.246 244.271 109.696 243.877 111.146Z" fill="#263238"/>
<path d="M235.015 113.709C233.948 112.65 233.146 111.438 232.407 110.191C231.694 108.928 231.046 107.627 230.664 106.173C231.733 107.231 232.535 108.443 233.272 109.691C233.983 110.955 234.632 112.256 235.015 113.709Z" fill="#263238"/>
<path d="M228.624 120.358C227.171 119.974 225.87 119.326 224.606 118.615C223.357 117.877 222.145 117.075 221.088 116.007C222.542 116.389 223.843 117.037 225.106 117.75C226.353 118.49 227.565 119.291 228.624 120.358Z" fill="#263238"/>
<path d="M226.413 129.313C224.963 129.707 223.512 129.796 222.062 129.813C220.612 129.798 219.161 129.71 217.711 129.313C219.161 128.917 220.612 128.828 222.062 128.813C223.512 128.83 224.962 128.919 226.413 129.313Z" fill="#263238"/>
<path d="M228.975 138.174C227.916 139.241 226.704 140.043 225.457 140.782C224.194 141.495 222.893 142.143 221.439 142.525C222.497 141.457 223.709 140.655 224.957 139.917C226.221 139.206 227.522 138.557 228.975 138.174Z" fill="#263238"/>
<path d="M235.624 144.566C235.24 146.019 234.592 147.32 233.881 148.584C233.143 149.833 232.341 151.045 231.273 152.102C231.655 150.648 232.303 149.347 233.016 148.084C233.755 146.837 234.557 145.625 235.624 144.566Z" fill="#263238"/>
<path d="M244.578 146.777C244.972 148.228 245.061 149.678 245.078 151.128C245.063 152.578 244.975 154.029 244.578 155.479C244.181 154.029 244.093 152.578 244.078 151.128C244.095 149.678 244.184 148.228 244.578 146.777Z" fill="#263238"/>
<path d="M253.439 144.215C254.506 145.274 255.307 146.486 256.047 147.733C256.76 148.996 257.408 150.297 257.79 151.751C256.721 150.693 255.92 149.481 255.182 148.233C254.471 146.968 253.823 145.668 253.439 144.215Z" fill="#263238"/>
<path d="M259.832 137.565C261.285 137.949 262.586 138.597 263.85 139.308C265.099 140.046 266.311 140.848 267.368 141.916C265.914 141.534 264.613 140.886 263.35 140.173C262.103 139.434 260.891 138.632 259.832 137.565Z" fill="#263238"/>
<path d="M262.043 128.61C263.493 128.216 264.944 128.127 266.394 128.11C267.844 128.125 269.295 128.213 270.745 128.61C269.294 129.006 267.844 129.095 266.394 129.11C264.943 129.093 263.493 129.005 262.043 128.61Z" fill="#263238"/>
<path d="M259.48 119.75C260.539 118.683 261.751 117.881 262.998 117.142C264.261 116.43 265.562 115.781 267.016 115.399C265.958 116.467 264.746 117.269 263.498 118.007C262.234 118.718 260.933 119.366 259.48 119.75Z" fill="#263238"/>
<path d="M252.832 113.358C253.216 111.905 253.864 110.604 254.575 109.34C255.313 108.091 256.115 106.879 257.183 105.822C256.801 107.276 256.153 108.577 255.44 109.84C254.7 111.087 253.898 112.299 252.832 113.358Z" fill="#263238"/>
<path d="M510.25 376.317H204.915L161.564 135.536H466.899L510.25 376.317Z" fill="#ACC9CB"/>
<path d="M267.369 282.728C274.378 282.728 280.06 277.046 280.06 270.037C280.06 263.028 274.378 257.346 267.369 257.346C260.36 257.346 254.678 263.028 254.678 270.037C254.678 277.046 260.36 282.728 267.369 282.728Z" fill="#263238"/>
<path d="M367.693 282.728C374.702 282.728 380.384 277.046 380.384 270.037C380.384 263.028 374.702 257.346 367.693 257.346C360.684 257.346 355.002 263.028 355.002 270.037C355.002 277.046 360.684 282.728 367.693 282.728Z" fill="#263238"/>
<path d="M335.76 284.754L335.064 283.425C335 283.305 328.445 271.187 315.253 271.187C303.222 271.187 300.289 282.597 300.17 283.082L299.814 284.536L296.904 283.833L297.254 282.378C297.288 282.236 300.829 268.187 315.253 268.187C330.29 268.187 337.425 281.467 337.721 282.033L338.418 283.361L335.76 284.754Z" fill="#263238"/>
<path d="M489.988 268.58C490.639 268.44 491.289 268.287 491.935 268.122" stroke="#263238" stroke-miterlimit="10"/>
<path d="M495.774 266.985C511.07 261.82 523.88 249.787 525.085 235.729C527.742 204.729 489.988 187.605 493.888 151.783C497.608 117.612 533.45 115.174 547.818 119.897C563.687 125.114 558.25 140.367 543.882 138.399C518.972 134.987 503.314 107.906 515.145 77.1862C523.984 54.2352 546.018 45.5792 554.969 42.9392" stroke="#263238" stroke-miterlimit="10" stroke-dasharray="4 4"/>
<path d="M556.896 42.4051C558.135 42.0861 558.84 41.9531 558.84 41.9531" stroke="#263238" stroke-miterlimit="10"/>
<path d="M574.702 36.4301C572.15 28.5261 555.07 31.3661 558.405 41.6921C561.739 52.0191 577.254 44.3341 574.702 36.4301Z" fill="#263238"/>
<path d="M549.114 33.2431C549.241 29.7771 554.064 27.1101 560.88 28.3401C567.696 29.5711 574.116 34.1621 574.116 34.1621C574.116 34.1621 567.376 38.2851 560.488 39.0121C553.599 39.7401 548.986 36.7261 549.114 33.2431Z" fill="#EBEBEB"/>
<path d="M574.116 34.162C570.577 34.186 567.043 34.068 563.508 33.96C559.975 33.809 556.442 33.669 552.914 33.383C556.453 33.357 559.987 33.477 563.522 33.585C567.055 33.737 570.588 33.878 574.116 34.162Z" fill="#263238"/>
<path d="M555.965 30.1741C556.989 30.6321 557.936 31.2131 558.889 31.7831C559.819 32.3911 560.756 32.9891 561.615 33.7101C560.591 33.2531 559.644 32.6721 558.691 32.1001C557.76 31.4931 556.825 30.8951 555.965 30.1741Z" fill="#263238"/>
<path d="M565.231 33.8362C564.335 34.5972 563.361 35.2362 562.393 35.8852C561.401 36.4972 560.416 37.1202 559.352 37.6192C560.248 36.8582 561.222 36.2182 562.19 35.5702C563.181 34.9582 564.167 34.3372 565.231 33.8362Z" fill="#263238"/>
<path d="M566.26 31.884C566.788 32.111 567.226 32.45 567.67 32.781C568.087 33.145 568.512 33.5 568.845 33.969C568.316 33.743 567.879 33.403 567.435 33.072C567.018 32.707 566.594 32.351 566.26 31.884Z" fill="#263238"/>
<path d="M555.609 53.816C557.74 56.553 563.211 55.896 568.021 50.912C572.83 45.927 575.353 38.449 575.353 38.449C575.353 38.449 567.474 39.046 561.462 42.485C555.448 45.923 553.468 51.066 555.609 53.816Z" fill="#EBEBEB"/>
<path d="M575.351 38.448C572.466 40.498 569.669 42.661 566.865 44.816C564.088 47.005 561.303 49.185 558.609 51.479C561.495 49.43 564.292 47.266 567.095 45.111C569.872 42.922 572.656 40.742 575.351 38.448Z" fill="#263238"/>
<path d="M562.961 52.298C563.523 51.327 563.952 50.303 564.392 49.282C564.791 48.245 565.201 47.212 565.476 46.125C564.913 47.095 564.484 48.12 564.045 49.141C563.646 50.178 563.237 51.211 562.961 52.298Z" fill="#263238"/>
<path d="M568.336 43.91C567.164 43.817 566 43.868 564.835 43.907C563.673 43.99 562.509 44.062 561.354 44.279C562.526 44.373 563.69 44.322 564.855 44.282C566.017 44.198 567.18 44.125 568.336 43.91Z" fill="#263238"/>
<path d="M570.311 44.891C570.606 44.398 570.763 43.867 570.931 43.339C571.056 42.799 571.193 42.263 571.189 41.688C570.892 42.181 570.736 42.712 570.569 43.24C570.444 43.78 570.308 44.317 570.311 44.891Z" fill="#263238"/>
<path d="M574.701 36.43C573.126 36.938 571.437 36.074 570.929 34.499C570.421 32.924 571.285 31.236 572.859 30.727C574.433 30.218 576.123 31.083 576.631 32.658C577.14 34.233 576.276 35.922 574.701 36.43Z" fill="#455A64"/>
<path d="M576.543 42.133C574.968 42.641 573.28 41.777 572.771 40.202C572.262 38.627 573.127 36.939 574.702 36.43C576.277 35.922 577.965 36.786 578.474 38.361C578.982 39.935 578.118 41.624 576.543 42.133Z" fill="#455A64"/>
<path d="M248.695 39.5869C247.263 53.2759 234.999 63.2169 221.311 61.7849C215.779 61.2059 210.861 58.8579 207.053 55.3509L194.584 57.1809L200.823 46.4009C199.309 42.7179 198.672 38.6189 199.113 34.3999C200.545 20.7109 212.809 10.7699 226.497 12.2019C240.185 13.6339 250.126 25.8979 248.695 39.5869Z" fill="white"/>
<path d="M248.694 39.587C248.173 44.137 246.51 48.597 243.664 52.221C243.01 53.17 242.168 53.963 241.405 54.822C240.539 55.576 239.731 56.404 238.775 57.049C236.952 58.453 234.903 59.554 232.763 60.397C230.632 61.294 228.339 61.722 226.053 61.997C224.9 62.059 223.745 62.164 222.59 62.063C221.433 62.037 220.28 61.913 219.141 61.704C214.58 60.878 210.26 58.743 206.81 55.616L207.105 55.707L194.648 57.619L193.744 57.758L194.202 56.961L200.404 46.16L200.375 46.586C197.354 39.472 198.035 31 201.91 24.371C203.842 21.052 206.536 18.192 209.716 16.059C212.894 13.92 216.58 12.579 220.353 12.068C224.13 11.567 228.017 11.911 231.624 13.109C235.226 14.322 238.529 16.362 241.236 19.003C246.737 24.234 249.503 32.082 248.694 39.587ZM248.694 39.587C249.452 32.076 246.631 24.276 241.126 19.115C238.393 16.534 235.084 14.579 231.514 13.444C227.938 12.325 224.113 12.058 220.429 12.613C216.748 13.178 213.183 14.549 210.135 16.679C207.095 18.814 204.53 21.606 202.678 24.813C200.789 28.013 199.811 31.679 199.515 35.359C199.282 39.051 199.884 42.788 201.269 46.217L201.359 46.44L201.24 46.644L194.965 57.402L194.519 56.744L207 54.996L207.172 54.972L207.295 55.087C210.594 58.184 214.769 60.346 219.23 61.235C220.344 61.46 221.474 61.601 222.611 61.646C223.746 61.766 224.883 61.682 226.022 61.641C228.279 61.409 230.554 61.027 232.679 60.175C234.812 59.376 236.874 58.329 238.691 56.935C239.647 56.3 240.455 55.483 241.323 54.738C242.088 53.889 242.933 53.105 243.59 52.164C246.449 48.572 248.142 44.134 248.694 39.587Z" fill="#263238"/>
<path d="M211.719 48.615C211.719 47.127 212.752 46.052 214.157 46.052C215.645 46.052 216.596 47.127 216.596 48.615C216.596 50.062 215.645 51.177 214.157 51.177C212.711 51.177 211.719 50.061 211.719 48.615ZM212.752 42.704L212.173 22.865H216.141L215.562 42.704H212.752Z" fill="#0C5E62"/>
<path d="M221.227 48.615C221.227 47.127 222.26 46.052 223.666 46.052C225.154 46.052 226.105 47.127 226.105 48.615C226.105 50.062 225.154 51.177 223.666 51.177C222.219 51.177 221.227 50.061 221.227 48.615ZM222.26 42.704L221.682 22.865H225.65L225.072 42.704H222.26Z" fill="#0C5E62"/>
<path d="M230.732 48.615C230.732 47.127 231.765 46.052 233.171 46.052C234.659 46.052 235.609 47.127 235.609 48.615C235.609 50.062 234.658 51.177 233.171 51.177C231.724 51.177 230.732 50.061 230.732 48.615ZM231.766 42.704L231.187 22.865H235.155L234.577 42.704H231.766Z" fill="#0C5E62"/>
<path d="M237.652 442.98H234.572L227.598 432.442V442.98H224.518V427.602H227.598L234.572 438.162V427.602H237.652V442.98ZM246.086 443.178C244.912 443.178 243.856 442.922 242.918 442.408C241.979 441.88 241.238 441.14 240.696 440.186C240.168 439.233 239.904 438.133 239.904 436.886C239.904 435.64 240.175 434.54 240.718 433.586C241.275 432.633 242.03 431.9 242.984 431.386C243.937 430.858 245 430.594 246.174 430.594C247.347 430.594 248.41 430.858 249.364 431.386C250.317 431.9 251.065 432.633 251.608 433.586C252.165 434.54 252.444 435.64 252.444 436.886C252.444 438.133 252.158 439.233 251.586 440.186C251.028 441.14 250.266 441.88 249.298 442.408C248.344 442.922 247.274 443.178 246.086 443.178ZM246.086 440.494C246.643 440.494 247.164 440.362 247.648 440.098C248.146 439.82 248.542 439.409 248.836 438.866C249.129 438.324 249.276 437.664 249.276 436.886C249.276 435.728 248.968 434.84 248.352 434.224C247.75 433.594 247.01 433.278 246.13 433.278C245.25 433.278 244.509 433.594 243.908 434.224C243.321 434.84 243.028 435.728 243.028 436.886C243.028 438.045 243.314 438.94 243.886 439.57C244.472 440.186 245.206 440.494 246.086 440.494ZM265.269 427.624C266.883 427.624 268.298 427.94 269.515 428.57C270.747 429.201 271.693 430.103 272.353 431.276C273.028 432.435 273.365 433.784 273.365 435.324C273.365 436.864 273.028 438.214 272.353 439.372C271.693 440.516 270.747 441.404 269.515 442.034C268.298 442.665 266.883 442.98 265.269 442.98H259.901V427.624H265.269ZM265.159 440.362C266.773 440.362 268.019 439.922 268.899 439.042C269.779 438.162 270.219 436.923 270.219 435.324C270.219 433.726 269.779 432.479 268.899 431.584C268.019 430.675 266.773 430.22 265.159 430.22H262.981V440.362H265.159ZM274.857 436.842C274.857 435.61 275.099 434.518 275.583 433.564C276.081 432.611 276.749 431.878 277.585 431.364C278.435 430.851 279.381 430.594 280.423 430.594C281.332 430.594 282.124 430.778 282.799 431.144C283.488 431.511 284.038 431.973 284.449 432.53V430.792H287.551V442.98H284.449V441.198C284.053 441.77 283.503 442.247 282.799 442.628C282.109 442.995 281.31 443.178 280.401 443.178C279.374 443.178 278.435 442.914 277.585 442.386C276.749 441.858 276.081 441.118 275.583 440.164C275.099 439.196 274.857 438.089 274.857 436.842ZM284.449 436.886C284.449 436.138 284.302 435.5 284.009 434.972C283.715 434.43 283.319 434.019 282.821 433.74C282.322 433.447 281.787 433.3 281.215 433.3C280.643 433.3 280.115 433.44 279.631 433.718C279.147 433.997 278.751 434.408 278.443 434.95C278.149 435.478 278.003 436.109 278.003 436.842C278.003 437.576 278.149 438.221 278.443 438.778C278.751 439.321 279.147 439.739 279.631 440.032C280.129 440.326 280.657 440.472 281.215 440.472C281.787 440.472 282.322 440.333 282.821 440.054C283.319 439.761 283.715 439.35 284.009 438.822C284.302 438.28 284.449 437.634 284.449 436.886ZM294.123 433.322V439.218C294.123 439.629 294.218 439.93 294.409 440.12C294.614 440.296 294.952 440.384 295.421 440.384H296.851V442.98H294.915C292.319 442.98 291.021 441.719 291.021 439.196V433.322H289.569V430.792H291.021V427.778H294.123V430.792H296.851V433.322H294.123ZM298.252 436.842C298.252 435.61 298.494 434.518 298.978 433.564C299.477 432.611 300.144 431.878 300.98 431.364C301.831 430.851 302.777 430.594 303.818 430.594C304.728 430.594 305.52 430.778 306.194 431.144C306.884 431.511 307.434 431.973 307.844 432.53V430.792H310.946V442.98H307.844V441.198C307.448 441.77 306.898 442.247 306.194 442.628C305.505 442.995 304.706 443.178 303.796 443.178C302.77 443.178 301.831 442.914 300.98 442.386C300.144 441.858 299.477 441.118 298.978 440.164C298.494 439.196 298.252 438.089 298.252 436.842ZM307.844 436.886C307.844 436.138 307.698 435.5 307.404 434.972C307.111 434.43 306.715 434.019 306.216 433.74C305.718 433.447 305.182 433.3 304.61 433.3C304.038 433.3 303.51 433.44 303.026 433.718C302.542 433.997 302.146 434.408 301.838 434.95C301.545 435.478 301.398 436.109 301.398 436.842C301.398 437.576 301.545 438.221 301.838 438.778C302.146 439.321 302.542 439.739 303.026 440.032C303.525 440.326 304.053 440.472 304.61 440.472C305.182 440.472 305.718 440.333 306.216 440.054C306.715 439.761 307.111 439.35 307.404 438.822C307.698 438.28 307.844 437.634 307.844 436.886ZM328.635 427.624V430.11H322.233V434.048H327.139V436.49H322.233V442.98H319.153V427.624H328.635ZM336.209 443.178C335.035 443.178 333.979 442.922 333.041 442.408C332.102 441.88 331.361 441.14 330.819 440.186C330.291 439.233 330.027 438.133 330.027 436.886C330.027 435.64 330.298 434.54 330.841 433.586C331.398 432.633 332.153 431.9 333.107 431.386C334.06 430.858 335.123 430.594 336.297 430.594C337.47 430.594 338.533 430.858 339.487 431.386C340.44 431.9 341.188 432.633 341.731 433.586C342.288 434.54 342.567 435.64 342.567 436.886C342.567 438.133 342.281 439.233 341.709 440.186C341.151 441.14 340.389 441.88 339.421 442.408C338.467 442.922 337.397 443.178 336.209 443.178ZM336.209 440.494C336.766 440.494 337.287 440.362 337.771 440.098C338.269 439.82 338.665 439.409 338.959 438.866C339.252 438.324 339.399 437.664 339.399 436.886C339.399 435.728 339.091 434.84 338.475 434.224C337.873 433.594 337.133 433.278 336.253 433.278C335.373 433.278 334.632 433.594 334.031 434.224C333.444 434.84 333.151 435.728 333.151 436.886C333.151 438.045 333.437 438.94 334.009 439.57C334.595 440.186 335.329 440.494 336.209 440.494ZM356.31 430.792V442.98H353.208V441.44C352.812 441.968 352.291 442.386 351.646 442.694C351.015 442.988 350.326 443.134 349.578 443.134C348.625 443.134 347.781 442.936 347.048 442.54C346.315 442.13 345.735 441.536 345.31 440.758C344.899 439.966 344.694 439.028 344.694 437.942V430.792H347.774V437.502C347.774 438.47 348.016 439.218 348.5 439.746C348.984 440.26 349.644 440.516 350.48 440.516C351.331 440.516 351.998 440.26 352.482 439.746C352.966 439.218 353.208 438.47 353.208 437.502V430.792H356.31ZM366.081 430.616C367.533 430.616 368.706 431.078 369.601 432.002C370.495 432.912 370.943 434.188 370.943 435.83V442.98H367.863V436.248C367.863 435.28 367.621 434.54 367.137 434.026C366.653 433.498 365.993 433.234 365.157 433.234C364.306 433.234 363.631 433.498 363.133 434.026C362.649 434.54 362.407 435.28 362.407 436.248V442.98H359.327V430.792H362.407V432.31C362.817 431.782 363.338 431.372 363.969 431.078C364.614 430.77 365.318 430.616 366.081 430.616ZM373.058 436.842C373.058 435.61 373.3 434.518 373.784 433.564C374.282 432.611 374.957 431.878 375.808 431.364C376.658 430.851 377.604 430.594 378.646 430.594C379.438 430.594 380.193 430.77 380.912 431.122C381.63 431.46 382.202 431.914 382.628 432.486V426.7H385.752V442.98H382.628V441.176C382.246 441.778 381.711 442.262 381.022 442.628C380.332 442.995 379.533 443.178 378.624 443.178C377.597 443.178 376.658 442.914 375.808 442.386C374.957 441.858 374.282 441.118 373.784 440.164C373.3 439.196 373.058 438.089 373.058 436.842ZM382.65 436.886C382.65 436.138 382.503 435.5 382.21 434.972C381.916 434.43 381.52 434.019 381.022 433.74C380.523 433.447 379.988 433.3 379.416 433.3C378.844 433.3 378.316 433.44 377.832 433.718C377.348 433.997 376.952 434.408 376.644 434.95C376.35 435.478 376.204 436.109 376.204 436.842C376.204 437.576 376.35 438.221 376.644 438.778C376.952 439.321 377.348 439.739 377.832 440.032C378.33 440.326 378.858 440.472 379.416 440.472C379.988 440.472 380.523 440.333 381.022 440.054C381.52 439.761 381.916 439.35 382.21 438.822C382.503 438.28 382.65 437.634 382.65 436.886Z" fill="black"/>
</svg>
