<svg width="500" height="500" viewBox="0 0 500 500" fill="none" xmlns="http://www.w3.org/2000/svg">
<path d="M87.5931 239.555L74.4681 239.834L67.8071 239.946C65.5811 239.993 63.3441 239.983 61.1121 240.001L60.6681 240.004L60.6661 239.555L60.6121 228.365L60.6101 227.863L61.1121 227.865L74.3521 227.928C78.7651 227.933 83.1791 228.041 87.5921 228.092L87.8681 228.095L87.8651 228.365C87.8461 230.264 87.7791 232.152 87.7341 234.019L87.5931 239.555ZM87.5931 239.555L87.4511 233.901C87.4061 232.038 87.3391 230.196 87.3201 228.365L87.5931 228.638C83.1801 228.689 78.7661 228.797 74.3531 228.802L61.1131 228.865L61.6121 228.366L61.5581 239.556L61.1131 239.11C63.2951 239.128 65.4711 239.118 67.6591 239.165L74.2381 239.277L87.5931 239.555Z" fill="#EBEBEB"/>
<path d="M72.8221 253.666L59.6971 253.945L53.0361 254.057C50.8101 254.104 48.5731 254.094 46.3411 254.112L45.8971 254.116L45.8951 253.667L45.8411 242.477L45.8391 241.975L46.3411 241.977L59.5811 242.04C63.9941 242.045 68.4081 242.153 72.8211 242.204L73.0971 242.207L73.0941 242.477C73.0751 244.376 73.0081 246.264 72.9631 248.131L72.8221 253.666ZM72.8221 253.666L72.6801 248.012C72.6351 246.149 72.5681 244.307 72.5491 242.476L72.8221 242.749C68.4091 242.8 63.9951 242.908 59.5821 242.913L46.3421 242.976L46.8411 242.477L46.7871 253.667L46.3421 253.221C48.5241 253.239 50.7001 253.229 52.8881 253.276L59.4671 253.388L72.8221 253.666Z" fill="#EBEBEB"/>
<path d="M363.582 360.906L350.457 361.185L343.796 361.297C341.57 361.344 339.333 361.335 337.101 361.352L336.657 361.356L336.655 360.907L336.601 349.717L336.599 349.215L337.101 349.217L350.341 349.28C354.754 349.285 359.168 349.392 363.581 349.444L363.857 349.447L363.854 349.717C363.835 351.616 363.768 353.504 363.723 355.371L363.582 360.906ZM363.582 360.906L363.44 355.252C363.395 353.389 363.328 351.547 363.309 349.716L363.582 349.989C359.169 350.04 354.755 350.148 350.342 350.153L337.102 350.216L337.601 349.717L337.547 360.907L337.101 360.462C339.283 360.48 341.459 360.47 343.647 360.517L350.226 360.629L363.582 360.906Z" fill="#EBEBEB"/>
<path d="M348.81 375.015L335.685 375.294L329.024 375.406C326.798 375.453 324.561 375.444 322.329 375.461L321.885 375.465L321.883 375.016L321.829 363.826L321.827 363.324L322.329 363.326L335.569 363.389C339.982 363.394 344.396 363.501 348.809 363.553L349.085 363.556L349.082 363.826C349.063 365.725 348.996 367.613 348.951 369.48L348.81 375.015ZM348.81 375.015L348.668 369.361C348.623 367.498 348.556 365.656 348.537 363.825L348.81 364.098C344.397 364.149 339.983 364.257 335.57 364.262L322.33 364.325L322.829 363.826L322.775 375.016L322.329 374.571C324.511 374.589 326.687 374.579 328.875 374.626L335.454 374.738L348.81 375.015Z" fill="#EBEBEB"/>
<path d="M453.659 253.666L440.534 253.945L433.873 254.057C431.647 254.104 429.41 254.094 427.178 254.112L426.734 254.116L426.732 253.667L426.678 242.477L426.676 241.975L427.178 241.977L440.418 242.04C444.831 242.045 449.245 242.153 453.658 242.204L453.934 242.207L453.931 242.477C453.912 244.376 453.845 246.264 453.8 248.131L453.659 253.666ZM453.659 253.666L453.517 248.012C453.472 246.149 453.405 244.307 453.386 242.476L453.659 242.749C449.246 242.8 444.832 242.908 440.419 242.913L427.179 242.976L427.678 242.477L427.624 253.667L427.179 253.221C429.361 253.239 431.537 253.229 433.725 253.276L440.304 253.388L453.659 253.666Z" fill="#EBEBEB"/>
<path d="M438.887 55.1998L425.762 55.4788L419.101 55.5908C416.875 55.6378 414.638 55.6278 412.406 55.6458L411.962 55.6488L411.96 55.1998L411.906 44.0098L411.904 43.5078L412.406 43.5098L425.646 43.5728C430.059 43.5778 434.473 43.6848 438.886 43.7368L439.162 43.7398L439.159 44.0098C439.14 45.9088 439.073 47.7968 439.028 49.6638L438.887 55.1998ZM438.887 55.1998L438.745 49.5458C438.7 47.6828 438.633 45.8408 438.614 44.0098L438.887 44.2828C434.474 44.3338 430.06 44.4418 425.647 44.4468L412.407 44.5098L412.906 44.0108L412.852 55.2008L412.406 54.7548C414.588 54.7728 416.764 54.7628 418.952 54.8098L425.531 54.9218L438.887 55.1998Z" fill="#EBEBEB"/>
<path d="M453.659 69.3092L440.534 69.5882L433.873 69.7002C431.647 69.7472 429.41 69.7372 427.178 69.7552L426.734 69.7582L426.732 69.3092L426.678 58.1192L426.676 57.6172L427.178 57.6192L440.418 57.6822C444.831 57.6872 449.245 57.7942 453.658 57.8462L453.934 57.8492L453.931 58.1192C453.912 60.0182 453.845 61.9062 453.8 63.7732L453.659 69.3092ZM453.659 69.3092L453.517 63.6552C453.472 61.7922 453.405 59.9502 453.386 58.1192L453.659 58.3922C449.246 58.4432 444.832 58.5512 440.419 58.5562L427.179 58.6192L427.678 58.1202L427.624 69.3102L427.179 68.8642C429.361 68.8822 431.537 68.8722 433.725 68.9192L440.304 69.0312L453.659 69.3092Z" fill="#EBEBEB"/>
<path d="M87.5931 55.1998L74.4681 55.4788L67.8071 55.5908C65.5811 55.6378 63.3441 55.6278 61.1121 55.6458L60.6681 55.6488L60.6671 55.1998L60.6131 44.0098L60.6111 43.5078L61.1131 43.5098L74.3531 43.5728C78.7661 43.5778 83.1801 43.6848 87.5931 43.7368L87.8691 43.7398L87.8661 44.0098C87.8471 45.9088 87.7801 47.7968 87.7351 49.6638L87.5931 55.1998ZM87.5931 55.1998L87.4511 49.5458C87.4061 47.6828 87.3391 45.8408 87.3201 44.0098L87.5931 44.2828C83.1801 44.3338 78.7661 44.4418 74.3531 44.4468L61.1131 44.5098L61.6121 44.0108L61.5581 55.1998L61.1131 54.7538C63.2951 54.7718 65.4711 54.7618 67.6591 54.8088L74.2381 54.9208L87.5931 55.1998Z" fill="#EBEBEB"/>
<path d="M240.331 178.256L227.206 178.535L220.545 178.647C218.319 178.694 216.082 178.684 213.85 178.702L213.406 178.705L213.404 178.256L213.35 167.066L213.348 166.564L213.85 166.566L227.09 166.629C231.503 166.634 235.917 166.742 240.33 166.793L240.606 166.796L240.603 167.066C240.584 168.965 240.517 170.853 240.472 172.72L240.331 178.256ZM240.331 178.256L240.189 172.602C240.144 170.739 240.077 168.897 240.058 167.066L240.331 167.339C235.918 167.39 231.504 167.498 227.091 167.503L213.851 167.566L214.35 167.067L214.296 178.257L213.85 177.811C216.032 177.829 218.208 177.819 220.396 177.866L226.975 177.978L240.331 178.256Z" fill="#EBEBEB"/>
<path d="M51.3752 349.801H146.373V299.947H51.3752V299.948V349.801Z" fill="#EBEBEB"/>
<path d="M161.076 349.802H146.373V334.492L161.076 349.802Z" fill="#EBEBEB"/>
<path d="M137.279 308.568H60.4702V309.515H137.279V308.568Z" fill="white"/>
<path d="M108.102 313.684H60.4702V314.631H108.102V313.684Z" fill="white"/>
<path d="M125.721 323.916H60.4702V324.863H125.721V323.916Z" fill="white"/>
<path d="M137.279 329.031H60.4702V329.978H137.279V329.031Z" fill="white"/>
<path d="M137.279 334.146H60.4702V335.093H137.279V334.146Z" fill="white"/>
<path d="M98.3432 339.262H60.4702V340.209H98.3432V339.262Z" fill="white"/>
<path d="M448.572 96.5977H353.574V140.565H448.572V96.5977Z" fill="#DBDBDB"/>
<path d="M338.87 140.563H353.574V125.254L338.87 140.563Z" fill="#DBDBDB"/>
<path d="M431.842 119.553H362.85V120.5H431.842V119.553Z" fill="white"/>
<path d="M421.032 124.67H362.85V125.617H421.032V124.67Z" fill="white"/>
<path d="M424.184 109.322H362.85V110.269H424.184V109.322Z" fill="white"/>
<path d="M437.912 104.207H362.85V105.154H437.912V104.207Z" fill="white"/>
<path d="M425.363 129.783H362.85V130.73H425.363V129.783Z" fill="white"/>
<path d="M460.307 162.592H365.309V191.559H460.307V162.592Z" fill="#EBEBEB"/>
<path d="M350.606 191.558H365.309V176.248L350.606 191.558Z" fill="#EBEBEB"/>
<path d="M443.578 170.547H374.586V171.494H443.578V170.547Z" fill="white"/>
<path d="M432.768 175.662H374.586V176.609H432.768V175.662Z" fill="white"/>
<path d="M437.099 180.777H374.586V181.724H437.099V180.777Z" fill="white"/>
<path d="M412.944 247.861C414.261 249.289 415.82 250.533 417.611 251.53C422.24 254.117 427.478 254.563 432.194 253.178C436.804 251.833 440.919 248.743 443.451 244.22C448.563 235.058 445.295 223.49 436.133 218.378C426.981 213.26 415.411 216.536 410.291 225.696C406.175 233.068 407.501 241.997 412.944 247.861Z" fill="#EBEBEB"/>
<path d="M421.885 231.323C421.034 234.399 422.837 237.582 425.913 238.433C428.989 239.284 432.172 237.48 433.023 234.405C433.874 231.329 432.071 228.146 428.995 227.295C425.919 226.443 422.736 228.247 421.885 231.323Z" fill="white"/>
<path d="M413.58 245.563L412.944 247.86C414.261 249.288 415.82 250.532 417.611 251.529C422.24 254.116 427.478 254.562 432.194 253.177L432.828 250.888C434.295 245.586 431.185 240.073 425.867 238.602C420.548 237.131 415.047 240.261 413.58 245.563Z" fill="white"/>
<path d="M49.5342 283.48C45.0752 275.224 48.1522 264.916 56.4092 260.456C64.6652 255.997 74.9732 259.075 79.4332 267.331C83.8922 275.587 80.8152 285.895 72.5582 290.354C64.3012 294.814 53.9932 291.736 49.5342 283.48Z" fill="#EBEBEB"/>
<path d="M73.4092 275.265C72.2352 280.923 67.1042 285.44 67.1042 285.44C67.1042 285.44 60.4192 284.012 56.6312 279.652C53.4712 276.015 53.6002 271.157 56.6072 269.317C60.9172 266.678 64.2482 274.514 64.2482 274.514C64.2482 274.514 63.3182 266.05 68.3722 266.241C71.8942 266.374 74.3852 270.546 73.4092 275.265Z" fill="white"/>
<path fill-rule="evenodd" clip-rule="evenodd" d="M115.672 394.57C114.74 393.989 113.927 393.142 112.68 393.265C112.202 393.314 112.306 392.918 112.303 392.658C112.281 387.969 112.266 383.286 112.246 378.6C112.245 378.259 112.265 377.979 112.636 377.79C116.209 375.973 117.749 372.417 119.932 369.375C122.266 366.128 123.059 362.615 122.493 358.734C122.34 357.68 122.83 357.206 123.78 356.987C124.923 356.722 126.063 357.035 126.457 357.819C127.427 359.765 128.263 361.788 128.521 363.954C128.733 365.731 128.102 367.463 127.886 369.222C127.727 370.51 127.431 371.782 127.192 373.086C127.506 373.313 127.871 373.193 128.208 373.197C132.167 373.19 136.125 373.175 140.084 373.162C141.752 373.157 142.571 373.633 142.806 374.739C143.096 376.118 142.371 377.522 141.093 378.177C140.798 378.327 140.262 378.194 140.227 378.658C140.194 379.131 140.744 379.08 141.018 379.27C142.454 380.248 142.195 382.276 140.541 383.454C140.143 383.735 139.369 383.608 139.352 384.194C139.344 384.661 140.068 384.653 140.397 384.98C141.557 386.119 140.99 388.255 139.264 389.123C139.043 389.233 138.768 389.255 138.569 389.394C138.373 389.527 138.18 389.675 138.562 389.944C140.281 391.163 140.25 392.869 138.527 394.117C138.358 394.24 138.186 394.365 138.012 394.489C137.386 394.951 136.645 394.947 135.929 394.952C129.721 394.985 123.513 395.002 117.305 395.018C116.726 395.021 116.138 395.005 115.672 394.57Z" fill="#EBEBEB"/>
<path fill-rule="evenodd" clip-rule="evenodd" d="M97.9932 386.364C97.9832 383.388 97.9872 380.408 97.9532 377.433C97.9472 376.827 98.0082 376.53 98.7502 376.535C102.383 376.567 106.011 376.554 109.643 376.502C110.356 376.492 110.467 376.737 110.465 377.37C110.465 383.362 110.48 389.353 110.529 395.345C110.536 396.107 110.329 396.324 109.564 396.313C106.041 396.285 102.519 396.288 98.9992 396.355C98.1222 396.372 98.0002 396.065 98.0072 395.298C98.0402 392.321 98.0032 389.344 97.9932 386.364Z" fill="#EBEBEB"/>
<path fill-rule="evenodd" clip-rule="evenodd" d="M143.189 78.7839C142.562 78.3929 142.017 77.8249 141.179 77.9069C140.858 77.9399 140.928 77.6739 140.925 77.4989C140.91 74.3479 140.9 71.2009 140.887 68.0529C140.886 67.8239 140.9 67.6359 141.149 67.5089C143.549 66.2879 144.585 63.8979 146.051 61.8549C147.619 59.6739 148.152 57.3129 147.772 54.7049C147.669 53.9969 147.998 53.6779 148.637 53.5309C149.405 53.3529 150.171 53.5629 150.436 54.0899C151.088 55.3979 151.649 56.7569 151.823 58.2119C151.966 59.4059 151.542 60.5699 151.396 61.7519C151.289 62.6169 151.091 63.4719 150.93 64.3479C151.141 64.5009 151.386 64.4199 151.613 64.4229C154.273 64.4179 156.933 64.4079 159.593 64.3989C160.714 64.3949 161.264 64.7149 161.422 65.4589C161.617 66.3849 161.13 67.3289 160.271 67.7689C160.073 67.8699 159.713 67.7809 159.689 68.0919C159.667 68.4099 160.036 68.3759 160.221 68.5029C161.186 69.1609 161.012 70.5229 159.9 71.3149C159.633 71.5039 159.113 71.4189 159.101 71.8119C159.096 72.1249 159.582 72.1199 159.803 72.3399C160.583 73.1049 160.201 74.5409 159.042 75.1239C158.893 75.1979 158.709 75.2129 158.575 75.3059C158.443 75.3959 158.314 75.4949 158.571 75.6759C159.726 76.4949 159.705 77.6409 158.548 78.4799C158.434 78.5619 158.318 78.6469 158.202 78.7299C157.781 79.0409 157.284 79.0379 156.802 79.0409C152.631 79.0629 148.459 79.0739 144.288 79.0859C143.897 79.0869 143.502 79.0759 143.189 78.7839Z" fill="#EBEBEB"/>
<path fill-rule="evenodd" clip-rule="evenodd" d="M131.309 73.2707C131.302 71.2707 131.305 69.2687 131.282 67.2697C131.278 66.8627 131.319 66.6627 131.818 66.6667C134.259 66.6877 136.697 66.6797 139.137 66.6447C139.616 66.6387 139.691 66.8027 139.689 67.2277C139.689 71.2537 139.699 75.2797 139.732 79.3057C139.737 79.8177 139.598 79.9637 139.084 79.9567C136.717 79.9377 134.35 79.9397 131.985 79.9857C131.396 79.9967 131.314 79.7907 131.319 79.2757C131.341 77.2727 131.316 75.2727 131.309 73.2707Z" fill="#EBEBEB"/>
<path d="M250 468.742C323.174 468.742 382.493 459.511 382.493 448.124C382.493 436.737 323.174 427.506 250 427.506C176.826 427.506 117.507 436.737 117.507 448.124C117.507 459.511 176.826 468.742 250 468.742Z" fill="#EBEBEB"/>
<path d="M102.441 347.362C102.786 338.874 102.648 330.369 102.092 321.892C100.945 304.408 98.0659 287.06 94.1129 270.001C91.8879 260.398 89.1479 250.958 86.2929 241.528C86.2069 241.243 85.7519 241.324 85.8309 241.62C94.6599 274.863 101.903 309.169 101.404 343.726C101.264 353.397 100.145 362.896 99.2269 372.506C99.2019 372.763 99.6249 372.865 99.6839 372.602C101.507 364.378 102.1 355.761 102.441 347.362Z" fill="#0C5E62"/>
<path d="M85.8321 241.621C85.8321 241.621 72.4581 275.568 75.4521 283.547C78.4461 291.526 84.6201 293.228 84.6201 293.228C84.6201 293.228 76.4371 304.911 82.1551 315.868C87.8731 326.826 100.578 326.308 101.423 338.732C101.423 338.732 102.13 286.783 85.8321 241.621Z" fill="#0C5E62"/>
<path d="M99.968 317.281C99.984 317.224 99.981 317.164 99.954 317.103C98.076 294.021 93.981 271.011 86.981 248.813C86.96 248.747 86.853 248.769 86.871 248.836C89.521 258.766 91.879 268.75 93.894 278.788C92.157 276.999 89.885 275.971 87.51 275.228C87.465 275.214 87.443 275.278 87.486 275.296C89.959 276.365 92.329 277.605 94.078 279.701C94.469 281.668 94.851 283.637 95.214 285.608C92.226 282.268 88.081 280.61 83.933 279.035C83.875 279.013 83.843 279.103 83.901 279.126C88.221 280.885 92.523 283.15 95.45 286.873C96.47 292.507 97.363 298.16 98.136 303.831C95.951 301.548 93.255 300.014 90.161 299.261C90.068 299.238 90.016 299.376 90.111 299.403C93.289 300.318 96.023 302.097 98.199 304.584C98.214 304.601 98.232 304.61 98.249 304.622C98.517 306.617 98.769 308.614 99.006 310.614C97.323 309.179 95.464 308.087 93.416 307.242C93.362 307.22 93.332 307.305 93.386 307.327C95.466 308.212 97.337 309.488 98.985 311.033C99.008 311.055 99.032 311.053 99.056 311.061C99.279 312.962 99.501 314.864 99.693 316.769C96.627 313.074 92.835 310.4 88.35 308.67C88.262 308.636 88.217 308.77 88.302 308.807C92.663 310.704 96.508 313.708 99.481 317.409C99.562 317.511 99.669 317.527 99.763 317.497C100.052 320.418 100.311 323.344 100.526 326.275C100.529 326.315 100.595 326.319 100.592 326.278C100.42 323.278 100.211 320.279 99.968 317.281Z" fill="#0C5E62"/>
<path d="M89.2231 271.855C86.9031 270.261 83.9561 269.58 81.1881 269.35C81.1211 269.344 81.1161 269.443 81.1811 269.452C84.0611 269.88 86.4801 270.922 89.1261 272.047C89.2401 272.096 89.3221 271.924 89.2231 271.855Z" fill="#0C5E62"/>
<path d="M90.8461 307.796C89.0111 306.694 86.9171 306.072 84.8141 305.733C84.7411 305.721 84.7341 305.835 84.8061 305.847C86.9411 306.234 88.8321 306.994 90.7731 307.94C90.8551 307.98 90.9241 307.843 90.8461 307.796Z" fill="#0C5E62"/>
<path d="M137.6 284.101C132.022 288.022 126.67 292.545 122.12 297.633C117.27 303.056 113.733 309.212 111.263 316.044C106.203 330.04 103.429 345.202 103.176 360.077C103.034 368.416 103.776 376.69 105.56 384.84C105.625 385.136 106.068 385.052 106.023 384.753C103.842 370.413 103.922 355.78 106.265 341.467C108.564 327.424 112.172 312.145 121.099 300.733C125.96 294.518 132.02 289.629 138.012 284.576C138.327 284.31 137.924 283.873 137.6 284.101Z" fill="#0C5E62"/>
<path d="M105.145 349.964C105.145 349.964 109.738 342.229 116.429 335.54C123.119 328.851 128.755 324.097 129.624 319.673C130.494 315.249 122.922 311.991 122.922 311.991C122.922 311.991 132.181 313.653 134.714 309.768C137.247 305.883 138.47 283.377 138.47 283.377C138.47 283.377 121.626 295.403 113.778 312.26C105.931 329.117 105.145 349.964 105.145 349.964Z" fill="#0C5E62"/>
<path d="M132.643 289.146C125.556 296.107 118.423 303.525 114.249 312.67C112.818 315.805 111.601 319.057 110.528 322.37C110.525 322.375 110.525 322.38 110.523 322.385C110.308 323.05 110.09 323.714 109.887 324.384C109.867 324.417 109.856 324.455 109.853 324.493C107.79 331.323 106.331 338.386 105.068 345.285C105.06 345.33 105.127 345.353 105.137 345.307C105.863 341.795 106.663 338.25 107.558 334.715C107.59 334.716 107.624 334.71 107.659 334.695C109.092 334.093 110.533 333.716 112.079 333.573C112.18 333.564 112.172 333.389 112.07 333.394C110.577 333.466 109.116 333.727 107.698 334.192C108.514 331.004 109.401 327.826 110.398 324.692C113.65 323.895 117.044 323.466 120.388 323.386C120.422 323.385 120.428 323.334 120.392 323.332C117.021 323.175 113.853 323.466 110.569 324.166C110.742 323.628 110.924 323.094 111.103 322.558C113.299 322.058 115.504 321.637 117.751 321.432C117.791 321.428 117.788 321.359 117.747 321.36C115.547 321.419 113.379 321.651 111.238 322.151C112.154 319.44 113.145 316.766 114.244 314.161C115.153 312.007 116.233 309.961 117.424 307.986C119.225 307.578 120.971 307.19 122.816 307.025C122.867 307.02 122.862 306.939 122.811 306.935C121.136 306.826 119.39 306.952 117.77 307.433C118.656 306.002 119.587 304.6 120.583 303.243C124.36 302.406 128.19 301.63 132.053 302.356C132.12 302.368 132.144 302.256 132.078 302.239C128.4 301.272 124.749 301.83 121.089 302.554C121.488 302.023 121.897 301.498 122.31 300.976C124.629 300.259 126.935 299.912 129.367 299.868C129.417 299.867 129.425 299.795 129.374 299.79C127.154 299.578 124.939 299.793 122.794 300.374C125.917 296.494 129.366 292.851 132.776 289.246C132.934 289.079 132.811 288.981 132.643 289.146Z" fill="#0C5E62"/>
<path d="M132.454 304.488C131.345 304.37 130.218 304.246 129.104 304.371C128.969 304.386 128.981 304.606 129.116 304.61C130.225 304.642 131.333 304.56 132.443 304.62C132.528 304.625 132.539 304.497 132.454 304.488Z" fill="#0C5E62"/>
<path d="M120.331 326.319C118.561 326.297 116.793 326.773 115.14 327.361C115.098 327.376 115.122 327.445 115.164 327.435C116.879 327.027 118.613 326.861 120.344 326.576C120.485 326.552 120.479 326.32 120.331 326.319Z" fill="#0C5E62"/>
<path d="M116.697 318.776C115.979 318.738 115.201 318.865 114.493 318.975C114.42 318.987 114.424 319.105 114.5 319.106C115.216 319.118 116.003 319.138 116.709 319.002C116.834 318.979 116.828 318.783 116.697 318.776Z" fill="#0C5E62"/>
<path d="M55.768 307.982C61.188 309.866 66.565 312.289 71.423 315.355C76.601 318.623 80.886 322.787 84.464 327.745C91.794 337.902 97.544 349.531 101.187 361.511C103.229 368.227 104.541 375.094 104.981 382.102C104.997 382.357 104.619 382.391 104.586 382.138C103.036 370.029 99.59 358.205 94.385 347.163C89.278 336.33 82.827 324.799 72.965 317.626C67.595 313.72 61.56 311.164 55.544 308.46C55.228 308.319 55.453 307.873 55.768 307.982Z" fill="#0C5E62"/>
<path d="M97.257 353.784C97.257 353.784 91.752 348.586 84.792 344.719C77.832 340.853 72.172 338.307 70.446 334.928C68.72 331.549 74.094 327.162 74.094 327.162C74.094 327.162 66.985 330.647 64.037 328.088C61.089 325.529 54.897 307.598 54.897 307.598C54.897 307.598 71.308 313.437 81.555 325.266C91.803 337.095 97.257 353.784 97.257 353.784Z" fill="#0C5E62"/>
<path d="M96.402 350.085C88.194 334.679 77.242 320.741 62.235 311.542C62.228 311.538 62.221 311.548 62.228 311.552C66.179 314.069 69.82 316.973 73.212 320.148C70.175 320.064 67.082 320.548 64.389 322.01C64.329 322.042 64.372 322.123 64.434 322.102C67.436 321.087 70.32 320.42 73.512 320.568C73.556 320.57 73.584 320.547 73.615 320.53C74.148 321.035 74.673 321.548 75.193 322.066C73.614 322.134 72.017 322.357 70.478 322.692C70.436 322.701 70.449 322.765 70.491 322.757C72.156 322.435 73.781 322.323 75.471 322.346C78.221 325.109 80.783 328.066 83.212 331.135C82.116 330.975 80.966 331.068 79.915 331.374C79.837 331.397 79.857 331.509 79.939 331.498C81.135 331.347 82.271 331.366 83.458 331.45C83.908 332.022 84.362 332.59 84.801 333.17C81.426 332.967 78.12 333.291 74.841 334.138C74.793 334.15 74.806 334.225 74.856 334.215C78.238 333.551 81.649 333.339 85.086 333.55C85.505 334.105 85.901 334.676 86.311 335.238C84.297 335.177 82.345 335.428 80.382 335.917C80.307 335.936 80.329 336.053 80.405 336.035C82.425 335.575 84.478 335.459 86.542 335.557C88.308 337.99 89.999 340.476 91.624 342.993C90.763 342.816 89.86 342.912 89.022 343.15C88.977 343.163 88.989 343.227 89.036 343.221C90.002 343.108 90.904 343.233 91.852 343.354C93.314 345.63 94.726 347.928 96.081 350.239C96.196 350.435 96.511 350.289 96.402 350.085Z" fill="#0C5E62"/>
<path d="M83.6339 337.305C82.0289 337.168 80.3989 337.42 78.8659 337.888C78.8219 337.901 78.8329 337.968 78.8799 337.959C80.4579 337.668 82.0219 337.559 83.6209 337.473C83.7269 337.468 83.7459 337.315 83.6339 337.305Z" fill="#0C5E62"/>
<path d="M69.3189 318.531C68.5929 318.448 67.8369 318.543 67.1199 318.659C67.0349 318.673 67.0609 318.798 67.1449 318.789C67.8679 318.712 68.5809 318.739 69.3039 318.717C69.4229 318.714 69.4409 318.545 69.3189 318.531Z" fill="#0C5E62"/>
<path d="M118.424 404.73H81.3799L86.6619 366.038L88.0119 356.117H111.792L113.142 366.038L118.424 404.73Z" fill="#ACC9CB"/>
<path d="M113.142 366.038H86.6619L88.0119 356.117H111.792L113.142 366.038Z" fill="#0C5E62"/>
<path d="M115.193 352.676H84.6108V361.078H115.193V352.676Z" fill="#ACC9CB"/>
<path d="M38.6169 404.812L91.4629 404.569L144.309 404.48L250 404.312L355.691 404.479L408.537 404.566L461.383 404.812L408.537 405.057L355.691 405.144L250 405.311L144.309 405.143L91.4629 405.055L38.6169 404.812Z" fill="#0C5E62"/>
<path d="M331.965 79.041H168.015C158.86 79.041 151.431 86.596 151.431 95.936V433.447C151.431 442.767 158.86 450.342 168.015 450.342H331.965C341.13 450.342 348.569 442.768 348.569 433.447V95.935C348.569 86.596 341.13 79.041 331.965 79.041ZM338.201 423.011C338.201 431.895 331.548 439.081 323.343 439.081H176.666C168.442 439.081 161.789 431.894 161.789 423.011V108.727C161.789 90.63 168.442 89.748 176.666 89.748H206.042C207.749 89.748 209.146 91.688 209.146 94.093V95.131C209.146 100.766 212.23 100.785 216.022 100.785H283.968C287.789 100.785 290.844 100.766 290.844 95.131V94.093C290.844 91.688 292.221 89.748 293.957 89.748H323.343C331.548 89.748 338.201 92.153 338.201 108.727V423.011Z" fill="#0C5E62"/>
<path d="M259.263 93.7451H240.729C240.097 93.7451 239.584 93.2331 239.584 92.6001C239.584 91.9681 240.097 91.4551 240.729 91.4551H259.263C259.896 91.4551 260.408 91.9671 260.408 92.6001C260.408 93.2331 259.896 93.7451 259.263 93.7451Z" fill="white"/>
<path d="M338.204 108.727V423.011C338.204 431.895 331.551 439.081 323.346 439.081H176.669C168.445 439.081 161.792 431.894 161.792 423.011V108.727C161.792 90.63 168.445 89.748 176.669 89.748H206.045C207.752 89.748 209.149 91.688 209.149 94.093V95.131C209.149 100.766 212.233 100.785 216.025 100.785H283.971C287.792 100.785 290.847 100.766 290.847 95.131V94.093C290.847 91.688 292.224 89.748 293.96 89.748H323.346C331.551 89.748 338.204 92.153 338.204 108.727Z" fill="white"/>
<path d="M338.199 108.727V132.178H161.787V108.727C161.787 90.63 168.44 89.748 176.664 89.748H206.05C207.757 89.748 209.153 91.688 209.153 94.093V95.131C209.153 100.766 212.237 100.785 216.02 100.785H283.966C287.787 100.785 290.852 100.766 290.852 95.131V94.093C290.852 91.688 292.229 89.748 293.965 89.748H323.341C331.546 89.748 338.199 92.153 338.199 108.727Z" fill="#0C5E62"/>
<path d="M179.648 120.729L174.436 115.845L179.648 110.963L180.457 111.824L176.165 115.845L180.457 119.868L179.648 120.729Z" fill="white"/>
<path d="M325.569 113.83C325.569 114.396 325.11 114.855 324.544 114.855C323.978 114.855 323.519 114.396 323.519 113.83C323.519 113.264 323.978 112.805 324.544 112.805C325.11 112.804 325.569 113.263 325.569 113.83Z" fill="white"/>
<path d="M325.569 117.476C325.569 118.042 325.11 118.501 324.544 118.501C323.978 118.501 323.519 118.042 323.519 117.476C323.519 116.91 323.978 116.451 324.544 116.451C325.11 116.451 325.569 116.91 325.569 117.476Z" fill="white"/>
<path d="M325.569 121.123C325.569 121.689 325.11 122.148 324.544 122.148C323.978 122.148 323.519 121.689 323.519 121.123C323.519 120.557 323.978 120.098 324.544 120.098C325.11 120.098 325.569 120.557 325.569 121.123Z" fill="white"/>
<path d="M200.976 96.8067C200.881 96.9007 200.787 96.9947 200.692 97.0887C200.638 97.1427 200.585 97.1967 200.531 97.2507C199.768 96.5107 198.86 96.1157 197.797 96.1157C196.734 96.1157 195.826 96.5097 195.058 97.2537C195.008 97.2007 194.957 97.1467 194.905 97.0937C194.812 96.9997 194.718 96.9057 194.625 96.8117C194.623 96.8097 194.619 96.8087 194.617 96.8067C194.617 96.8047 194.617 96.8017 194.617 96.7997C194.624 96.7937 194.631 96.7887 194.638 96.7827C194.757 96.6767 194.874 96.5667 194.997 96.4647C195.252 96.2547 195.531 96.0807 195.827 95.9357C196.177 95.7637 196.543 95.6367 196.927 95.5657C197.109 95.5327 197.293 95.5157 197.477 95.4927C197.54 95.4847 197.946 95.4837 197.958 95.4847C198.083 95.4937 198.208 95.4997 198.333 95.5127C198.679 95.5497 199.015 95.6337 199.342 95.7537C199.579 95.8407 199.806 95.9477 200.025 96.0727C200.256 96.2057 200.474 96.3567 200.677 96.5287C200.779 96.6157 200.877 96.7077 200.977 96.7987C200.976 96.8017 200.976 96.8037 200.976 96.8067Z" fill="white"/>
<path d="M195.959 98.1426C195.809 97.9936 195.662 97.8476 195.51 97.6976C196.021 97.1966 196.625 96.8776 197.335 96.7816C198.396 96.6376 199.308 96.9606 200.08 97.6916C199.928 97.8436 199.78 97.9906 199.63 98.1396C199.122 97.6466 198.511 97.3806 197.795 97.3806C197.08 97.3816 196.47 97.6476 195.959 98.1426Z" fill="white"/>
<path d="M199.182 98.5898C199.034 98.7378 198.886 98.8858 198.736 99.0358C198.478 98.7848 198.164 98.6458 197.796 98.6458C197.429 98.6468 197.116 98.7838 196.855 99.0378C196.706 98.8888 196.558 98.7408 196.409 98.5928C197.119 97.8488 198.396 97.7888 199.182 98.5898Z" fill="white"/>
<path d="M198.198 99.4401C198.198 99.6631 198.018 99.8431 197.795 99.8431C197.572 99.8431 197.392 99.6631 197.392 99.4401C197.392 99.2171 197.572 99.0371 197.795 99.0371C198.018 99.0371 198.198 99.2181 198.198 99.4401Z" fill="white"/>
<path d="M173.293 97.6631C173.293 97.0171 173.816 96.4941 174.462 96.4941C175.108 96.4941 175.631 97.0171 175.631 97.6631C175.631 98.3091 175.108 98.8321 174.462 98.8321C173.817 98.8331 173.293 98.3091 173.293 97.6631Z" fill="white"/>
<path d="M176.976 97.6631C176.976 97.0171 177.499 96.4941 178.145 96.4941C178.791 96.4941 179.314 97.0171 179.314 97.6631C179.314 98.3091 178.791 98.8321 178.145 98.8321C177.499 98.8331 176.976 98.3091 176.976 97.6631Z" fill="white"/>
<path d="M180.658 97.6631C180.658 97.0171 181.181 96.4941 181.827 96.4941C182.473 96.4941 182.996 97.0171 182.996 97.6631C182.996 98.3091 182.473 98.8321 181.827 98.8321C181.182 98.8331 180.658 98.3091 180.658 97.6631Z" fill="white"/>
<path d="M184.341 97.6631C184.341 97.0171 184.864 96.4941 185.51 96.4941C186.156 96.4941 186.679 97.0171 186.679 97.6631C186.679 98.3091 186.156 98.8321 185.51 98.8321C184.864 98.8331 184.341 98.3091 184.341 97.6631Z" fill="white"/>
<path d="M188.023 97.6631C188.023 97.0171 188.546 96.4941 189.192 96.4941C189.837 96.4941 190.361 97.0171 190.361 97.6631C190.361 98.3091 189.837 98.8321 189.192 98.8321C188.547 98.8331 188.023 98.3091 188.023 97.6631Z" fill="white"/>
<path d="M324.725 96.0488H315.693V99.9728H324.725V96.0488Z" stroke="white" stroke-width="0.5" stroke-miterlimit="10"/>
<path d="M322.375 96.5566H316.24V99.4676H322.375V96.5566Z" fill="white"/>
<path d="M325.82 96.832H324.974V99.19H325.82V96.832Z" fill="white"/>
<path d="M188.596 419.869H187.255V426.028H184.748V422.89H180.311V426.028H177.804V419.869H176.463L182.529 413.6L188.596 419.869Z" fill="#EBEBEB"/>
<path d="M323.542 413.6H308.92V415.689H323.542V413.6Z" fill="#EBEBEB"/>
<path d="M323.542 418.77H308.92V420.859H323.542V418.77Z" fill="#EBEBEB"/>
<path d="M323.542 423.939H308.92V426.028H323.542V423.939Z" fill="#EBEBEB"/>
<path d="M254.157 418.984L250 423.421L245.843 418.984L246.576 418.295L250 421.949L253.424 418.295L254.157 418.984Z" fill="#EBEBEB"/>
<path d="M257.054 420.452C257.054 424.348 253.896 427.506 250 427.506C246.104 427.506 242.946 424.348 242.946 420.452C242.946 416.556 246.104 413.398 250 413.398C253.896 413.398 257.054 416.556 257.054 420.452Z" stroke="#EBEBEB" stroke-miterlimit="10"/>
<path d="M234.02 117.478C234.033 114.91 236.186 112.822 238.781 112.809C239.922 112.809 240.96 113.185 241.777 113.821C242.089 114.08 242.14 114.535 241.907 114.859C241.648 115.183 241.168 115.235 240.869 115.002C240.298 114.535 239.585 114.289 238.781 114.289C237.886 114.289 237.056 114.652 236.446 115.223C235.862 115.819 235.499 116.598 235.499 117.48C235.499 118.362 235.862 119.167 236.446 119.737C237.056 120.308 237.886 120.671 238.781 120.671C239.585 120.671 240.286 120.424 240.869 119.958C241.167 119.737 241.648 119.79 241.907 120.101C242.14 120.425 242.089 120.892 241.777 121.139C240.96 121.775 239.922 122.151 238.781 122.151C236.186 122.148 234.033 120.06 234.02 117.478Z" fill="white"/>
<path d="M244.427 121.435V113.782C244.427 113.38 244.739 113.068 245.14 113.068C245.542 113.068 245.867 113.38 245.867 113.782V116.895H249.227V113.782C249.227 113.38 249.538 113.068 249.94 113.068C250.342 113.068 250.666 113.38 250.666 113.782V121.435C250.666 121.837 250.342 122.149 249.94 122.149C249.538 122.149 249.227 121.838 249.227 121.435V118.322H245.867V121.435C245.867 121.837 245.543 122.149 245.14 122.149C244.739 122.148 244.427 121.837 244.427 121.435Z" fill="white"/>
<path d="M257.415 120.008H254.264L253.628 121.694C253.512 121.98 253.239 122.148 252.954 122.148C252.863 122.148 252.785 122.135 252.707 122.109C252.331 121.966 252.149 121.551 252.279 121.175L255.145 113.535C255.262 113.25 255.547 113.068 255.833 113.081C256.132 113.068 256.403 113.25 256.521 113.535L259.387 121.175C259.517 121.551 259.335 121.966 258.959 122.109C258.893 122.135 258.802 122.148 258.713 122.148C258.427 122.148 258.154 121.98 258.051 121.694L257.415 120.008ZM256.884 118.581L255.833 115.792L254.782 118.581H256.884Z" fill="white"/>
<path d="M265.423 114.507H263.36V121.433C263.36 121.835 263.048 122.147 262.647 122.147C262.257 122.147 261.933 121.836 261.933 121.433V114.507H259.884C259.482 114.507 259.17 114.17 259.17 113.78C259.17 113.378 259.482 113.066 259.884 113.066H265.423C265.812 113.066 266.136 113.378 266.136 113.78C266.136 114.17 265.812 114.507 265.423 114.507Z" fill="white"/>
<path d="M54.0081 259.708H276.9V174.543H54.0081H54.0071V259.708H54.0081Z" fill="#ACC9CB"/>
<path d="M259.122 280.995V259.707H241.089L259.122 280.995Z" fill="#ACC9CB"/>
<path d="M263.733 189.27H67.1741V190.888H263.733V189.27Z" fill="white"/>
<path d="M221.49 198.008H67.1741V199.626H221.49V198.008Z" fill="white"/>
<path d="M246.999 215.486H67.1741V217.104H246.999V215.486Z" fill="white"/>
<path d="M263.733 224.225H67.1741V225.843H263.733V224.225Z" fill="white"/>
<path d="M263.733 232.963H67.1741V234.581H263.733V232.963Z" fill="white"/>
<path d="M207.362 241.703H67.1741V243.321H207.362V241.703Z" fill="white"/>
<path d="M445.992 301.518H223.1V376.627H445.992V301.518Z" fill="#0C5E62"/>
<path d="M240.877 397.914V376.627H258.91L240.877 397.914Z" fill="#0C5E62"/>
<path d="M421.772 340.734H236.531V342.352H421.772V340.734Z" fill="white"/>
<path d="M406.122 349.473H236.531V351.091H406.122V349.473Z" fill="white"/>
<path d="M410.685 323.256H236.531V324.874H410.685V323.256Z" fill="white"/>
<path d="M430.56 314.518H236.531V316.136H430.56V314.518Z" fill="white"/>
<path d="M412.393 358.213H236.531V359.831H412.393V358.213Z" fill="white"/>
<path d="M397.411 225.322C392.682 244.559 381.222 274.445 371.097 274.285C361.854 274.139 341.235 257.75 332.602 252.381C323.914 246.978 343.337 225.849 348.289 229.274C355.96 234.58 367.444 244.051 369.384 243.43C371.803 242.655 374.877 236.708 388.666 219.17C394.309 211.994 399.425 217.133 397.411 225.322Z" fill="#F7A9A0"/>
<path d="M339.003 221.119C334.932 219.679 330.378 217.703 325.854 217.788C321.33 217.873 317.574 223.846 317.574 225.555C317.574 227.265 319.281 237.932 323.805 237.932C328.329 237.932 325.598 229.738 325.768 228.799C325.939 227.86 326.109 226.659 326.963 226.747C327.816 226.835 342.754 233.92 342.754 233.92L339.003 221.119Z" fill="#F7A9A0"/>
<path d="M338.714 221.743C338.458 221.743 326.337 216.963 321.813 217.048C317.289 217.133 313.533 223.106 313.533 224.816C313.533 226.526 315.24 237.193 319.764 237.193C324.288 237.193 321.557 228.999 321.727 228.06C321.898 227.121 322.068 225.92 322.922 226.009C323.776 226.097 338.713 233.182 338.713 233.182L338.714 221.743Z" fill="#F7A9A0"/>
<path d="M321.3 236.619C321.858 235.904 321.954 234.828 322.053 233.946C322.162 232.983 322.081 232.004 321.889 231.057C321.721 230.234 321.37 229.415 321.34 228.569C321.313 227.787 321.596 226.857 321.971 226.177C322.32 225.543 322.985 225.759 323.556 225.961C324.398 226.258 325.218 226.677 326.016 227.073C326.881 227.501 327.736 227.95 328.593 228.393C329.474 228.848 330.403 229.271 331.22 229.837C331.281 229.879 331.241 229.987 331.164 229.96C330.373 229.685 329.626 229.283 328.869 228.928C328.01 228.525 327.148 228.128 326.281 227.742C325.471 227.382 324.68 226.978 323.864 226.632C323.576 226.51 323 226.201 322.672 226.275C322.326 226.353 322.156 227.201 322.079 227.477C321.837 228.344 321.997 229.079 322.236 229.922C322.466 230.733 322.638 231.56 322.704 232.402C322.765 233.177 322.739 234.008 322.515 234.759C322.3 235.481 321.81 236.064 321.437 236.705C321.383 236.794 321.237 236.699 321.3 236.619Z" fill="#0C5E62"/>
<path d="M353.064 233.618C353.064 233.618 340.527 222.192 337.917 219.923C332.682 215.371 310.631 206.364 307.558 206.038C304.485 205.712 303.376 212.013 318.341 218.557C326.229 222.006 327.633 226.524 327.482 229.028C327.332 231.532 324.942 236.198 320.731 236.084C316.52 235.97 313.789 229.825 309.919 229.142C306.049 228.459 308.604 235.551 311.336 239.648C314.067 243.745 319.024 247.124 322.666 248.49C326.308 249.856 337.579 254.712 337.579 254.712L353.064 233.618Z" fill="#F7A9A0"/>
<path d="M315.507 233.123C317.092 234.351 318.889 235.942 320.976 236.021C323.133 236.102 324.535 234.701 325.536 232.944C326.546 231.172 327.132 229.15 326.641 227.121C326.199 225.293 325.11 223.678 323.756 222.398C322.08 220.814 320.097 219.637 318.051 218.602C317.96 218.555 318.04 218.423 318.135 218.465C320.073 219.331 326.1 221.799 327.305 227.122C327.797 229.297 327.144 231.237 326.132 233.056C325.199 234.732 323.841 236.349 321.799 236.514C319.311 236.716 317.169 234.693 315.382 233.182C315.304 233.115 315.424 233.059 315.507 233.123Z" fill="#0C5E62"/>
<path d="M353.064 232.02L334.309 261.131C334.309 261.131 364.063 277.801 372.48 275.114C380.898 272.427 393.614 248.295 398.85 227.12C404.086 205.945 391.088 214.056 386.042 220.599C380.996 227.143 370.049 242.271 369.451 242.072C368.856 241.873 353.064 232.02 353.064 232.02Z" fill="#ACC9CB"/>
<path d="M355.28 271.295C362.056 274.06 368.712 276.072 372.184 275.198C372.292 275.174 372.388 275.138 372.483 275.114C380.899 272.42 393.612 248.298 398.856 227.121C399.79 223.35 400.137 220.501 400.065 218.418C400.065 218.31 400.053 218.214 400.053 218.107C400.041 217.939 400.029 217.772 400.005 217.604C400.005 217.532 399.993 217.472 399.981 217.4C399.969 217.244 399.945 217.089 399.921 216.945L355.28 271.295Z" fill="#0C5E62"/>
<path d="M344.781 258.269C345.373 257.235 345.975 256.207 346.58 255.181C347.79 253.126 355.053 240.935 357.921 237.232C357.998 237.133 358.147 237.245 358.097 237.353C356.097 241.613 348.568 253.583 347.314 255.555C346.673 256.564 346.029 257.571 345.376 258.573C344.719 259.581 343.946 260.508 343.293 261.517C343.229 261.616 343.065 261.538 343.126 261.432C343.721 260.403 344.189 259.302 344.781 258.269Z" fill="#0C5E62"/>
<path d="M440.496 301.517H367.153C366.203 300.414 383.637 224.979 391.499 214.939C393.182 212.792 398.663 212.248 403.312 212.874C404.6 213.04 405.821 213.304 406.889 213.643C406.911 213.654 406.954 213.665 407.009 213.677C408.087 214.038 409.001 214.484 409.629 214.993C422.472 225.463 433.353 260.641 435.788 271.518C439.822 289.438 440.496 301.517 440.496 301.517Z" fill="#ACC9CB"/>
<path d="M437.67 280.699C437.28 280.909 436.87 281.099 436.45 281.249C435.34 281.649 434.12 281.709 432.97 281.439C431.81 281.179 430.82 280.409 430.07 279.519C429.32 278.619 428.72 277.619 428.12 276.619C427.8 276.079 427.48 275.549 427.14 275.029C427.1 274.969 427.06 274.909 427.02 274.859C426.77 274.469 426.5 274.089 426.21 273.729C425.5 272.819 424.63 272.029 423.6 271.529C423.09 271.279 422.54 271.109 421.98 271.009C421.42 270.899 420.85 270.879 420.29 270.979C419.16 271.179 418.17 271.819 417.32 272.589C417.26 272.639 417.2 272.699 417.15 272.749C417.08 272.809 417.02 272.869 416.96 272.939C415.43 274.419 414.18 276.209 412.78 277.849C411.29 279.609 409.6 281.349 407.4 282.279C406.31 282.749 405.12 282.969 403.94 282.939C403.35 282.929 402.75 282.869 402.17 282.699C401.6 282.529 401.05 282.259 400.56 281.929C399.57 281.249 398.81 280.309 398.18 279.319C397.55 278.319 397.05 277.259 396.6 276.189C395.7 274.029 395.01 271.809 394.27 269.609C393.7 267.919 393.12 266.239 392.4 264.619C392.35 264.509 392.3 264.399 392.25 264.289C392.08 263.909 391.89 263.529 391.7 263.159C391.16 262.139 390.54 261.149 389.77 260.299C389 259.459 388.06 258.749 386.98 258.369C384.82 257.639 382.31 257.939 380.37 259.169C378.41 260.409 376.97 262.289 375.59 264.139C375.48 264.289 375.37 264.439 375.25 264.589C375.29 264.449 375.33 264.309 375.36 264.159C375.39 264.119 375.42 264.079 375.45 264.039C376.82 262.179 378.27 260.269 380.27 259.009C382.25 257.729 384.81 257.409 387.05 258.159C388.17 258.549 389.15 259.279 389.95 260.139C390.74 261.009 391.37 262.009 391.93 263.039C392.1 263.349 392.25 263.669 392.4 263.989C392.45 264.099 392.5 264.199 392.55 264.309C393.33 265.999 393.94 267.759 394.54 269.509C395.29 271.709 395.99 273.929 396.89 276.059C397.34 277.129 397.84 278.169 398.46 279.139C399.08 280.109 399.82 280.999 400.75 281.639C401.22 281.969 401.73 282.219 402.27 282.379C402.81 282.539 403.37 282.599 403.94 282.619C405.08 282.649 406.23 282.439 407.28 281.999C409.41 281.109 411.08 279.409 412.57 277.669C413.97 276.029 415.22 274.249 416.79 272.749C416.85 272.679 416.91 272.619 416.98 272.569C417.03 272.509 417.09 272.449 417.15 272.399C418.02 271.619 419.06 270.949 420.25 270.749C420.83 270.639 421.44 270.669 422.02 270.779C422.6 270.889 423.17 271.069 423.7 271.329C424.76 271.859 425.66 272.669 426.37 273.589C426.67 273.959 426.94 274.349 427.2 274.749C427.24 274.809 427.28 274.859 427.32 274.919C427.66 275.449 427.97 275.989 428.29 276.519C428.88 277.519 429.47 278.519 430.21 279.399C430.94 280.289 431.9 281.009 433.01 281.279C434.12 281.559 435.32 281.509 436.41 281.129C436.84 280.989 437.25 280.809 437.65 280.589C437.66 280.629 437.67 280.669 437.67 280.699ZM433.78 263.879C433.21 265.089 432.71 266.339 432.19 267.559C431.3 269.689 430.35 271.859 428.74 273.519C428.28 273.999 427.77 274.409 427.2 274.749C427.14 274.789 427.08 274.829 427.02 274.859C425.66 275.639 424.07 276.019 422.52 275.879C421.38 275.769 420.3 275.309 419.34 274.669C418.53 274.129 417.8 273.469 417.15 272.749C417.08 272.689 417.03 272.629 416.98 272.569C416.91 272.509 416.85 272.439 416.79 272.369C415.26 270.629 413.99 268.679 412.75 266.719C412.47 266.279 412.19 265.829 411.91 265.389C411.85 265.289 411.79 265.199 411.73 265.109C410.83 263.679 409.92 262.259 408.91 260.889C408.21 259.949 407.47 259.039 406.62 258.229C405.78 257.419 404.81 256.689 403.69 256.269C403.13 256.059 402.54 255.929 401.94 255.909C401.34 255.879 400.74 255.959 400.17 256.089C399.01 256.339 397.91 256.849 396.96 257.559C396.77 257.699 396.59 257.849 396.41 258.009C396.34 258.069 396.26 258.139 396.19 258.209C394.71 259.579 393.68 261.369 392.8 263.149C392.66 263.429 392.52 263.709 392.4 263.989C392.34 264.089 392.3 264.189 392.25 264.289C391.44 266.019 390.7 267.779 389.65 269.349C389.01 270.289 388.2 271.159 387.16 271.619C386.64 271.849 386.08 271.959 385.51 271.999C384.94 272.029 384.36 271.999 383.8 271.879C382.69 271.629 381.65 271.079 380.75 270.369C379.83 269.669 379.02 268.839 378.2 268.019C377.38 267.189 376.56 266.359 375.61 265.669C375.44 265.539 375.26 265.419 375.07 265.309C375.06 265.369 375.04 265.429 375.02 265.489C375.18 265.599 375.34 265.709 375.5 265.819C376.43 266.499 377.25 267.329 378.06 268.159C378.88 268.979 379.69 269.819 380.62 270.539C381.54 271.259 382.6 271.839 383.76 272.099C384.34 272.219 384.93 272.259 385.52 272.229C386.11 272.189 386.71 272.079 387.25 271.839C388.36 271.349 389.2 270.449 389.86 269.489C390.9 267.959 391.63 266.269 392.4 264.619C392.45 264.509 392.5 264.409 392.55 264.309C392.71 263.959 392.88 263.619 393.05 263.279C393.91 261.559 394.9 259.859 396.28 258.539C396.36 258.469 396.43 258.399 396.51 258.329C396.72 258.149 396.93 257.969 397.15 257.809C398.06 257.129 399.12 256.649 400.24 256.409C400.8 256.289 401.36 256.209 401.92 256.239C402.49 256.259 403.04 256.389 403.57 256.589C404.63 256.989 405.56 257.679 406.39 258.469C407.23 259.259 407.96 260.149 408.66 261.079C409.67 262.439 410.6 263.869 411.51 265.319C411.57 265.409 411.63 265.499 411.69 265.589C411.96 266.019 412.23 266.449 412.51 266.879C413.76 268.829 415.04 270.789 416.59 272.539C416.65 272.609 416.72 272.679 416.79 272.749C416.85 272.819 416.9 272.879 416.96 272.939C417.65 273.659 418.38 274.329 419.21 274.879C420.19 275.529 421.31 275.999 422.49 276.109C424.11 276.239 425.75 275.839 427.14 275.029C427.2 274.999 427.26 274.959 427.32 274.919C427.89 274.569 428.42 274.149 428.88 273.659C430.51 271.949 431.46 269.759 432.35 267.619C432.84 266.429 433.3 265.229 433.84 264.059C433.82 263.999 433.8 263.939 433.78 263.879ZM430.06 252.259C429.43 252.049 428.77 251.919 428.1 251.869C426.91 251.809 425.73 252.099 424.67 252.599C423.6 253.099 422.64 253.779 421.74 254.529C419.94 256.029 418.38 257.769 416.85 259.519C415.32 261.269 413.82 263.049 412.18 264.679C412.03 264.829 411.88 264.969 411.73 265.109C411.66 265.189 411.58 265.259 411.51 265.319C410.89 265.899 410.25 266.449 409.56 266.929C408.62 267.579 407.59 268.129 406.48 268.369C405.93 268.489 405.36 268.519 404.8 268.469C404.24 268.409 403.7 268.249 403.16 268.049C402.1 267.639 401.12 267.009 400.32 266.199C398.69 264.569 397.79 262.369 397.07 260.179C396.87 259.569 396.69 258.949 396.51 258.329C396.47 258.219 396.44 258.119 396.41 258.009C395.97 256.509 395.53 254.999 394.84 253.569C394.33 252.519 393.63 251.499 392.61 250.859C392.11 250.539 391.54 250.339 390.96 250.219C390.38 250.099 389.79 250.049 389.2 250.079C388.01 250.169 386.88 250.579 385.86 251.159C384.84 251.729 383.91 252.439 382.98 253.139C382.05 253.829 381.12 254.529 380.1 255.069C379.31 255.479 378.43 255.769 377.54 255.789C377.53 255.849 377.51 255.909 377.49 255.959C378.44 255.959 379.36 255.659 380.18 255.229C381.22 254.689 382.16 253.979 383.09 253.289C384.03 252.599 384.96 251.899 385.96 251.339C386.97 250.779 388.07 250.379 389.21 250.299C389.78 250.269 390.35 250.329 390.91 250.439C391.47 250.559 392.01 250.749 392.49 251.059C393.45 251.669 394.12 252.649 394.62 253.679C395.3 255.119 395.74 256.659 396.19 258.209C396.22 258.319 396.25 258.429 396.28 258.539C396.45 259.119 396.62 259.699 396.81 260.269C397.52 262.469 398.42 264.719 400.09 266.419C400.92 267.269 401.94 267.929 403.05 268.349C403.6 268.559 404.17 268.739 404.77 268.799C405.37 268.859 405.97 268.819 406.56 268.699C407.73 268.449 408.79 267.869 409.75 267.189C410.44 266.709 411.08 266.169 411.69 265.589C411.76 265.529 411.83 265.459 411.91 265.389L412.4 264.899C414.05 263.249 415.54 261.459 417.06 259.709C418.59 257.959 420.13 256.209 421.9 254.719C422.79 253.989 423.73 253.309 424.77 252.819C425.81 252.329 426.95 252.039 428.09 252.099C428.79 252.139 429.48 252.289 430.15 252.529C430.12 252.439 430.09 252.349 430.06 252.259Z" fill="white"/>
<path d="M416.195 234.405C412.854 254.016 396.389 290.696 385.664 294.149C373.247 298.146 330.141 284.367 321.681 278.172C318.314 275.706 336.262 253.989 340.449 255.53C358.002 261.988 373.562 265.302 375.821 263.766C379.292 261.407 393.453 241.12 402.657 228.534C414.221 212.721 417.694 225.606 416.195 234.405Z" fill="#F7A9A0"/>
<path d="M322.792 278.76C320.874 278.076 307.668 268.493 303.777 263.994C301.295 261.124 297.019 256.16 293.626 248.255C289.71 239.132 287.868 232.455 288.811 229.463C289.906 225.989 290.219 225.424 299.348 240.566C304.513 249.133 309.437 250.097 313.709 250.016C331.218 249.686 344.039 256.799 344.039 256.799C344.039 256.799 330.166 281.389 322.792 278.76Z" fill="#F7A9A0"/>
<path d="M324.014 242.606L307.784 249.408C306.878 249.788 305.592 249.447 304.918 248.652L280.579 219.787C279.905 218.992 280.097 218.04 281.004 217.661L297.242 210.856C298.148 210.476 299.431 210.81 300.097 211.608L324.436 240.473C325.109 241.267 324.921 242.226 324.014 242.606Z" fill="#ACC9CB"/>
<path d="M298.522 210.316L282.289 217.119C281.383 217.499 281.192 218.453 281.865 219.252L306.203 248.114C306.875 248.911 308.157 249.25 309.063 248.871L325.296 242.068C326.204 241.688 326.394 240.731 325.722 239.934L301.384 211.072C300.71 210.273 299.429 209.936 298.522 210.316ZM323.943 239.471C324.584 240.231 324.443 241.121 323.631 241.462L309.108 247.549C308.294 247.89 307.117 247.552 306.476 246.792L283.813 219.917C282.508 218.369 283.103 218.018 283.917 217.677L286.826 216.458C286.995 216.387 287.273 216.495 287.447 216.701L287.522 216.79C287.928 217.272 288.235 217.145 288.611 216.988L295.339 214.169C295.717 214.01 296.019 213.882 295.612 213.4L295.537 213.311C295.364 213.105 295.36 212.882 295.532 212.81L298.442 211.591C299.254 211.251 300.087 211.18 301.282 212.597L323.943 239.471Z" fill="#0C5E62"/>
<path d="M292.384 214.591L290.549 215.36C290.486 215.386 290.399 215.364 290.353 215.31C290.307 215.256 290.321 215.191 290.384 215.165L292.219 214.396C292.282 214.37 292.369 214.392 292.415 214.446C292.46 214.499 292.446 214.564 292.384 214.591Z" fill="white"/>
<path d="M301.28 212.597L323.943 239.472C324.584 240.232 324.443 241.122 323.631 241.463L309.108 247.55C308.294 247.891 307.117 247.553 306.476 246.793L283.813 219.918C282.508 218.37 283.103 218.019 283.917 217.678L286.826 216.459C286.995 216.388 287.273 216.496 287.447 216.702L287.522 216.791C287.928 217.273 288.235 217.146 288.611 216.989L295.339 214.169C295.717 214.01 296.018 213.882 295.612 213.4L295.537 213.311C295.364 213.105 295.36 212.882 295.532 212.81L298.441 211.591C299.253 211.25 300.085 211.18 301.28 212.597Z" fill="white"/>
<path d="M301.279 212.597L302.97 214.602L285.503 221.923L283.812 219.918C282.507 218.37 283.102 218.019 283.916 217.678L286.826 216.459C286.995 216.388 287.273 216.496 287.446 216.702L287.521 216.791C287.927 217.273 288.234 217.146 288.609 216.99L295.337 214.17C295.715 214.011 296.017 213.883 295.611 213.401L295.536 213.312C295.363 213.106 295.359 212.883 295.531 212.811L298.44 211.592C299.252 211.25 300.084 211.18 301.279 212.597Z" fill="#0C5E62"/>
<path d="M286.446 220.202L285.578 220L285.742 219.367L285.884 219.407L285.749 219.929L286.464 220.095L286.446 220.202Z" fill="white"/>
<path d="M300.397 213.556C300.438 213.605 300.426 213.663 300.369 213.686C300.313 213.709 300.234 213.689 300.194 213.641C300.153 213.593 300.166 213.534 300.222 213.511C300.277 213.488 300.356 213.508 300.397 213.556Z" fill="white"/>
<path d="M300.66 213.869C300.701 213.917 300.689 213.976 300.632 213.999C300.575 214.022 300.497 214.002 300.456 213.954C300.415 213.906 300.428 213.847 300.484 213.824C300.54 213.801 300.619 213.821 300.66 213.869Z" fill="white"/>
<path d="M300.923 214.18C300.964 214.228 300.952 214.287 300.896 214.31C300.84 214.333 300.761 214.313 300.72 214.265C300.679 214.217 300.691 214.158 300.748 214.135C300.803 214.112 300.882 214.132 300.923 214.18Z" fill="white"/>
<path d="M286.833 217.272C286.83 217.284 286.828 217.296 286.825 217.308C286.824 217.315 286.822 217.322 286.821 217.328C286.692 217.296 286.574 217.3 286.468 217.344C286.363 217.388 286.301 217.459 286.279 217.555C286.27 217.553 286.261 217.55 286.252 217.548C286.236 217.544 286.22 217.54 286.204 217.536H286.203L286.202 217.535L286.203 217.533C286.207 217.519 286.211 217.505 286.216 217.491C286.226 217.462 286.241 217.436 286.26 217.411C286.282 217.382 286.309 217.356 286.342 217.334C286.358 217.324 286.375 217.314 286.391 217.305C286.397 217.302 286.438 217.284 286.438 217.284C286.451 217.28 286.464 217.275 286.477 217.271C286.514 217.26 286.553 217.253 286.594 217.25C286.624 217.248 286.654 217.247 286.685 217.249C286.718 217.251 286.75 217.255 286.782 217.261C286.8 217.264 286.816 217.268 286.833 217.272Z" fill="white"/>
<path d="M286.433 217.593C286.407 217.586 286.382 217.58 286.356 217.574C286.37 217.51 286.407 217.458 286.471 217.42C286.566 217.364 286.679 217.353 286.808 217.384C286.804 217.403 286.8 217.422 286.796 217.441C286.71 217.42 286.631 217.423 286.56 217.452C286.489 217.482 286.447 217.53 286.433 217.593Z" fill="white"/>
<path d="M286.784 217.499C286.78 217.518 286.776 217.537 286.772 217.556C286.728 217.545 286.687 217.546 286.651 217.562C286.615 217.577 286.594 217.602 286.586 217.635C286.56 217.628 286.535 217.622 286.51 217.615C286.526 217.521 286.648 217.463 286.784 217.499Z" fill="white"/>
<path d="M286.748 217.613C286.764 217.632 286.759 217.655 286.737 217.664C286.715 217.673 286.684 217.665 286.668 217.646C286.652 217.627 286.657 217.604 286.679 217.595C286.701 217.586 286.732 217.594 286.748 217.613Z" fill="white"/>
<path d="M284.154 218.495C284.107 218.44 284.121 218.373 284.185 218.347C284.249 218.32 284.339 218.343 284.385 218.398C284.432 218.453 284.418 218.52 284.354 218.546C284.29 218.573 284.201 218.55 284.154 218.495Z" fill="white"/>
<path d="M284.519 218.341C284.472 218.286 284.486 218.219 284.55 218.193C284.614 218.166 284.704 218.189 284.75 218.244C284.797 218.299 284.783 218.366 284.719 218.393C284.655 218.42 284.565 218.396 284.519 218.341Z" fill="white"/>
<path d="M284.883 218.19C284.836 218.135 284.85 218.068 284.914 218.041C284.978 218.014 285.068 218.037 285.114 218.093C285.16 218.148 285.146 218.215 285.082 218.241C285.019 218.268 284.93 218.245 284.883 218.19Z" fill="white"/>
<path d="M285.248 218.036C285.201 217.981 285.215 217.914 285.279 217.888C285.343 217.861 285.433 217.884 285.479 217.939C285.526 217.994 285.512 218.061 285.448 218.087C285.384 218.114 285.294 218.091 285.248 218.036Z" fill="white"/>
<path d="M285.612 217.884C285.565 217.829 285.579 217.762 285.644 217.736C285.708 217.709 285.797 217.732 285.844 217.787C285.891 217.842 285.877 217.909 285.813 217.935C285.749 217.962 285.659 217.939 285.612 217.884Z" fill="white"/>
<path d="M299.031 212.072L298.137 212.447L298.42 212.783L299.314 212.408L299.031 212.072Z" stroke="white" stroke-width="0.5" stroke-miterlimit="10"/>
<path d="M298.835 212.213L298.228 212.468L298.438 212.717L299.045 212.462L298.835 212.213Z" fill="white"/>
<path d="M299.366 212.295L299.282 212.33L299.112 212.129L299.196 212.094L299.366 212.295Z" fill="white"/>
<path d="M308.904 245.412L308.771 245.467L309.215 245.994L308.967 246.098L308.74 245.83L308.301 246.014L308.527 246.282L308.279 246.386L307.835 245.86L307.702 245.915L307.851 245.127L308.904 245.412Z" fill="#EBEBEB"/>
<path d="M321.964 239.453L320.516 240.06L320.365 239.882L321.813 239.275L321.964 239.453Z" fill="#EBEBEB"/>
<path d="M322.336 239.896L320.889 240.502L320.738 240.324L322.186 239.717L322.336 239.896Z" fill="#EBEBEB"/>
<path d="M322.709 240.339L321.261 240.945L321.111 240.767L322.559 240.16L322.709 240.339Z" fill="#EBEBEB"/>
<path d="M315.331 242.615L315.24 243.166L314.508 242.96L314.531 242.87L315.133 243.041L315.209 242.586L315.331 242.615Z" fill="#EBEBEB"/>
<path d="M315.724 242.62C316.005 242.953 315.92 243.354 315.534 243.516C315.148 243.678 314.608 243.539 314.327 243.205C314.046 242.872 314.131 242.471 314.517 242.309C314.903 242.148 315.443 242.287 315.724 242.62Z" stroke="#EBEBEB" stroke-miterlimit="10"/>
<path d="M291.595 217.668C291.411 217.448 291.474 217.18 291.73 217.071C291.843 217.024 291.973 217.013 292.1 217.033C292.149 217.042 292.187 217.079 292.188 217.116C292.186 217.154 292.142 217.179 292.096 217.171C292.006 217.155 291.917 217.163 291.838 217.197C291.749 217.234 291.693 217.3 291.674 217.374C291.659 217.449 291.679 217.531 291.743 217.606C291.807 217.682 291.901 217.735 292 217.76C292.102 217.783 292.21 217.78 292.299 217.743C292.379 217.71 292.43 217.66 292.454 217.595C292.468 217.564 292.519 217.548 292.567 217.564C292.613 217.582 292.642 217.624 292.629 217.658C292.594 217.746 292.518 217.821 292.405 217.869C292.147 217.977 291.783 217.888 291.595 217.668Z" fill="white"/>
<path d="M292.911 217.574L292.359 216.92C292.33 216.886 292.338 216.846 292.378 216.829C292.418 216.812 292.472 216.826 292.501 216.86L292.725 217.126L293.058 216.987L292.833 216.721C292.804 216.687 292.812 216.647 292.852 216.63C292.892 216.613 292.946 216.627 292.975 216.661L293.527 217.315C293.556 217.349 293.546 217.389 293.507 217.406C293.467 217.423 293.414 217.409 293.385 217.375L293.16 217.109L292.827 217.248L293.051 217.514C293.08 217.548 293.07 217.589 293.03 217.605C292.994 217.622 292.94 217.608 292.911 217.574Z" fill="white"/>
<path d="M294.094 216.914L293.782 217.045L293.841 217.216C293.85 217.245 293.835 217.271 293.807 217.283C293.798 217.287 293.789 217.289 293.78 217.29C293.732 217.293 293.685 217.265 293.67 217.228L293.403 216.456C293.394 216.427 293.409 216.399 293.438 216.389C293.467 216.375 293.507 216.38 293.539 216.399L294.374 216.933C294.414 216.96 294.426 217.003 294.399 217.031C294.394 217.036 294.386 217.041 294.377 217.045C294.349 217.057 294.309 217.054 294.279 217.034L294.094 216.914ZM293.939 216.814L293.634 216.619L293.731 216.901L293.939 216.814Z" fill="white"/>
<path d="M294.491 216.11L294.287 216.196L294.786 216.788C294.815 216.822 294.807 216.862 294.767 216.879C294.728 216.895 294.674 216.882 294.645 216.848L294.146 216.256L293.943 216.341C293.903 216.358 293.848 216.342 293.82 216.308C293.791 216.274 293.799 216.234 293.839 216.217L294.387 215.987C294.425 215.971 294.48 215.984 294.509 216.018C294.537 216.052 294.529 216.094 294.491 216.11Z" fill="white"/>
<path d="M296.874 232.342L309.366 227.107L306.51 223.719L294.018 228.954L296.874 232.342Z" fill="#ACC9CB"/>
<path d="M310.523 226.622L309.366 227.107L308.489 226.066L310.523 226.622Z" fill="#ACC9CB"/>
<path d="M306.342 224.669L295.281 229.305L295.227 229.24L306.288 224.605L306.342 224.669Z" fill="white"/>
<path d="M304.34 225.979L295.575 229.652L295.52 229.588L304.285 225.914L304.34 225.979Z" fill="white"/>
<path d="M306.312 226.093L296.161 230.347L296.107 230.283L306.258 226.029L306.312 226.093Z" fill="white"/>
<path d="M307.515 226.06L296.454 230.696L296.4 230.632L307.461 225.996L307.515 226.06Z" fill="white"/>
<path d="M307.808 226.408L296.747 231.044L296.693 230.979L307.754 226.344L307.808 226.408Z" fill="white"/>
<path d="M305.038 228.039L297.04 231.391L296.986 231.327L304.983 227.975L305.038 228.039Z" fill="white"/>
<path d="M303.621 240.342L316.113 235.107L313.256 231.719L300.764 236.955L303.621 240.342Z" fill="#ACC9CB"/>
<path d="M317.27 234.621L316.113 235.106L315.236 234.066L317.27 234.621Z" fill="#ACC9CB"/>
<path d="M313.089 232.669L302.028 237.305L301.974 237.241L313.035 232.605L313.089 232.669Z" fill="white"/>
<path d="M311.086 233.98L302.321 237.654L302.267 237.589L311.032 233.916L311.086 233.98Z" fill="white"/>
<path d="M313.059 234.093L302.907 238.348L302.853 238.283L313.005 234.029L313.059 234.093Z" fill="white"/>
<path d="M314.261 234.061L303.201 238.696L303.146 238.632L314.207 233.996L314.261 234.061Z" fill="white"/>
<path d="M314.555 234.408L303.494 239.044L303.439 238.98L314.5 234.344L314.555 234.408Z" fill="white"/>
<path d="M311.784 236.039L303.787 239.391L303.732 239.326L311.73 235.975L311.784 236.039Z" fill="white"/>
<path d="M304.831 219.872L292.339 225.107L289.929 222.249L302.421 217.014L304.831 219.872Z" fill="#0C5E62"/>
<path d="M291.183 225.591L292.339 225.106L291.462 224.066L291.183 225.591Z" fill="#0C5E62"/>
<path d="M300.371 218.676L291.158 222.537L291.104 222.472L300.317 218.611L300.371 218.676Z" fill="white"/>
<path d="M302.513 218.249L291.452 222.884L291.397 222.82L302.458 218.184L302.513 218.249Z" fill="white"/>
<path d="M302.806 218.595L291.745 223.231L291.69 223.167L302.751 218.531L302.806 218.595Z" fill="white"/>
<path d="M302.223 219.311L292.038 223.58L291.984 223.515L302.169 219.246L302.223 219.311Z" fill="white"/>
<path d="M303.392 219.291L292.331 223.927L292.277 223.863L303.338 219.227L303.392 219.291Z" fill="white"/>
<path d="M300.797 220.85L292.624 224.275L292.57 224.21L300.743 220.785L300.797 220.85Z" fill="white"/>
<path d="M307.009 222.453L294.517 227.689L292.73 225.569L305.221 220.334L307.009 222.453Z" fill="#0C5E62"/>
<path d="M293.36 228.173L294.517 227.688L293.64 226.648L293.36 228.173Z" fill="#0C5E62"/>
<path d="M305 221.228L293.959 225.855L293.905 225.791L304.946 221.164L305 221.228Z" fill="white"/>
<path d="M303.34 222.394L294.252 226.203L294.198 226.139L303.285 222.33L303.34 222.394Z" fill="white"/>
<path d="M304.546 222.359L294.545 226.551L294.491 226.486L304.491 222.295L304.546 222.359Z" fill="white"/>
<path d="M302.552 223.666L294.838 226.899L294.784 226.835L302.498 223.602L302.552 223.666Z" fill="white"/>
<path d="M313.742 230.439L301.25 235.674L298.731 232.687L311.223 227.451L313.742 230.439Z" fill="#DBDBDB"/>
<path d="M300.093 236.16L301.25 235.675L300.373 234.635L300.093 236.16Z" fill="#DBDBDB"/>
<path d="M311.276 229.626L300.83 234.005L300.776 233.94L311.222 229.562L311.276 229.626Z" fill="white"/>
<path d="M310.719 230.332L301.124 234.354L301.069 234.289L310.665 230.268L310.719 230.332Z" fill="white"/>
<path d="M310.087 229.185L300.244 233.311L300.19 233.246L310.033 229.121L310.087 229.185Z" fill="white"/>
<path d="M310.874 228.384L299.951 232.962L299.897 232.898L310.82 228.32L310.874 228.384Z" fill="white"/>
<path d="M311.353 230.537L301.417 234.701L301.362 234.637L311.298 230.473L311.353 230.537Z" fill="white"/>
<path d="M320.112 237.992L307.62 243.227L305.521 240.739L318.013 235.504L320.112 237.992Z" fill="#0C5E62"/>
<path d="M306.463 243.713L307.62 243.228L306.742 242.188L306.463 243.713Z" fill="#0C5E62"/>
<path d="M317.793 236.368L306.732 241.003L306.678 240.939L317.738 236.303L317.793 236.368Z" fill="white"/>
<path d="M318.086 236.714L307.025 241.35L306.971 241.285L318.032 236.65L318.086 236.714Z" fill="white"/>
<path d="M317.503 237.43L307.318 241.699L307.264 241.634L317.449 237.365L317.503 237.43Z" fill="white"/>
<path d="M318.672 237.411L307.611 242.046L307.557 241.982L318.618 237.346L318.672 237.411Z" fill="white"/>
<path d="M316.077 238.969L307.904 242.394L307.85 242.329L316.023 238.904L316.077 238.969Z" fill="white"/>
<path d="M311.576 249.946C315.987 250.012 301.648 241.063 301.431 236.043C301.214 231.023 306.106 232.602 309.963 235.436C323.351 245.274 333.455 244.794 340.244 254.196C347.033 263.598 311.576 249.946 311.576 249.946Z" fill="#F7A9A0"/>
<path d="M324.914 243.827C327.773 244.631 330.582 245.557 333.162 247.059C335.561 248.456 337.434 250.465 339.125 252.639C339.198 252.733 339.066 252.862 338.99 252.768C335.374 248.325 330.017 246.097 324.876 243.953C324.799 243.921 324.831 243.804 324.914 243.827Z" fill="#0C5E62"/>
<path d="M374.878 262.555C371.449 263.485 347.553 256.932 347.553 256.932L334.123 289.403C334.123 289.403 375.734 299.088 385.446 295.725C395.159 292.362 410.283 259.359 415.173 240.183C419.77 222.154 413.642 210.388 400.771 229.065C400.771 229.065 376.67 262.068 374.878 262.555Z" fill="#ACC9CB"/>
<path d="M385.96 294.727C394.1 290.559 404.137 268.744 406.068 264.464C407.304 261.724 408.434 258.939 409.542 256.144C411.761 250.55 413.803 244.892 415.747 239.199C415.78 239.102 415.923 239.146 415.899 239.245C414.831 243.639 413.54 247.992 412.051 252.276C413.04 250.682 413.911 249.016 414.708 247.318C414.746 247.237 414.884 247.299 414.852 247.383C414.069 249.422 412.998 251.323 411.758 253.116C410.232 257.419 408.506 261.65 406.585 265.777C406.031 266.967 394.421 293.687 385.326 296.17C382.165 297.033 371.343 296.253 369.046 295.728C368.946 295.705 368.922 295.583 369.034 295.58C372.155 295.506 383.052 296.216 385.96 294.727Z" fill="#0C5E62"/>
<path d="M343.113 285.472C343.515 284.35 343.926 283.232 344.341 282.116C345.171 279.88 350.179 266.603 352.353 262.454C352.411 262.343 352.578 262.427 352.548 262.542C351.327 267.088 346.018 280.193 345.131 282.355C344.677 283.461 344.22 284.566 343.753 285.666C343.283 286.774 342.685 287.822 342.22 288.93C342.174 289.039 341.999 288.991 342.041 288.876C342.444 287.759 342.711 286.593 343.113 285.472Z" fill="#0C5E62"/>
<path d="M347.545 256.985C349.525 257.072 367.412 261.229 371.359 262.118C372.292 262.328 373.314 262.671 374.279 262.52C375.307 262.359 375.98 261.506 376.623 260.768C377.903 259.299 391.888 240.811 392.904 239.902C393.287 239.56 393.59 239.492 393.228 240.076C392.606 241.077 379.006 259.333 377.772 260.769C376.624 262.105 375.545 263.506 373.616 263.427C372.767 263.392 348.649 257.983 347.464 257.488C347.212 257.383 347.234 256.971 347.545 256.985Z" fill="#0C5E62"/>
<path d="M393.422 226.035C397.055 225.96 405.164 220.001 406.341 214.478C406.42 214.099 404.894 210.819 403.228 206.746C402.227 204.27 401.171 201.49 400.39 198.883C400.233 198.347 385.231 207.751 385.231 207.751C385.231 207.751 388.475 212.734 389.808 217.287C389.915 217.669 389.983 218.033 390.016 218.39C390.025 218.441 390.029 218.505 390.045 218.574C390.323 220.706 389.535 226.115 393.422 226.035Z" fill="#F7A9A0"/>
<path d="M390.011 218.391C390.025 218.444 390.031 218.51 390.048 218.574C390.579 218.49 391.142 218.353 391.747 218.16C401.306 215.066 400.238 202.261 399.813 199.061C397.033 200.347 385.23 207.75 385.23 207.75C385.23 207.75 388.476 212.737 389.811 217.29C389.912 217.671 389.985 218.036 390.011 218.391Z" fill="#0C5E62"/>
<path d="M397.346 177.681C400.682 183.057 402.075 200.773 398.914 205.643C394.331 212.704 384.596 215.845 378.033 209.826C371.671 203.992 370.264 180.872 374.003 176.216C379.511 169.358 392.418 169.74 397.346 177.681Z" fill="#F7A9A0"/>
<path d="M383.546 192.168C383.551 192.122 383.644 192.217 383.646 192.266C383.708 193.462 383.98 194.821 385.092 195.127C385.127 195.136 385.128 195.197 385.087 195.195C383.756 195.119 383.413 193.311 383.546 192.168Z" fill="#0C5E62"/>
<path d="M384.507 190.834C386.413 190.528 386.885 194.363 385.119 194.647C383.38 194.925 382.909 191.09 384.507 190.834Z" fill="#0C5E62"/>
<path d="M376.692 193.209C376.678 193.165 376.606 193.276 376.614 193.325C376.798 194.508 376.809 195.894 375.783 196.421C375.751 196.437 375.762 196.497 375.801 196.486C377.09 196.141 377.056 194.301 376.692 193.209Z" fill="#0C5E62"/>
<path d="M375.479 192.099C373.55 192.189 373.872 196.039 375.659 195.956C377.417 195.874 377.095 192.023 375.479 192.099Z" fill="#0C5E62"/>
<path d="M385.805 188.894C385.267 188.827 384.781 188.675 384.255 188.554C383.662 188.417 383.175 188.369 382.741 187.905C382.508 187.657 382.531 187.156 382.751 186.907C383.264 186.327 384.031 186.314 384.752 186.45C385.534 186.598 386.099 186.911 386.611 187.519C387.108 188.108 386.515 188.983 385.805 188.894Z" fill="#0C5E62"/>
<path d="M373.759 190.348C374.28 190.196 374.735 189.969 375.235 189.765C375.799 189.535 376.271 189.41 376.626 188.884C376.817 188.601 376.715 188.112 376.458 187.9C375.86 187.409 375.099 187.519 374.41 187.768C373.661 188.038 373.153 188.438 372.744 189.119C372.346 189.78 373.072 190.549 373.759 190.348Z" fill="#0C5E62"/>
<path d="M386 203.06C385.75 203.373 385.513 203.791 385.086 203.88C384.677 203.966 384.169 203.839 383.772 203.738C383.733 203.728 383.699 203.773 383.728 203.805C384.093 204.223 384.777 204.429 385.315 204.265C385.841 204.105 386.05 203.607 386.12 203.099C386.131 203.028 386.037 203.014 386 203.06Z" fill="#0C5E62"/>
<path d="M384.314 199.657C383.776 200.77 382.868 201.454 381.836 201.789C381.376 201.942 380.881 202.019 380.389 202.035C380.293 202.044 380.196 202.046 380.107 202.037C380.019 202.037 379.939 202.037 379.842 202.029C379.701 202.026 379.611 201.921 379.571 201.793L379.57 201.784C379.566 201.74 379.562 201.705 379.566 201.661C379.566 201.661 379.566 201.661 379.565 201.652L379.555 201.547C379.417 200.635 379.335 199.234 379.335 199.234C379.021 199.442 377.412 200.419 377.38 199.937C377.13 195.952 376.851 191.52 377.444 187.502C377.457 187.369 377.66 187.374 377.665 187.506C378.057 191.326 377.775 195.19 378.108 199.034C378.626 198.761 379.466 198.269 379.946 198.22C380.08 198.241 380.057 200.932 380.151 201.337C380.151 201.337 380.153 201.354 380.164 201.379C381.725 201.387 382.826 200.78 384.191 199.564C384.27 199.486 384.374 199.554 384.314 199.657Z" fill="#0C5E62"/>
<path d="M380.871 201.505C380.871 201.505 381.817 202.499 382.976 202.758C383.403 202.854 383.851 202.858 384.298 202.678C385.216 202.312 385.133 201.438 384.867 200.715C384.651 200.12 384.302 199.627 384.302 199.627C384.302 199.627 383.075 201.094 380.871 201.505Z" fill="#0C5E62"/>
<path d="M382.976 202.758C383.403 202.854 383.851 202.858 384.298 202.678C385.216 202.312 385.133 201.438 384.867 200.715C383.862 200.944 382.94 201.759 382.976 202.758Z" fill="#FF9BBC"/>
<path d="M398.943 192.726C395.814 193.059 394.848 185.436 394.848 185.436C394.848 185.436 389.979 185.376 386.584 179.276C386.584 179.276 381.141 184.109 375.885 184.034C367.647 183.916 366.13 173.493 368.768 170.877C372.506 167.17 380.79 170.278 380.79 170.278C380.79 170.278 391.69 165.186 396.383 172.349C396.383 172.349 401.518 171.721 402.809 177.293C404.1 182.866 401.275 192.478 398.943 192.726Z" fill="#0C5E62"/>
<path d="M396.107 186.143C393.762 186.074 391.423 185.385 389.59 183.876C387.697 182.319 386.311 179.673 386.602 177.184C386.618 177.049 386.395 177.035 386.389 177.174C386.262 179.909 386.871 182.598 388.925 184.546C390.806 186.331 393.614 187.165 396.127 186.375C396.247 186.337 396.247 186.147 396.107 186.143Z" fill="#0C5E62"/>
<path d="M402.666 173.929C400.761 172.196 398.303 172.285 395.942 172.765C395.807 172.793 395.857 173.011 395.989 172.973C398.282 172.315 400.898 173.483 402.435 175.193C403.942 176.87 404.066 179.277 403.929 181.43C403.666 185.56 401.926 189.536 398.95 192.429C398.901 192.477 398.971 192.553 399.022 192.507C402.435 189.443 404.565 185.041 404.655 180.435C404.699 178.188 404.423 175.527 402.666 173.929Z" fill="#0C5E62"/>
<path d="M381.166 170.603C379.812 169.145 378.176 168.201 376.214 167.971C373.956 167.706 371.525 168.411 369.693 169.753C368.139 170.891 367.483 172.787 367.676 174.706C367.896 176.895 369.247 178.764 370.753 180.256C370.796 180.299 370.862 180.238 370.821 180.191C369.565 178.751 368.499 177.06 368.293 175.105C368.089 173.167 368.835 171.389 370.434 170.333C373.469 168.328 378.308 167.767 381.013 170.746C381.105 170.848 381.259 170.703 381.166 170.603Z" fill="#0C5E62"/>
<path d="M374.208 199.374C372.227 199.462 370.507 197.099 370.373 194.104C370.24 191.11 371.743 188.602 373.724 188.514C375.704 188.426 377.424 190.79 377.557 193.784C377.69 196.779 376.188 199.286 374.208 199.374ZM373.756 189.242C372.177 189.312 370.985 191.479 371.101 194.072C371.216 196.664 372.596 198.716 374.175 198.646C375.755 198.576 376.945 196.409 376.829 193.817C376.714 191.224 375.336 189.171 373.756 189.242Z" fill="#ACC9CB"/>
<path d="M385.978 198.832C383.183 198.956 380.8 196.622 380.666 193.628C380.532 190.634 382.699 188.096 385.494 187.972C388.29 187.848 390.674 190.182 390.807 193.176C390.941 196.171 388.774 198.707 385.978 198.832ZM385.527 188.7C383.133 188.807 381.279 191.002 381.394 193.596C381.509 196.188 383.551 198.211 385.945 198.104C388.341 197.997 390.194 195.802 390.079 193.209C389.964 190.616 387.922 188.593 385.527 188.7Z" fill="#ACC9CB"/>
<path d="M380.929 193.144C378.39 192.301 377.301 193.24 377.293 193.25L376.855 192.696C376.906 192.645 378.193 191.475 381.121 192.448L380.929 193.144Z" fill="#ACC9CB"/>
<path d="M390.383 192.718L390.218 192.009C390.686 191.901 399.61 189.83 400.814 189.709C402.082 189.564 405.114 191.108 405.457 191.282L405.127 191.931C404.267 191.493 401.874 190.388 400.94 190.43C400.921 190.431 400.904 190.432 400.886 190.434C399.96 190.526 394.326 191.806 390.383 192.718Z" fill="#ACC9CB"/>
<path d="M396.775 192.776C396.775 192.776 399.276 186.348 402.102 187.109C404.928 187.871 403.982 196.536 401.322 198.338C398.662 200.14 396.945 197.711 396.945 197.711L396.775 192.776Z" fill="#F7A9A0"/>
<path d="M401.77 189.588C401.816 189.572 401.841 189.636 401.804 189.662C399.955 190.993 399.339 193.159 399.064 195.316C399.489 194.408 400.218 193.789 401.412 194.268C401.475 194.293 401.444 194.389 401.383 194.391C400.499 194.416 399.928 194.709 399.524 195.521C399.238 196.096 399.111 196.765 398.957 197.386C398.906 197.593 398.551 197.575 398.569 197.347C398.57 197.33 398.572 197.313 398.574 197.295C397.885 194.692 399.026 190.536 401.77 189.588Z" fill="#0C5E62"/>
<path d="M388.743 218.219C388.751 218.184 388.802 218.191 388.797 218.228C388.349 221.646 387.527 229.586 392.75 229.445C394.854 229.388 396.856 228.161 398.542 226.941C400.273 225.688 401.84 224.204 403.274 222.601C404.866 220.822 406.506 218.954 407.796 216.927C407.851 216.841 407.975 216.943 407.916 217.029C406.537 219.044 405.356 221.156 403.79 223.038C402.283 224.849 400.596 226.516 398.675 227.849C396.875 229.099 394.75 230.315 392.529 230.265C390.417 230.218 388.979 228.768 388.505 226.711C387.882 224.008 388.144 220.909 388.743 218.219Z" fill="#0C5E62"/>
<path d="M78.763 82.7496C75.134 93.0386 69.043 104.777 70.473 115.995C71.605 124.784 77.3189 132.201 83.8519 137.832C98.2279 150.205 121.183 158.198 137.803 145.241C144.439 140.063 149.386 126.592 143.203 119.241C140.024 115.474 135.5 113.455 131.398 110.892C125.98 107.528 122.727 102.929 121.661 96.6106C119.569 84.3016 123.004 76.7906 125.489 64.9116C125.943 62.7066 126.081 60.4386 124.509 57.9866C123.279 55.5936 121.227 53.5896 118.798 52.0976C116.828 50.5196 114.63 49.2796 112.12 48.8066C106.833 47.7906 100.484 51.0266 95.6279 52.7696C90.7129 54.5386 87.925 57.0936 86.091 62.0336C83.548 68.9006 81.206 75.8446 78.763 82.7496Z" fill="#0C5E62"/>
<path d="M75.9839 87.2761C79.9179 78.0591 84.0269 68.9351 88.0809 59.7741C88.1049 59.7191 88.1949 59.7461 88.1719 59.8041C85.0559 67.4381 82.0479 75.1061 78.8299 82.7021C75.6779 90.1461 71.9239 97.5841 69.4349 105.278C63.8469 122.55 79.5689 135.031 94.5979 138.654C95.2819 138.818 94.9419 139.889 94.2549 139.7C81.1609 136.104 66.9999 126.971 67.3529 111.665C67.5469 103.293 72.7679 94.8111 75.9839 87.2761Z" fill="#0C5E62"/>
<path d="M124.927 63.7448C124.987 63.5608 125.258 63.6528 125.211 63.8378C122.754 73.5228 118.98 84.5848 121.9 94.5518C123.329 99.4288 126.246 103.848 130.199 107.05C133.342 109.596 137.107 110.876 140.635 112.748C154.43 120.07 148.574 139.918 135.578 144.415C135.305 144.509 135.132 144.043 135.402 143.936C144.714 140.23 150.477 130.113 146.777 120.284C143.807 112.396 133.764 111.572 128.115 106.089C116.411 94.7278 120.432 77.5288 124.927 63.7448Z" fill="#0C5E62"/>
<path d="M167.908 77.6438L153.728 108.212C153.207 109.089 153.534 109.944 154.46 110.12L171.025 113.263C171.95 113.439 173.125 112.868 173.647 111.992L187.827 81.4238C188.35 80.5448 188.021 79.6918 187.096 79.5168L170.531 76.3738C169.605 76.1978 168.43 76.7658 167.908 77.6438Z" fill="#A6A6A6"/>
<path d="M169.877 78.0002L155.697 108.568C155.175 109.445 155.503 110.3 156.429 110.476L172.994 113.619C173.919 113.794 175.094 113.224 175.616 112.348L189.796 81.7802C190.319 80.9012 189.99 80.0482 189.065 79.8722L172.5 76.7292C171.574 76.5532 170.4 77.1222 169.877 78.0002Z" fill="#DBDBDB"/>
<path d="M174.141 80.3284C173.976 81.1024 173.215 81.5964 172.442 81.4314C171.668 81.2664 171.174 80.5064 171.339 79.7324C171.504 78.9584 172.264 78.4644 173.038 78.6294C173.811 78.7934 174.305 79.5544 174.141 80.3284Z" fill="#0C5E62"/>
<path d="M105.286 116.123C110.68 137.914 126.544 167.975 135.213 169.818C139.338 170.695 146.527 173.153 152.9 169.48C166.807 161.465 180.652 143.6 184.93 132.646C186.452 128.75 168.544 116.092 164.988 118.804C156.662 125.154 145.757 138.695 144.573 138.364C140.191 137.141 125.673 119.191 115.558 106.572C103.28 91.2534 103.136 107.439 105.286 116.123Z" fill="#D3766A"/>
<path d="M189.569 111.873C189.121 103.26 187.683 101.118 191.166 93.6479C193.451 88.7459 191.302 85.1839 186.827 88.5909C179.508 94.1649 177.752 105.398 178.265 109.468L189.569 111.873Z" fill="#D3766A"/>
<path d="M183.271 135.973C183.271 135.973 189.205 125.275 189.635 116.049C189.933 109.669 189.033 95.7175 173.083 85.2755C169.3 82.7985 162.153 81.9525 166.863 88.2415C170.208 92.7085 173.679 94.5305 175.152 97.4835C175.152 97.4835 165.933 97.4865 163.6 101.373C162.557 103.11 159.822 107.918 158.227 111.964C158.227 111.964 159.015 112.549 160.119 113.147C160.119 113.147 158.049 116.855 159.869 123.06L183.271 135.973Z" fill="#D3766A"/>
<path d="M188.947 109.915C186.865 107.293 182.361 101.811 177.116 98.6076C171.29 95.0496 159.109 89.7656 156.527 94.0936C154.634 97.2666 159.107 99.6926 159.107 99.6926C159.107 99.6926 153.612 98.5696 152.528 101.811C151.541 104.764 155.114 106.434 155.114 106.434C155.114 106.434 151.663 106.326 151.261 109.353C150.776 112.995 158.087 112.623 160.783 116.736C161.389 117.659 188.947 109.915 188.947 109.915Z" fill="#D3766A"/>
<path d="M174.384 105.389C172.023 103.244 165.409 99.7502 159.231 99.6212C159.091 99.6182 159.014 99.7222 159.141 99.7522C165.913 101.339 171.886 104.114 174.351 105.444C174.383 105.462 174.41 105.413 174.384 105.389Z" fill="#0C5E62"/>
<path d="M170.621 111.166C168.393 109.525 161.416 106.228 155.151 106.312C155.011 106.314 154.94 106.424 155.069 106.448C162.212 107.814 168.052 110.042 170.591 111.223C170.625 111.238 170.65 111.187 170.621 111.166Z" fill="#0C5E62"/>
<path d="M113.046 144.028L131.826 123.451C131.826 123.451 119.029 107.311 110.622 100.418C105.911 96.5546 102.849 100.159 103.188 105.653C104.373 124.882 113.046 144.028 113.046 144.028Z" fill="#0C5E62"/>
<path d="M107.812 102.594C107.812 103.199 107.321 103.69 106.716 103.69C106.111 103.69 105.62 103.199 105.62 102.594C105.62 101.989 106.111 101.498 106.716 101.498C107.321 101.498 107.812 101.989 107.812 102.594ZM106.716 118.363C106.111 118.363 105.62 118.854 105.62 119.459C105.62 120.064 106.111 120.555 106.716 120.555C107.321 120.555 107.812 120.064 107.812 119.459C107.812 118.854 107.321 118.363 106.716 118.363ZM119.096 118.363C118.491 118.363 118 118.854 118 119.459C118 120.064 118.491 120.555 119.096 120.555C119.701 120.555 120.192 120.064 120.192 119.459C120.192 118.854 119.701 118.363 119.096 118.363ZM112.906 109.978C112.301 109.978 111.81 110.469 111.81 111.074C111.81 111.679 112.301 112.17 112.906 112.17C113.511 112.17 114.002 111.679 114.002 111.074C114.002 110.468 113.511 109.978 112.906 109.978ZM119.096 135.228C118.491 135.228 118 135.719 118 136.324C118 136.929 118.491 137.42 119.096 137.42C119.701 137.42 120.192 136.929 120.192 136.324C120.192 135.719 119.701 135.228 119.096 135.228ZM112.906 126.843C112.301 126.843 111.81 127.334 111.81 127.939C111.81 128.544 112.301 129.035 112.906 129.035C113.511 129.035 114.002 128.544 114.002 127.939C114.002 127.334 113.511 126.843 112.906 126.843ZM125.286 126.843C124.681 126.843 124.19 127.334 124.19 127.939C124.19 128.544 124.681 129.035 125.286 129.035C125.891 129.035 126.382 128.544 126.382 127.939C126.382 127.334 125.891 126.843 125.286 126.843ZM112.91 143.711C113 143.921 113.05 144.031 113.05 144.031L113.28 143.781C113.17 143.731 113.04 143.711 112.91 143.711Z" fill="white"/>
<path d="M127.931 121.213C124.78 124.139 116.461 132.325 111.75 138.35C111.722 138.386 111.847 138.51 111.88 138.478C116.555 134.056 125.231 124.585 128.117 121.396C128.171 121.337 127.99 121.158 127.931 121.213Z" fill="#0C5E62"/>
<path opacity="0.1" d="M129.678 125.794L113.05 144.032C113.05 144.032 104.375 124.883 103.187 105.657C102.954 101.881 104.331 99.0042 106.741 98.8262L129.678 125.794Z" fill="black"/>
<path d="M127.56 174.565H58.074C58.074 174.565 66.263 126.961 88.647 101.471C94.686 94.5939 103.769 95.7579 108.951 100.412C110.244 101.575 112.031 103.619 113.991 106.137C118.698 112.185 126.385 126.707 127.104 130.635C128.291 137.127 122.545 144.143 122.545 144.143L127.56 174.565Z" fill="#0C5E62"/>
<path d="M95.432 102.594C95.432 103.199 94.941 103.69 94.336 103.69C93.731 103.69 93.24 103.199 93.24 102.594C93.24 101.989 93.731 101.498 94.336 101.498C94.941 101.498 95.432 101.989 95.432 102.594ZM106.716 101.498C106.111 101.498 105.62 101.989 105.62 102.594C105.62 103.199 106.111 103.69 106.716 103.69C107.321 103.69 107.812 103.199 107.812 102.594C107.812 101.989 107.321 101.498 106.716 101.498ZM81.956 118.363C81.351 118.363 80.86 118.854 80.86 119.459C80.86 120.064 81.351 120.555 81.956 120.555C82.561 120.555 83.052 120.064 83.052 119.459C83.052 118.854 82.562 118.363 81.956 118.363ZM94.336 118.363C93.731 118.363 93.24 118.854 93.24 119.459C93.24 120.064 93.731 120.555 94.336 120.555C94.941 120.555 95.432 120.064 95.432 119.459C95.432 118.854 94.941 118.363 94.336 118.363ZM106.716 118.363C106.111 118.363 105.62 118.854 105.62 119.459C105.62 120.064 106.111 120.555 106.716 120.555C107.321 120.555 107.812 120.064 107.812 119.459C107.812 118.854 107.321 118.363 106.716 118.363ZM119.096 118.363C118.491 118.363 118 118.854 118 119.459C118 120.064 118.491 120.555 119.096 120.555C119.701 120.555 120.192 120.064 120.192 119.459C120.192 118.854 119.701 118.363 119.096 118.363ZM88.146 109.978C87.541 109.978 87.05 110.469 87.05 111.074C87.05 111.679 87.541 112.17 88.146 112.17C88.751 112.17 89.242 111.679 89.242 111.074C89.242 110.468 88.752 109.978 88.146 109.978ZM100.526 109.978C99.921 109.978 99.43 110.469 99.43 111.074C99.43 111.679 99.921 112.17 100.526 112.17C101.131 112.17 101.622 111.679 101.622 111.074C101.622 110.468 101.131 109.978 100.526 109.978ZM112.906 109.978C112.301 109.978 111.81 110.469 111.81 111.074C111.81 111.679 112.301 112.17 112.906 112.17C113.511 112.17 114.002 111.679 114.002 111.074C114.002 110.468 113.511 109.978 112.906 109.978ZM69.58 135.231C69.5 135.231 69.42 135.241 69.35 135.251C69.12 135.821 68.9 136.391 68.69 136.961C68.88 137.241 69.21 137.421 69.58 137.421C70.18 137.421 70.67 136.931 70.67 136.321C70.67 135.721 70.18 135.231 69.58 135.231ZM81.956 135.228C81.351 135.228 80.86 135.719 80.86 136.324C80.86 136.929 81.351 137.42 81.956 137.42C82.561 137.42 83.052 136.929 83.052 136.324C83.052 135.719 82.562 135.228 81.956 135.228ZM94.336 135.228C93.731 135.228 93.24 135.719 93.24 136.324C93.24 136.929 93.731 137.42 94.336 137.42C94.941 137.42 95.432 136.929 95.432 136.324C95.432 135.719 94.941 135.228 94.336 135.228ZM106.716 135.228C106.111 135.228 105.62 135.719 105.62 136.324C105.62 136.929 106.111 137.42 106.716 137.42C107.321 137.42 107.812 136.929 107.812 136.324C107.812 135.719 107.321 135.228 106.716 135.228ZM119.096 135.228C118.491 135.228 118 135.719 118 136.324C118 136.929 118.491 137.42 119.096 137.42C119.701 137.42 120.192 136.929 120.192 136.324C120.192 135.719 119.701 135.228 119.096 135.228ZM75.766 126.843C75.161 126.843 74.67 127.334 74.67 127.939C74.67 128.544 75.161 129.035 75.766 129.035C76.371 129.035 76.862 128.544 76.862 127.939C76.862 127.334 76.372 126.843 75.766 126.843ZM88.146 126.843C87.541 126.843 87.05 127.334 87.05 127.939C87.05 128.544 87.541 129.035 88.146 129.035C88.751 129.035 89.242 128.544 89.242 127.939C89.242 127.334 88.752 126.843 88.146 126.843ZM100.526 126.843C99.921 126.843 99.43 127.334 99.43 127.939C99.43 128.544 99.921 129.035 100.526 129.035C101.131 129.035 101.622 128.544 101.622 127.939C101.622 127.334 101.131 126.843 100.526 126.843ZM112.906 126.843C112.301 126.843 111.81 127.334 111.81 127.939C111.81 128.544 112.301 129.035 112.906 129.035C113.511 129.035 114.002 128.544 114.002 127.939C114.002 127.334 113.511 126.843 112.906 126.843ZM125.84 127.001C125.68 126.901 125.49 126.841 125.29 126.841C124.68 126.841 124.19 127.331 124.19 127.941C124.19 128.541 124.68 129.031 125.29 129.031C125.79 129.031 126.22 128.691 126.34 128.221L125.84 127.001ZM69.576 152.093C68.971 152.093 68.48 152.584 68.48 153.189C68.48 153.794 68.971 154.285 69.576 154.285C70.181 154.285 70.672 153.794 70.672 153.189C70.672 152.584 70.182 152.093 69.576 152.093ZM81.956 152.093C81.351 152.093 80.86 152.584 80.86 153.189C80.86 153.794 81.351 154.285 81.956 154.285C82.561 154.285 83.052 153.794 83.052 153.189C83.052 152.584 82.562 152.093 81.956 152.093ZM94.336 152.093C93.731 152.093 93.24 152.584 93.24 153.189C93.24 153.794 93.731 154.285 94.336 154.285C94.941 154.285 95.432 153.794 95.432 153.189C95.432 152.584 94.941 152.093 94.336 152.093ZM106.716 152.093C106.111 152.093 105.62 152.584 105.62 153.189C105.62 153.794 106.111 154.285 106.716 154.285C107.321 154.285 107.812 153.794 107.812 153.189C107.812 152.584 107.321 152.093 106.716 152.093ZM119.096 152.093C118.491 152.093 118 152.584 118 153.189C118 153.794 118.491 154.285 119.096 154.285C119.701 154.285 120.192 153.794 120.192 153.189C120.192 152.584 119.701 152.093 119.096 152.093ZM75.766 143.708C75.161 143.708 74.67 144.199 74.67 144.804C74.67 145.409 75.161 145.9 75.766 145.9C76.371 145.9 76.862 145.409 76.862 144.804C76.862 144.199 76.372 143.708 75.766 143.708ZM88.146 143.708C87.541 143.708 87.05 144.199 87.05 144.804C87.05 145.409 87.541 145.9 88.146 145.9C88.751 145.9 89.242 145.409 89.242 144.804C89.242 144.199 88.752 143.708 88.146 143.708ZM100.526 143.708C99.921 143.708 99.43 144.199 99.43 144.804C99.43 145.409 99.921 145.9 100.526 145.9C101.131 145.9 101.622 145.409 101.622 144.804C101.622 144.199 101.131 143.708 100.526 143.708ZM112.906 143.708C112.301 143.708 111.81 144.199 111.81 144.804C111.81 145.409 112.301 145.9 112.906 145.9C113.511 145.9 114.002 145.409 114.002 144.804C114.002 144.199 113.511 143.708 112.906 143.708ZM69.576 168.959C68.971 168.959 68.48 169.45 68.48 170.055C68.48 170.66 68.971 171.151 69.576 171.151C70.181 171.151 70.672 170.66 70.672 170.055C70.672 169.449 70.182 168.959 69.576 168.959ZM81.956 168.959C81.351 168.959 80.86 169.45 80.86 170.055C80.86 170.66 81.351 171.151 81.956 171.151C82.561 171.151 83.052 170.66 83.052 170.055C83.052 169.449 82.562 168.959 81.956 168.959ZM94.336 168.959C93.731 168.959 93.24 169.45 93.24 170.055C93.24 170.66 93.731 171.151 94.336 171.151C94.941 171.151 95.432 170.66 95.432 170.055C95.432 169.449 94.941 168.959 94.336 168.959ZM106.716 168.959C106.111 168.959 105.62 169.45 105.62 170.055C105.62 170.66 106.111 171.151 106.716 171.151C107.321 171.151 107.812 170.66 107.812 170.055C107.812 169.449 107.321 168.959 106.716 168.959ZM119.096 168.959C118.491 168.959 118 169.45 118 170.055C118 170.66 118.491 171.151 119.096 171.151C119.701 171.151 120.192 170.66 120.192 170.055C120.192 169.449 119.701 168.959 119.096 168.959ZM63.386 160.573C62.781 160.573 62.29 161.064 62.29 161.669C62.29 162.274 62.781 162.765 63.386 162.765C63.991 162.765 64.482 162.274 64.482 161.669C64.482 161.064 63.992 160.573 63.386 160.573ZM75.766 160.573C75.161 160.573 74.67 161.064 74.67 161.669C74.67 162.274 75.161 162.765 75.766 162.765C76.371 162.765 76.862 162.274 76.862 161.669C76.862 161.064 76.372 160.573 75.766 160.573ZM88.146 160.573C87.541 160.573 87.05 161.064 87.05 161.669C87.05 162.274 87.541 162.765 88.146 162.765C88.751 162.765 89.242 162.274 89.242 161.669C89.242 161.064 88.752 160.573 88.146 160.573ZM100.526 160.573C99.921 160.573 99.43 161.064 99.43 161.669C99.43 162.274 99.921 162.765 100.526 162.765C101.131 162.765 101.622 162.274 101.622 161.669C101.622 161.064 101.131 160.573 100.526 160.573ZM112.906 160.573C112.301 160.573 111.81 161.064 111.81 161.669C111.81 162.274 112.301 162.765 112.906 162.765C113.511 162.765 114.002 162.274 114.002 161.669C114.002 161.064 113.511 160.573 112.906 160.573ZM125.26 160.571C124.66 160.591 124.19 161.071 124.19 161.671C124.19 162.271 124.68 162.761 125.29 162.761C125.4 162.761 125.51 162.741 125.61 162.711L125.26 160.571Z" fill="white"/>
<path d="M111.744 141.493C108.621 141.814 105.487 142.243 102.442 143.023C100.927 143.411 99.44 143.867 97.955 144.356C97.215 144.6 96.471 144.818 95.722 145.033C94.953 145.253 94.129 145.459 93.326 145.485C93.254 145.487 93.256 145.595 93.328 145.597C94.109 145.618 94.857 145.637 95.636 145.554C96.376 145.475 97.113 145.317 97.836 145.139C99.377 144.76 100.899 144.31 102.435 143.915C105.535 143.118 108.633 142.323 111.784 141.752C111.928 141.725 111.892 141.478 111.744 141.493Z" fill="#0C5E62"/>
<path d="M119.488 144.269C116.92 144.007 114.299 143.864 111.717 143.895C110.418 143.911 109.13 144.001 107.837 144.126C107.22 144.186 106.604 144.257 105.989 144.335C105.312 144.421 104.646 144.598 103.969 144.675C103.898 144.683 103.898 144.793 103.971 144.787C104.612 144.734 105.265 144.788 105.908 144.772C106.554 144.757 107.201 144.736 107.847 144.721C109.141 144.69 110.435 144.672 111.729 144.629C114.32 144.541 116.9 144.48 119.492 144.482C119.632 144.482 119.621 144.283 119.488 144.269Z" fill="#0C5E62"/>
<path d="M83.106 105.226C64.012 125.24 40.269 167.066 44.965 175.386C50.195 184.653 77.73 156.164 76.866 154.799C76.132 153.64 85.645 128.455 92.557 110.037C99.462 91.6364 87.827 100.276 83.106 105.226Z" fill="#D3766A"/>
<path d="M59.709 129.222L87.127 134.158C87.127 134.158 93.971 114.731 95.329 103.944C96.09 97.8992 92.537 97.6512 88.068 100.863C72.424 112.108 59.709 129.222 59.709 129.222Z" fill="#0C5E62"/>
<path d="M95.432 102.594C95.432 103.199 94.941 103.69 94.336 103.69C93.731 103.69 93.24 103.199 93.24 102.594C93.24 101.989 93.731 101.498 94.336 101.498C94.941 101.498 95.432 101.989 95.432 102.594ZM69.576 118.363C68.971 118.363 68.48 118.854 68.48 119.459C68.48 120.064 68.971 120.555 69.576 120.555C70.181 120.555 70.672 120.064 70.672 119.459C70.672 118.854 70.182 118.363 69.576 118.363ZM81.956 118.363C81.351 118.363 80.86 118.854 80.86 119.459C80.86 120.064 81.351 120.555 81.956 120.555C82.561 120.555 83.052 120.064 83.052 119.459C83.052 118.854 82.562 118.363 81.956 118.363ZM76.64 110.421C76.11 110.921 75.58 111.421 75.07 111.921C75.26 112.081 75.5 112.171 75.77 112.171C76.37 112.171 76.86 111.681 76.86 111.071C76.86 110.831 76.78 110.601 76.64 110.421ZM88.146 109.978C87.541 109.978 87.05 110.469 87.05 111.074C87.05 111.679 87.541 112.17 88.146 112.17C88.751 112.17 89.242 111.679 89.242 111.074C89.242 110.468 88.752 109.978 88.146 109.978ZM63.386 126.843C62.781 126.843 62.29 127.334 62.29 127.939C62.29 128.544 62.781 129.035 63.386 129.035C63.991 129.035 64.482 128.544 64.482 127.939C64.482 127.334 63.992 126.843 63.386 126.843ZM75.766 126.843C75.161 126.843 74.67 127.334 74.67 127.939C74.67 128.544 75.161 129.035 75.766 129.035C76.371 129.035 76.862 128.544 76.862 127.939C76.862 127.334 76.372 126.843 75.766 126.843ZM88.146 126.843C87.541 126.843 87.05 127.334 87.05 127.939C87.05 128.544 87.541 129.035 88.146 129.035C88.751 129.035 89.242 128.544 89.242 127.939C89.242 127.334 88.752 126.843 88.146 126.843Z" fill="white"/>
<path d="M86.9469 129.67C82.7919 128.561 71.4339 125.88 63.8249 125.102C63.7789 125.097 63.7409 125.269 63.7849 125.28C70.0169 126.882 82.6549 129.181 86.8899 129.925C86.9699 129.94 87.0249 129.691 86.9469 129.67Z" fill="#0C5E62"/>
<path d="M83.7849 133.556C84.9159 133.665 86.0419 133.799 87.1639 133.952L86.9289 134.092C87.7439 131.104 88.6509 128.147 89.6249 125.212C90.6049 122.278 91.6369 119.361 92.8169 116.488C92.1009 119.505 91.2359 122.478 90.3189 125.434C89.3969 128.388 88.4069 131.322 87.3259 134.224L87.2599 134.402L87.0909 134.364C85.9849 134.115 84.8829 133.848 83.7849 133.556Z" fill="#0C5E62"/>
<path d="M91.002 122.401C91.235 121.768 91.578 121.214 91.937 120.67C92.311 120.133 92.703 119.624 93.177 119.131C93.123 119.466 92.992 119.774 92.851 120.073C92.714 120.375 92.537 120.654 92.356 120.929C91.977 121.468 91.554 121.981 91.002 122.401Z" fill="#0C5E62"/>
<path d="M44.9649 175.385C49.4409 181.565 61.3629 182.558 91.1449 187.876C95.2659 188.612 108.283 160.925 103.923 159.913C98.4309 158.638 76.8399 154.881 75.2269 154.806C61.6169 154.171 41.9279 171.193 44.9649 175.385Z" fill="#D3766A"/>
<path d="M97.963 158.66C97.963 158.66 110.571 160.35 116.92 163.288C125.422 167.222 131.142 174.12 133.364 177.155C138.004 183.49 144.841 202.016 139.849 204.917C135.33 207.542 129.298 188.252 129.298 188.252C129.298 188.252 138.694 206.904 132.671 209.065C126.649 211.225 120.92 188.435 120.92 188.435C120.92 188.435 130.144 207.816 123.581 209.062C118.621 210.003 112.27 189.654 112.27 189.654C112.27 189.654 120.083 206.368 115.024 207.555C109.434 208.868 102.392 190.451 102.392 190.451C89.025 191.306 82.31 186.245 77.963 182.076C76.91 181.067 97.963 158.66 97.963 158.66Z" fill="#D3766A"/>
<path d="M126.461 181.593C127.644 183.744 128.856 185.913 129.844 188.162C130.832 190.411 131.742 192.696 132.516 195.027C134.414 200.744 134.709 204.62 134.664 204.383C133.617 198.767 130.206 190.662 129.217 188.412C128.231 186.168 127.358 183.874 126.374 181.628C126.349 181.571 126.432 181.542 126.461 181.593Z" fill="#0C5E62"/>
<path d="M118.275 185.012C119.667 187.824 121.151 190.565 122.419 193.439C123.68 196.299 124.627 199.124 125.689 202.063C125.771 202.289 125.622 202.259 125.531 202.035C124.353 199.14 123.041 196.554 121.829 193.674C120.621 190.803 119.516 187.864 118.205 185.04C118.185 184.996 118.254 184.969 118.275 185.012Z" fill="#0C5E62"/>
<path d="M110.723 186.683C113.07 190.872 114.641 195.488 116.074 200.054C116.145 200.281 115.958 200.221 115.872 199.993C114.177 195.515 112.879 191.99 110.577 186.765C110.541 186.683 110.673 186.595 110.723 186.683Z" fill="#0C5E62"/>
<path d="M62.0849 158.145C64.0659 156.891 69.6719 153.946 75.1859 154.762C75.2469 154.771 75.2469 154.859 75.1839 154.859C70.6399 154.838 64.1489 157.168 62.1289 158.226C62.0769 158.253 62.0349 158.176 62.0849 158.145Z" fill="#0C5E62"/>
<path d="M96.9742 98.5215C97.1462 99.6935 102 107.616 107.274 107.814C108.992 107.875 109.745 98.5155 109.745 98.5155L109.959 97.8375L112.941 88.3415L102.188 80.0845L100.626 78.9805C100.626 78.9805 99.9812 81.6325 99.2122 84.9425C99.1762 85.0955 99.1392 85.2495 99.1022 85.4135C99.0542 85.5995 99.0052 85.7745 98.9692 85.9505C98.8472 86.4435 98.7262 86.9475 98.6152 87.4515C98.5292 87.8355 98.4432 88.2075 98.3682 88.6135C98.2822 89.0195 98.2072 89.4145 98.1202 89.8195C97.3562 93.8365 96.9082 98.0245 96.9742 98.5215Z" fill="#D3766A"/>
<path d="M99.2122 84.9425C101.334 92.8805 107.222 96.5405 109.959 97.8375L112.941 88.3415L102.188 80.0845L100.626 78.9805C100.626 78.9805 99.9822 81.6325 99.2122 84.9425Z" fill="#0C5E62"/>
<path d="M128.602 76.1807C127.512 93.6157 116.946 94.9317 113.187 94.6927C109.774 94.4757 98.1822 93.3027 97.4642 75.8477C96.7462 58.3927 105.198 53.3887 113.029 53.4717C120.861 53.5557 129.692 58.7447 128.602 76.1807Z" fill="#D3766A"/>
<path d="M125.386 71.8707C124.984 71.7767 124.629 71.6237 124.241 71.4897C123.803 71.3387 123.439 71.2637 123.148 70.8777C122.991 70.6717 123.048 70.2947 123.235 70.1237C123.669 69.7257 124.251 69.7777 124.785 69.9377C125.365 70.1117 125.767 70.3947 126.106 70.8937C126.434 71.3797 125.916 71.9937 125.386 71.8707Z" fill="#0C5E62"/>
<path d="M114.201 70.6783C114.614 70.6773 114.994 70.6083 115.402 70.5643C115.863 70.5153 116.234 70.5243 116.605 70.2153C116.804 70.0493 116.833 69.6693 116.69 69.4613C116.357 68.9763 115.778 68.8953 115.222 68.9313C114.618 68.9703 114.162 69.1553 113.719 69.5653C113.29 69.9643 113.657 70.6793 114.201 70.6783Z" fill="#0C5E62"/>
<path d="M116.014 75.319C116.009 75.273 115.916 75.367 115.913 75.415C115.844 76.603 115.564 77.952 114.457 78.248C114.422 78.257 114.421 78.317 114.461 78.315C115.786 78.25 116.139 76.456 116.014 75.319Z" fill="#0C5E62"/>
<path d="M115.068 73.9875C113.176 73.6705 112.681 77.4785 114.434 77.7725C116.16 78.0605 116.654 74.2525 115.068 73.9875Z" fill="#0C5E62"/>
<path d="M114.294 74.0921C113.933 74.2641 113.558 74.6021 113.152 74.5901C112.682 74.5761 112.383 74.1311 112.13 73.7091C112.104 73.6651 112.067 73.6941 112.059 73.7441C111.953 74.4721 112.137 75.2571 112.905 75.4681C113.606 75.6601 114.202 75.0801 114.479 74.3711C114.531 74.2381 114.439 74.0231 114.294 74.0921Z" fill="#0C5E62"/>
<path d="M122.881 75.6995C122.896 75.6555 122.966 75.7675 122.957 75.8165C122.757 76.9895 122.726 78.3665 123.738 78.9045C123.769 78.9215 123.758 78.9795 123.719 78.9685C122.444 78.6065 122.504 76.7785 122.881 75.6995Z" fill="#0C5E62"/>
<path d="M124.103 74.6132C126.018 74.7302 125.643 78.5522 123.869 78.4432C122.123 78.3372 122.498 74.5152 124.103 74.6132Z" fill="#0C5E62"/>
<path d="M124.875 74.9426C125.157 75.1746 125.42 75.5726 125.778 75.6316C126.193 75.6996 126.543 75.3176 126.849 74.9466C126.881 74.9086 126.908 74.9436 126.904 74.9936C126.852 75.7256 126.536 76.4626 125.821 76.5346C125.168 76.5996 124.76 75.9266 124.657 75.1816C124.638 75.0446 124.762 74.8486 124.875 74.9426Z" fill="#0C5E62"/>
<path d="M114.268 84.535C114.5 84.859 114.714 85.286 115.132 85.396C115.534 85.502 116.044 85.402 116.443 85.323C116.482 85.315 116.513 85.361 116.483 85.392C116.1 85.788 115.41 85.957 114.884 85.766C114.37 85.58 114.188 85.075 114.145 84.568C114.14 84.497 114.234 84.488 114.268 84.535Z" fill="#0C5E62"/>
<path d="M120.272 80.7175C120.272 80.7175 120.308 82.5195 120.21 83.3555C120.2 83.4335 117.546 83.6875 115.989 81.4875C115.931 81.4055 116.057 81.3255 116.127 81.3865C117.134 82.3255 118.328 82.6775 119.635 82.8535C119.721 82.6285 119.47 79.7705 119.604 79.7755C120.066 79.7905 120.93 80.2075 121.452 80.4295C121.486 76.6745 120.917 72.9455 121.006 69.2065C121.012 69.0735 121.206 69.0555 121.231 69.1785C122.104 73.0455 122.16 77.3675 122.225 81.2455C122.238 81.7305 120.59 80.8995 120.272 80.7175Z" fill="#0C5E62"/>
<path d="M119.079 83.1333C119.079 83.1333 118.217 84.0163 117.171 84.2353C116.786 84.3173 116.383 84.3153 115.983 84.1483C115.161 83.8083 115.247 83.0233 115.494 82.3763C115.696 81.8433 116.015 81.4043 116.015 81.4043C116.015 81.4043 117.102 82.7373 119.079 83.1333Z" fill="#0C5E62"/>
<path d="M117.172 84.234C116.787 84.316 116.384 84.314 115.984 84.147C115.162 83.807 115.248 83.022 115.495 82.375C116.396 82.593 117.215 83.336 117.172 84.234Z" fill="#FF9BBC"/>
<path d="M98.156 75.1174C101.309 76.1344 103.533 68.8904 103.533 68.8904C103.533 68.8904 117.737 69.1534 121.017 58.1664C121.017 58.1664 122.029 65.7544 128.628 70.3474C128.628 70.3474 130.464 57.9704 121.174 53.7474C121.174 53.7474 109.916 47.0684 101.312 55.3784C92.708 63.6874 96.039 74.4344 98.156 75.1174Z" fill="#0C5E62"/>
<path d="M121.222 57.3477C121.084 59.0917 120.503 60.7997 119.643 62.3477C118.783 63.8957 117.618 65.3037 116.192 66.3837C115.858 66.6817 115.454 66.8847 115.088 67.1387L114.526 67.5007C114.33 67.6047 114.128 67.6997 113.927 67.7947C113.522 67.9797 113.125 68.1827 112.715 68.3507C112.295 68.4937 111.871 68.6257 111.448 68.7537C111.236 68.8167 111.027 68.8887 110.813 68.9427L110.162 69.0627L108.865 69.2997C107.99 69.3747 107.112 69.4037 106.245 69.4207C107.101 69.2247 107.959 69.1187 108.797 68.9167L110.041 68.5767L110.661 68.4087C110.863 68.3387 111.059 68.2517 111.258 68.1737C111.654 68.0127 112.049 67.8557 112.448 67.7087C112.833 67.5297 113.203 67.3197 113.58 67.1277L114.144 66.8367L114.672 66.4847C115.015 66.2387 115.395 66.0437 115.707 65.7567C117.069 64.7507 118.177 63.4427 119.124 62.0347C119.595 61.3247 119.997 60.5687 120.347 59.7847C120.71 59.0047 120.993 58.1887 121.222 57.3477Z" fill="#0C5E62"/>
<path d="M100.28 76.7904C100.28 76.7904 97.319 70.8324 94.67 71.8094C92.022 72.7864 93.683 81.0294 96.396 82.5294C99.108 84.0294 100.546 81.5464 100.546 81.5464L100.28 76.7904Z" fill="#D3766A"/>
<path d="M95.206 74.1595C95.16 74.1485 95.142 74.2115 95.179 74.2335C97.071 75.3515 97.851 77.3785 98.303 79.4265C97.816 78.5915 97.061 78.0605 95.956 78.6235C95.898 78.6535 95.936 78.7425 95.994 78.7395C96.846 78.6865 97.419 78.9195 97.877 79.6635C98.202 80.1905 98.382 80.8225 98.584 81.4055C98.651 81.5995 98.991 81.5515 98.953 81.3345C98.95 81.3185 98.946 81.3015 98.944 81.2855C99.381 78.7245 97.924 74.8315 95.206 74.1595Z" fill="#0C5E62"/>
<path d="M98.1919 82.014C98.1049 82.396 97.7249 82.634 97.3429 82.547C96.9609 82.46 96.7229 82.08 96.8099 81.698C96.8969 81.316 97.2769 81.0781 97.6589 81.1641C98.0399 81.2521 98.2789 81.632 98.1919 82.014Z" fill="white"/>
<path d="M96.7499 80.4941C96.6869 80.7691 96.4129 80.9411 96.1379 80.8791C95.8629 80.8161 95.6899 80.5421 95.7529 80.2671C95.8159 79.9921 96.0899 79.8191 96.3649 79.8821C96.6399 79.9451 96.8129 80.2191 96.7499 80.4941Z" fill="white"/>
<path d="M94.2482 73.7539L93.1162 73.3909C92.9542 73.3389 92.8652 73.1659 92.9172 73.0039L92.9572 72.8779C93.0092 72.7159 93.1822 72.6269 93.3442 72.6789L94.4722 73.0399C94.6342 73.0919 94.7242 73.2649 94.6722 73.4269L94.6322 73.5529C94.5832 73.7159 94.4102 73.8059 94.2482 73.7539Z" fill="#0C5E62"/>
<path d="M94.0461 74.8106L92.8651 74.6966C92.6961 74.6806 92.5721 74.5296 92.5881 74.3606L92.6011 74.2296C92.6171 74.0606 92.7681 73.9366 92.9371 73.9526L94.1181 74.0666C94.2871 74.0826 94.4111 74.2336 94.3951 74.4026L94.3821 74.5336C94.3661 74.7036 94.2151 74.8276 94.0461 74.8106Z" fill="#0C5E62"/>
<path d="M87.7148 101.12C87.7148 101.12 102.013 109.695 108.197 108.946C113.531 108.3 114.145 103.578 114.145 103.578C114.145 103.578 108.529 96.249 98.4168 96.619C93.0568 96.815 87.7148 101.12 87.7148 101.12Z" fill="#D3766A"/>
</svg>
